{"glyphs":{"0":{"ha":850,"x_min":36,"x_max":812,"o":"m 812 468 q 803 348 812 408 q 773 233 793 288 q 721 130 753 178 q 647 47 690 82 q 548 -9 604 12 q 424 -29 492 -29 q 300 -11 355 -29 q 202 40 245 7 q 127 119 159 73 q 76 221 96 165 q 46 339 56 276 q 36 468 36 401 q 66 687 36 588 q 149 856 96 785 q 272 965 201 926 q 424 1004 343 1004 q 586 969 514 1004 q 708 866 658 934 q 785 697 758 798 q 812 468 812 597 m 538 498 q 529 603 538 557 q 506 681 521 649 q 468 730 490 713 q 419 747 446 747 q 372 726 393 747 q 335 670 351 705 q 311 590 320 635 q 302 498 302 545 q 310 400 302 444 q 331 325 317 356 q 367 277 345 294 q 419 260 389 260 q 472 276 450 260 q 509 324 494 293 q 531 399 524 355 q 538 498 538 444 z "},"1":{"ha":579,"x_min":-9,"x_max":546,"o":"m 546 4 q 514 7 532 5 q 477 9 498 8 q 427 9 455 9 q 299 5 372 9 q 142 -14 227 0 q 168 64 157 17 q 185 164 178 111 q 197 272 193 217 q 203 374 201 327 q 205 456 205 422 q 205 504 205 491 q 205 520 205 506 q 204 559 205 535 q 202 613 203 583 q 200 679 201 644 q 126 692 163 686 q 58 703 89 699 q -9 710 23 707 q 67 795 37 754 q 115 871 97 836 q 142 937 133 907 q 157 990 151 967 q 282 974 225 978 q 386 970 340 970 q 441 971 416 970 q 482 974 465 972 q 517 978 502 976 q 503 893 509 940 q 492 794 496 847 q 485 684 487 742 q 482 566 482 627 q 486 422 482 495 q 497 277 489 349 q 516 136 505 205 q 546 4 528 67 z "},"2":{"ha":807,"x_min":29,"x_max":768,"o":"m 32 -14 q 50 149 32 81 q 99 267 68 217 q 168 353 129 317 q 247 416 206 388 q 326 470 287 445 q 394 524 364 495 q 443 590 425 553 q 461 679 461 627 q 457 705 461 691 q 445 732 454 720 q 421 753 436 745 q 385 761 406 761 q 352 754 366 761 q 329 737 338 747 q 316 714 320 727 q 311 690 311 702 q 316 670 311 680 q 328 652 320 660 q 344 641 335 645 q 363 636 353 636 q 387 640 373 636 q 356 601 376 618 q 313 572 337 584 q 261 555 289 561 q 205 549 234 549 q 137 559 169 549 q 80 590 104 569 q 43 641 56 610 q 29 714 29 672 q 51 823 29 770 q 115 918 72 876 q 224 984 159 959 q 376 1008 289 1008 q 550 980 476 1008 q 672 901 623 951 q 744 783 720 851 q 768 635 768 714 q 754 537 768 578 q 715 465 740 496 q 659 412 691 435 q 590 371 627 390 q 516 336 554 353 q 443 299 478 319 q 376 254 407 279 q 322 193 345 229 q 565 244 459 203 q 743 350 671 285 q 736 279 739 314 q 734 210 734 244 q 740 97 734 153 q 758 -14 746 41 q 583 5 673 -1 q 399 11 492 11 q 212 5 304 11 q 32 -14 120 -1 z "},"3":{"ha":812,"x_min":32,"x_max":771,"o":"m 604 478 q 666 455 635 469 q 719 415 696 440 q 757 354 743 391 q 771 262 771 317 q 747 140 771 197 q 674 43 723 84 q 552 -21 626 2 q 379 -45 479 -45 q 227 -20 292 -45 q 118 46 161 5 q 53 141 75 87 q 32 250 32 194 q 45 322 32 292 q 83 374 59 353 q 139 405 107 395 q 208 415 172 415 q 264 409 237 415 q 316 391 292 403 q 359 362 340 379 q 390 323 378 345 q 366 328 376 328 q 347 323 356 328 q 330 311 338 319 q 318 294 323 304 q 314 273 314 284 q 318 249 314 262 q 332 227 323 237 q 355 210 341 216 q 387 203 369 203 q 424 211 409 203 q 448 232 439 220 q 460 258 456 244 q 464 285 464 273 q 444 367 464 335 q 396 420 425 399 q 337 454 368 441 q 283 478 307 467 q 360 505 327 490 q 417 541 394 519 q 452 595 440 562 q 464 679 464 629 q 460 705 464 691 q 448 732 456 720 q 424 753 439 745 q 387 761 409 761 q 355 754 369 761 q 332 737 341 747 q 318 714 323 727 q 314 690 314 702 q 318 670 314 680 q 330 652 323 660 q 347 641 338 645 q 366 636 356 636 q 390 640 376 636 q 359 601 378 618 q 316 572 340 584 q 264 555 292 561 q 208 549 237 549 q 139 559 172 549 q 83 590 107 569 q 45 641 59 610 q 32 714 32 672 q 53 823 32 770 q 118 918 75 876 q 227 984 161 959 q 379 1008 292 1008 q 552 982 479 1008 q 674 911 626 956 q 747 810 723 867 q 771 693 771 753 q 756 612 771 649 q 718 547 742 575 q 665 502 694 519 q 604 478 635 484 z "},"4":{"ha":783,"x_min":-3,"x_max":747,"o":"m 747 509 q 740 449 742 478 q 737 389 737 419 q 747 271 737 330 q 714 284 732 278 q 679 296 696 290 q 699 145 686 218 q 730 4 711 71 q 699 7 717 5 q 662 9 684 8 q 611 9 640 9 q 484 5 557 9 q 326 -14 411 0 q 348 49 338 12 q 365 129 357 86 q 376 219 372 172 q 383 310 380 266 q 336 311 370 309 q 251 311 302 312 q 136 303 201 309 q -3 282 72 297 q 60 475 31 387 q 113 646 90 564 q 154 808 137 728 q 180 975 171 888 q 441 965 311 964 q 701 978 570 967 q 676 794 686 901 q 667 566 667 688 l 667 484 q 710 494 690 489 q 747 509 730 500 m 390 464 q 390 511 390 481 q 388 576 389 540 q 386 655 387 613 q 382 742 385 698 q 333 612 351 683 q 300 468 315 542 q 328 466 315 467 q 350 465 340 465 q 370 464 360 465 q 390 464 379 464 z "},"5":{"ha":804,"x_min":31,"x_max":770,"o":"m 354 684 q 413 680 374 683 q 498 664 452 676 q 593 628 545 652 q 680 564 641 605 q 745 461 720 523 q 770 313 770 400 q 746 166 770 232 q 673 53 722 100 q 551 -19 625 6 q 378 -45 477 -45 q 225 -20 290 -45 q 117 46 160 5 q 52 141 73 87 q 31 250 31 194 q 44 322 31 292 q 82 374 58 353 q 138 405 106 395 q 207 415 170 415 q 263 409 235 415 q 314 391 290 403 q 358 362 338 379 q 389 323 377 345 q 364 328 374 328 q 346 323 355 328 q 329 311 336 319 q 317 294 321 304 q 313 273 313 284 q 317 249 313 262 q 331 227 321 237 q 354 210 340 216 q 386 203 368 203 q 451 230 430 203 q 472 302 472 258 q 452 372 472 342 q 401 423 433 402 q 328 455 369 444 q 246 471 288 467 q 164 470 204 475 q 94 454 124 466 q 94 477 94 456 q 93 529 94 497 q 91 603 92 562 q 87 689 90 644 q 81 778 85 733 q 73 863 78 823 q 61 934 68 903 q 46 983 55 966 q 178 964 111 970 q 311 958 245 958 q 458 963 387 958 q 586 975 530 968 q 710 993 652 983 l 710 633 q 635 686 673 665 q 560 720 597 707 q 489 739 523 733 q 428 745 455 745 l 359 745 l 354 684 z "},"6":{"ha":817,"x_min":39,"x_max":787,"o":"m 492 317 q 472 407 492 374 q 410 440 452 440 q 352 407 375 440 q 328 317 329 374 q 332 268 327 291 q 349 227 338 244 q 375 198 359 209 q 410 187 390 187 q 445 197 429 187 q 470 225 460 208 q 486 267 481 243 q 492 317 492 290 m 329 610 q 347 623 335 616 q 373 635 358 630 q 407 645 389 641 q 444 648 425 648 q 525 641 484 648 q 604 618 566 634 q 676 577 642 603 q 734 516 709 552 q 773 432 759 480 q 787 322 787 384 q 760 164 787 233 q 682 50 732 96 q 563 -19 632 4 q 412 -43 494 -43 q 256 -14 326 -43 q 138 72 186 15 q 64 216 90 130 q 39 416 39 302 q 44 552 39 482 q 66 687 50 621 q 112 811 83 753 q 190 914 142 870 q 305 984 237 958 q 467 1010 373 1010 q 570 996 521 1010 q 658 956 620 981 q 718 894 696 930 q 741 815 741 859 q 727 754 741 783 q 691 706 713 726 q 638 673 668 685 q 578 661 609 661 q 500 682 538 661 q 435 750 463 703 q 449 748 442 749 q 463 747 456 747 q 483 756 476 747 q 489 775 489 764 q 478 795 489 785 q 444 806 467 806 q 385 787 408 806 q 350 740 362 768 q 333 677 337 711 q 329 610 329 642 z "},"7":{"ha":696,"x_min":21,"x_max":705,"o":"m 705 979 q 645 829 672 903 q 595 681 618 755 q 555 530 573 607 q 522 371 537 454 q 495 197 507 288 q 472 4 483 106 q 434 7 455 5 q 393 9 416 8 q 340 9 369 9 q 286 8 313 9 q 227 5 258 7 q 160 -2 195 2 q 81 -14 124 -7 q 143 101 113 37 q 199 235 173 165 q 248 376 225 304 q 287 512 270 447 q 315 632 304 577 q 330 725 326 688 q 251 722 292 724 q 170 711 210 719 q 92 691 130 704 q 21 657 54 678 q 24 676 23 663 q 27 705 26 689 q 29 739 28 722 q 30 773 29 757 q 31 802 31 789 q 31 821 31 814 q 28 904 31 863 q 21 987 25 945 q 183 963 96 971 q 359 954 269 955 q 537 959 448 953 q 705 979 626 966 z "},"8":{"ha":806,"x_min":33,"x_max":772,"o":"m 606 505 q 667 478 637 496 q 721 429 697 459 q 758 358 744 399 q 772 262 772 317 q 751 144 772 200 q 684 47 729 89 q 569 -20 639 5 q 403 -45 499 -45 q 237 -20 307 -45 q 122 47 167 5 q 55 144 77 89 q 33 262 33 200 q 47 358 33 317 q 85 429 62 399 q 139 478 109 459 q 200 505 169 496 q 152 527 176 507 q 107 578 127 548 q 74 643 87 608 q 61 707 61 677 q 82 818 61 764 q 146 915 104 872 q 253 983 189 957 q 403 1008 317 1008 q 557 983 492 1008 q 663 915 621 957 q 725 818 705 872 q 745 707 745 764 q 731 641 745 675 q 697 577 718 606 q 652 527 677 547 q 606 505 628 507 m 340 693 q 346 655 340 674 q 361 619 352 637 q 381 585 370 602 q 403 554 392 568 q 450 625 434 589 q 465 693 465 661 q 462 718 465 704 q 452 744 459 732 q 433 765 445 757 q 403 774 420 774 q 373 765 385 774 q 354 744 361 757 q 343 718 347 732 q 340 693 340 704 m 340 285 q 343 260 340 274 q 354 233 347 245 q 373 212 361 220 q 403 203 385 203 q 433 212 420 203 q 452 233 445 220 q 462 260 459 245 q 465 285 465 274 q 460 323 465 304 q 447 360 456 342 q 427 392 439 377 q 403 416 416 406 q 378 391 389 406 q 358 358 366 376 q 345 322 350 341 q 340 285 340 303 z "},"9":{"ha":815,"x_min":29,"x_max":778,"o":"m 325 650 q 345 559 325 592 q 407 526 364 526 q 439 535 424 526 q 465 559 454 543 q 482 598 475 576 q 489 650 488 621 q 484 699 490 675 q 468 740 478 722 q 441 769 457 758 q 407 779 426 779 q 372 769 387 779 q 346 741 357 759 q 330 700 336 724 q 325 650 325 676 m 488 357 q 470 344 481 351 q 444 331 458 337 q 410 322 429 326 q 372 318 392 318 q 291 325 332 318 q 212 348 250 332 q 141 389 174 364 q 82 451 107 414 q 43 535 58 487 q 29 644 29 583 q 57 802 29 734 q 135 917 85 871 q 253 986 184 963 q 404 1010 322 1010 q 560 981 491 1010 q 678 895 629 952 q 752 751 726 837 q 778 550 778 665 q 772 415 778 484 q 750 280 766 346 q 704 155 734 214 q 627 53 675 96 q 511 -17 579 9 q 350 -43 444 -43 q 246 -28 296 -43 q 159 11 197 -14 q 99 72 121 37 q 77 151 77 108 q 90 212 77 184 q 126 261 104 241 q 178 294 149 282 q 239 306 208 306 q 316 285 279 306 q 382 216 353 264 q 354 220 366 220 q 334 211 340 220 q 328 192 328 202 q 338 171 328 181 q 372 161 349 161 q 432 180 409 161 q 467 227 454 198 q 484 290 479 255 q 488 357 488 324 z "}," ":{"ha":207,"x_min":0,"x_max":0,"o":""},"E":{"ha":699,"x_min":28,"x_max":673,"o":"m 673 -9 q 601 1 638 -3 q 523 7 564 5 q 436 9 482 9 q 335 9 389 9 q 274 9 309 9 q 197 5 238 8 q 113 -2 156 3 q 28 -16 69 -7 q 54 61 43 15 q 72 160 64 108 q 83 267 79 212 q 89 368 87 321 q 91 449 91 414 q 92 496 92 483 q 91 517 92 498 q 90 564 91 535 q 88 631 90 593 q 84 709 87 669 q 78 791 82 750 q 70 870 75 833 q 58 936 64 907 q 43 983 52 966 q 174 969 109 974 q 298 965 238 965 q 437 969 372 965 q 549 979 501 973 q 652 993 606 985 l 652 675 q 576 731 612 711 q 513 760 541 751 q 452 772 480 771 q 396 764 418 772 q 363 742 375 755 q 347 712 351 729 q 343 679 343 696 q 348 644 343 661 q 364 612 353 626 q 392 588 375 597 q 433 579 410 579 q 469 588 453 579 q 497 609 486 597 q 522 639 511 622 l 522 363 q 497 404 511 389 q 468 426 482 418 q 443 434 454 433 q 428 436 432 436 q 362 409 384 436 q 340 339 340 382 q 348 286 340 308 q 367 251 355 264 q 394 231 378 237 q 428 225 410 225 q 486 237 455 225 q 546 270 517 250 q 599 316 575 290 q 637 370 623 342 l 673 -9 z "},"F":{"ha":689,"x_min":26,"x_max":677,"o":"m 677 675 q 608 731 644 711 q 540 760 571 751 q 488 771 509 769 q 464 772 467 772 q 409 764 430 772 q 376 742 388 755 q 360 712 364 729 q 355 679 355 696 q 359 645 355 663 q 372 613 363 627 q 395 589 380 598 q 433 579 410 579 q 444 579 435 579 q 468 585 454 580 q 499 603 482 590 q 534 639 517 615 l 534 363 q 503 404 520 389 q 471 426 486 418 q 444 434 456 433 q 428 436 432 436 q 391 429 406 436 q 368 408 376 421 q 356 376 359 395 q 353 335 353 357 q 363 227 355 283 q 372 177 366 203 q 385 122 377 151 q 404 66 393 94 q 429 11 415 38 q 397 13 414 12 q 360 15 381 14 q 314 16 340 16 q 248 14 283 16 q 174 8 212 12 q 99 -3 137 4 q 26 -21 61 -10 q 52 56 41 9 q 70 156 63 103 q 81 264 77 209 q 87 366 85 319 q 90 448 90 413 q 90 496 90 483 q 90 517 90 498 q 89 564 90 535 q 87 631 88 593 q 83 709 85 669 q 77 791 81 750 q 68 870 73 833 q 57 936 63 907 q 41 983 50 966 q 174 964 106 970 q 307 958 241 958 q 450 963 382 958 q 568 975 517 968 q 677 993 627 983 l 677 675 z "},"G":{"ha":819,"x_min":28,"x_max":806,"o":"m 806 510 q 750 243 750 372 q 762 117 750 180 q 798 -12 773 54 q 726 2 759 -3 q 660 7 692 7 q 589 1 625 7 q 511 -18 553 -5 l 539 90 q 507 46 526 68 q 461 5 488 23 q 402 -25 435 -14 q 325 -37 368 -37 q 205 -6 260 -37 q 111 84 151 25 q 50 229 72 143 q 28 424 28 315 q 41 568 28 496 q 81 704 55 640 q 144 824 106 769 q 231 920 182 880 q 337 983 279 960 q 464 1006 396 1006 q 572 993 526 1006 q 652 960 618 981 q 708 912 686 939 q 743 857 730 886 q 761 799 755 827 q 766 745 766 770 q 754 675 766 709 q 719 617 741 642 q 666 577 696 592 q 599 562 635 562 q 533 574 561 562 q 487 604 505 585 q 459 646 469 623 q 450 692 450 669 q 457 732 450 711 q 476 770 464 752 q 488 748 480 755 q 503 736 495 740 q 521 732 511 732 q 554 743 544 732 q 564 770 564 755 q 561 784 564 777 q 551 797 557 791 q 535 807 545 803 q 511 811 526 811 q 485 807 502 811 q 449 793 469 804 q 410 762 430 782 q 374 709 391 742 q 348 627 358 675 q 338 513 338 579 q 347 416 338 458 q 372 347 356 375 q 411 306 389 319 q 460 292 433 292 q 501 304 485 292 q 527 336 517 317 q 540 374 536 354 q 543 407 543 393 q 542 416 543 408 q 536 437 541 425 q 518 460 530 448 q 484 481 506 473 q 644 488 564 481 q 806 510 725 495 z "},"H":{"ha":869,"x_min":25,"x_max":848,"o":"m 415 4 q 385 7 402 5 q 350 9 371 8 q 302 9 329 9 q 181 5 252 9 q 25 -14 110 0 q 51 64 40 17 q 69 164 62 111 q 80 272 76 217 q 86 374 84 327 q 89 456 88 422 q 89 504 89 491 q 89 525 89 507 q 87 572 88 543 q 85 639 87 602 q 82 718 84 677 q 76 800 79 758 q 67 878 72 841 q 55 944 62 914 q 40 990 49 973 q 164 974 106 979 q 271 970 222 970 q 331 971 304 970 q 377 975 358 972 q 416 979 399 977 q 373 818 386 895 q 361 682 361 741 q 380 573 361 608 q 435 538 400 538 q 495 582 477 538 q 513 703 513 625 q 509 787 513 745 q 497 869 505 830 q 478 943 489 909 q 456 1004 468 978 q 583 987 524 991 q 688 983 642 983 q 743 985 719 983 q 785 987 768 986 q 821 991 806 989 q 807 905 813 954 q 795 802 800 857 q 788 685 791 747 q 786 558 786 623 q 789 408 786 484 q 801 257 793 332 q 820 112 808 182 q 848 -22 832 41 q 819 -20 836 -21 q 783 -18 804 -18 q 736 -17 762 -17 q 614 -22 685 -17 q 458 -40 543 -26 q 477 9 468 -21 q 492 73 486 39 q 503 145 499 108 q 507 215 507 182 q 489 312 507 279 q 439 345 471 345 q 393 318 410 345 q 375 235 375 292 q 378 179 375 208 q 387 120 382 150 q 400 61 393 90 q 415 4 408 31 z "},"I":{"ha":456,"x_min":25,"x_max":429,"o":"m 429 4 q 397 7 415 5 q 360 9 382 8 q 310 9 338 9 q 182 5 255 9 q 25 -14 110 0 q 51 64 40 17 q 69 164 62 111 q 80 272 76 217 q 86 374 84 327 q 89 456 88 422 q 89 504 89 491 q 89 525 89 507 q 87 572 88 543 q 85 639 87 602 q 82 718 84 677 q 76 800 79 758 q 67 878 72 841 q 55 944 62 914 q 40 990 49 973 q 166 974 109 978 q 269 970 223 970 q 324 971 300 970 q 366 974 349 972 q 400 978 385 976 q 386 893 392 940 q 375 794 380 847 q 368 684 370 742 q 366 566 366 627 q 369 422 366 495 q 380 277 372 349 q 400 136 388 205 q 429 4 412 67 z "},"J":{"ha":777,"x_min":-3,"x_max":764,"o":"m 764 974 q 748 924 755 952 q 737 866 742 897 q 728 804 732 836 q 722 742 724 772 q 715 596 717 671 q 715 497 715 549 q 711 391 715 445 q 698 283 707 336 q 670 181 689 230 q 622 91 652 132 q 548 18 593 49 q 442 -30 503 -13 q 298 -47 380 -47 q 171 -24 227 -47 q 76 39 115 0 q 17 130 37 79 q -3 237 -3 182 q 14 328 -3 288 q 56 396 30 368 q 117 437 83 423 q 186 452 151 452 q 279 422 235 452 q 346 334 323 393 q 328 345 338 341 q 310 349 318 349 q 288 343 298 349 q 269 329 277 338 q 255 308 260 320 q 250 282 250 296 q 256 253 250 266 q 272 230 262 239 q 295 216 282 221 q 323 211 309 211 q 376 227 355 211 q 410 275 397 243 q 429 357 423 308 q 435 475 435 407 q 433 571 435 520 q 428 672 431 621 q 419 771 425 723 q 406 862 414 820 q 389 939 398 905 q 367 993 379 972 q 425 977 391 984 q 498 967 454 972 q 599 962 541 962 q 676 965 635 962 q 764 974 717 967 z "},"K":{"ha":832,"x_min":8,"x_max":832,"o":"m 832 -24 q 747 -19 786 -20 q 675 -18 709 -18 q 571 -22 613 -18 q 502 -29 528 -25 q 452 -40 471 -34 q 457 0 454 -19 q 461 39 460 20 q 464 77 463 58 q 465 117 465 96 q 459 242 465 192 q 443 326 454 293 q 416 380 432 359 q 382 418 401 401 q 380 359 380 387 q 379 298 379 330 q 380 233 379 267 q 385 160 382 199 q 395 79 389 122 q 412 -14 402 36 q 355 -9 387 -12 q 290 -6 328 -7 q 208 -4 253 -4 q 113 -6 163 -4 q 8 -14 63 -8 q 38 39 24 7 q 61 111 51 72 q 78 193 71 150 q 91 277 85 235 q 107 484 103 374 q 106 602 107 541 q 99 724 104 663 q 83 844 94 785 q 54 956 73 903 q 111 952 83 954 q 167 950 138 950 q 429 978 300 950 q 387 803 399 890 q 374 631 374 717 q 374 589 374 610 q 376 547 374 568 q 465 691 434 621 q 496 829 496 762 q 488 897 496 864 q 463 962 480 930 q 530 957 496 959 q 597 956 564 956 q 714 961 656 956 q 832 978 772 966 q 811 940 821 960 q 794 899 802 920 q 780 856 786 878 q 768 814 773 834 q 750 720 757 768 q 725 629 743 672 q 707 592 718 611 q 682 554 696 572 q 649 520 667 536 q 608 493 631 505 q 681 444 656 473 q 720 378 707 415 q 738 297 732 341 q 751 205 743 254 q 770 124 759 165 q 795 50 780 90 q 832 -24 810 9 z "},"L":{"ha":646,"x_min":28,"x_max":646,"o":"m 646 -9 q 590 0 622 -4 q 523 6 557 4 q 453 9 488 8 q 392 11 419 10 q 347 11 364 11 q 328 11 329 11 q 237 7 286 10 q 141 -3 195 3 q 28 -21 87 -9 q 52 96 41 31 q 68 233 62 161 q 79 383 75 306 q 82 538 82 460 q 80 664 82 602 q 72 783 77 726 q 60 890 67 840 q 43 983 53 941 q 171 966 113 970 q 272 962 228 962 q 321 963 300 962 q 358 966 343 964 q 389 970 376 968 q 361 864 374 921 q 339 747 348 807 q 325 627 330 687 q 319 511 319 566 q 328 392 319 441 q 354 310 337 342 q 396 264 372 279 q 453 249 421 249 q 537 280 496 249 q 610 370 579 311 l 646 -9 z "},"M":{"ha":1026,"x_min":26,"x_max":1007,"o":"m 410 4 q 381 7 398 5 q 346 9 367 8 q 300 9 326 9 q 180 5 250 9 q 26 -14 111 0 q 76 283 62 138 q 90 562 90 428 q 81 792 90 684 q 56 990 71 899 q 177 974 123 978 q 271 970 231 970 q 318 971 298 970 q 353 974 339 972 q 380 978 369 976 q 438 715 404 845 q 524 454 473 585 q 591 719 566 587 q 625 990 616 852 l 631 978 l 625 990 q 749 974 693 978 q 847 970 804 970 q 897 971 876 970 q 935 974 919 972 q 965 978 952 976 q 943 818 951 910 q 936 619 936 725 q 940 464 936 544 q 952 306 944 385 q 975 150 961 227 q 1007 4 988 73 q 976 7 994 5 q 939 9 960 8 q 890 9 918 9 q 766 5 838 9 q 610 -14 694 0 q 638 73 627 20 q 656 186 649 126 q 667 305 663 245 q 672 411 671 364 q 634 326 652 369 q 596 233 616 282 q 556 127 577 184 q 510 0 535 70 q 463 127 484 70 q 424 233 442 184 q 387 325 405 281 q 350 412 369 369 q 370 201 356 305 q 410 4 385 97 z "},"N":{"ha":897,"x_min":25,"x_max":871,"o":"m 419 4 q 389 7 406 5 q 353 9 374 8 q 304 9 332 9 q 181 5 252 9 q 25 -14 110 0 q 51 64 40 17 q 69 164 62 111 q 80 272 76 217 q 86 374 84 327 q 89 456 88 422 q 89 504 89 491 q 89 525 89 507 q 87 572 88 543 q 85 639 87 602 q 82 718 84 677 q 76 800 79 758 q 67 878 72 841 q 55 944 62 914 q 40 990 49 973 q 165 974 109 978 q 265 970 221 970 q 318 971 295 970 q 357 974 342 972 q 390 978 376 976 q 456 711 419 834 q 541 484 494 589 l 541 511 q 533 718 538 622 q 527 800 530 758 q 518 878 524 841 q 507 944 513 914 q 492 990 500 973 q 617 974 559 978 q 718 970 674 970 q 771 971 748 970 q 810 974 795 972 q 843 978 829 976 q 829 893 835 940 q 818 793 823 846 q 811 682 813 741 q 808 562 808 624 q 812 420 808 492 q 823 276 815 348 q 843 136 831 205 q 871 4 854 67 q 842 7 859 5 q 807 9 827 8 q 761 9 787 9 q 648 5 712 9 q 511 -14 585 0 q 500 123 511 56 q 469 255 489 190 q 420 382 448 319 q 357 505 391 444 q 362 376 357 441 q 374 248 366 311 q 393 122 382 184 q 419 4 404 61 z "},"O":{"ha":818,"x_min":28,"x_max":789,"o":"m 789 454 q 766 261 789 351 q 696 103 743 170 q 577 -4 649 35 q 408 -43 506 -43 q 240 -4 311 -43 q 121 103 168 35 q 51 261 74 170 q 28 454 28 351 q 42 601 28 530 q 81 732 56 671 q 142 844 106 793 q 219 929 177 894 q 310 985 262 965 q 408 1004 357 1004 q 564 963 494 1004 q 684 847 634 921 q 761 673 734 773 q 789 454 789 572 m 511 513 q 503 607 511 564 q 481 681 495 650 q 448 731 467 713 q 408 749 429 749 q 370 727 388 749 q 337 672 351 706 q 315 596 323 638 q 307 513 307 554 q 314 438 307 473 q 334 379 321 404 q 366 339 347 354 q 408 325 385 325 q 451 339 431 325 q 483 379 470 354 q 504 438 496 404 q 511 513 511 473 z "},"P":{"ha":760,"x_min":29,"x_max":746,"o":"m 746 593 q 723 464 746 521 q 663 366 701 406 q 578 304 626 326 q 478 282 530 282 q 422 289 450 282 q 367 310 394 295 q 387 207 373 260 q 419 105 398 161 q 476 -4 441 50 q 352 6 407 3 q 252 9 296 9 q 150 5 191 9 q 83 -4 109 1 q 36 -17 54 -10 q 65 97 53 35 q 85 226 77 159 q 98 363 94 293 q 102 503 102 433 q 97 650 102 578 q 83 786 92 722 q 60 901 74 849 q 29 989 47 954 q 97 974 62 979 q 170 970 133 970 q 236 973 203 970 q 302 979 270 976 q 366 986 335 983 q 422 989 396 989 q 486 981 451 989 q 557 956 521 974 q 627 908 593 938 q 687 834 661 878 q 729 730 713 790 q 746 593 745 671 m 359 482 q 398 522 376 498 q 440 573 420 545 q 473 629 460 600 q 486 685 486 659 q 469 733 486 715 q 431 751 452 751 q 399 739 412 751 q 378 705 387 726 q 366 659 370 684 q 360 609 362 633 q 358 563 358 584 q 358 529 358 541 q 358 506 358 517 q 359 482 358 494 z "},"Q":{"ha":818,"x_min":28,"x_max":789,"o":"m 789 454 q 780 329 789 389 q 752 215 770 268 q 705 117 733 161 q 639 39 677 72 q 786 -138 692 -58 q 572 -262 664 -177 q 510 -29 555 -137 q 461 -39 486 -35 q 408 -43 435 -43 q 240 -4 311 -43 q 121 103 168 35 q 51 261 74 170 q 28 454 28 351 q 42 601 28 530 q 81 732 56 671 q 142 844 106 793 q 219 929 177 894 q 310 985 262 965 q 408 1004 357 1004 q 564 963 494 1004 q 684 847 634 921 q 761 673 734 773 q 789 454 789 572 m 511 513 q 503 607 511 564 q 481 681 495 650 q 448 731 467 713 q 408 749 429 749 q 370 727 388 749 q 337 672 351 706 q 315 596 323 638 q 307 513 307 554 q 314 438 307 473 q 334 379 321 404 q 366 339 347 354 q 408 325 385 325 q 451 339 431 325 q 483 379 470 354 q 504 438 496 404 q 511 513 511 473 z "},"R":{"ha":832,"x_min":7,"x_max":831,"o":"m 831 -11 q 748 -6 787 -7 q 677 -5 710 -5 q 571 -9 614 -5 q 501 -17 528 -13 q 450 -28 469 -22 q 456 12 453 -7 q 460 47 458 30 q 463 82 462 64 q 464 118 464 99 q 458 242 464 193 q 441 325 452 292 q 415 378 431 358 q 380 415 399 399 q 378 356 379 385 q 378 296 378 328 q 379 231 378 264 q 384 159 380 197 q 394 78 387 121 q 411 -16 401 35 q 393 -9 410 -13 q 348 -3 376 -6 q 282 1 319 -1 q 205 3 245 3 q 101 -1 153 3 q 7 -16 49 -5 q 36 38 23 5 q 60 109 50 70 q 77 190 70 147 q 90 274 84 233 q 106 481 102 371 q 106 549 106 508 q 105 640 106 591 q 99 740 103 688 q 87 839 96 791 q 65 926 79 886 q 31 989 52 965 q 125 979 79 981 q 204 977 172 977 q 257 978 233 977 q 304 981 281 979 q 354 983 328 982 q 411 985 380 985 q 497 980 454 985 q 580 965 541 976 q 654 934 620 954 q 714 885 688 915 q 754 814 739 856 q 768 718 768 773 q 761 657 768 688 q 735 597 753 627 q 689 541 718 568 q 621 492 661 514 q 693 443 669 472 q 729 376 718 414 q 741 295 740 339 q 743 204 742 252 q 756 110 746 153 q 767 73 760 92 q 782 37 773 54 q 803 8 791 21 q 831 -11 815 -5 m 380 574 q 414 601 395 585 q 449 638 433 618 q 475 680 465 658 q 486 725 486 703 q 474 760 486 747 q 446 774 461 774 q 411 754 424 774 q 391 707 398 734 q 381 652 384 680 q 379 610 379 625 q 379 592 379 602 q 380 574 379 583 z "},"S":{"ha":782,"x_min":25,"x_max":764,"o":"m 728 774 q 715 712 728 740 q 680 665 703 685 q 628 635 658 646 q 562 624 597 624 q 496 633 524 624 q 450 657 469 643 q 420 690 431 672 q 404 725 410 708 q 396 756 398 742 q 395 778 395 770 q 414 761 403 764 q 432 757 425 757 q 459 767 451 757 q 467 789 467 777 q 464 804 467 796 q 453 820 460 812 q 432 831 445 827 q 399 836 418 836 q 371 831 385 836 q 345 815 357 826 q 326 789 333 805 q 318 753 318 774 q 327 712 318 732 q 350 675 335 692 q 384 643 364 657 q 428 619 404 629 q 505 589 465 604 q 582 556 545 574 q 652 516 619 538 q 710 462 685 493 q 749 389 734 431 q 764 292 764 347 q 731 147 764 212 q 645 35 699 81 q 520 -37 591 -12 q 372 -62 450 -62 q 239 -42 302 -62 q 129 15 176 -21 q 53 99 81 51 q 25 204 25 148 q 39 277 25 245 q 76 329 52 308 q 133 359 100 349 q 201 370 165 370 q 257 363 230 370 q 309 346 285 357 q 352 317 333 334 q 383 278 372 300 q 358 282 369 282 q 329 271 340 282 q 318 239 318 260 q 323 217 318 227 q 337 200 329 208 q 357 189 346 193 q 380 184 368 184 q 406 190 394 184 q 426 205 417 196 q 439 227 435 215 q 444 250 444 238 q 430 298 444 274 q 387 342 415 323 q 288 398 334 374 q 201 443 241 422 q 131 486 162 465 q 77 536 99 508 q 43 603 55 565 q 32 696 32 642 q 57 818 32 761 q 130 917 82 875 q 247 984 178 960 q 404 1008 316 1008 q 555 987 493 1008 q 655 932 616 966 q 710 856 693 898 q 728 774 728 814 z "},"T":{"ha":758,"x_min":21,"x_max":742,"o":"m 568 3 q 532 5 553 4 q 491 7 515 7 q 437 8 467 8 q 325 4 387 8 q 192 -9 262 1 q 228 184 216 91 q 246 349 240 277 q 254 509 253 434 q 253 578 254 541 q 250 654 252 611 q 244 747 248 697 q 181 682 212 717 q 120 609 149 647 q 65 533 91 572 q 21 457 40 494 l 37 975 q 172 964 101 968 q 317 960 243 960 q 526 967 422 960 q 717 989 630 975 l 742 465 q 634 640 693 558 q 507 777 574 722 q 499 680 502 730 q 497 576 497 629 q 502 436 497 508 q 514 290 506 363 q 536 144 523 217 q 568 3 550 72 z "},"U":{"ha":814,"x_min":11,"x_max":791,"o":"m 791 978 q 766 791 776 900 q 757 557 757 682 q 757 523 757 539 q 758 488 758 506 q 759 452 759 471 q 760 411 760 433 q 756 314 760 366 q 739 212 752 262 q 703 114 726 161 q 639 31 679 66 q 541 -26 600 -5 q 401 -47 483 -47 q 270 -30 325 -47 q 176 17 214 -13 q 114 88 138 47 q 77 176 90 129 q 60 274 64 223 q 56 375 56 325 q 56 413 56 397 q 57 440 56 428 q 58 466 58 453 q 60 496 59 479 q 61 539 60 514 q 61 602 61 564 q 59 705 61 647 q 52 818 58 762 q 37 921 47 874 q 11 990 27 967 q 139 974 79 978 q 250 970 199 970 q 309 971 283 970 q 355 974 336 972 q 393 978 377 976 q 376 884 385 936 q 360 772 367 831 q 349 646 353 712 q 345 513 345 581 q 348 375 345 428 q 357 293 351 322 q 375 252 364 263 q 401 241 386 241 q 437 255 422 241 q 461 299 452 268 q 476 382 471 331 q 481 511 480 434 q 474 718 479 622 q 468 800 472 758 q 459 878 465 841 q 448 944 454 914 q 432 990 441 973 q 557 974 500 978 q 661 970 615 970 q 716 971 692 970 q 757 974 740 972 q 791 978 777 976 z "},"V":{"ha":819,"x_min":-36,"x_max":828,"o":"m 828 983 q 753 739 786 861 q 695 494 721 616 q 651 248 670 371 q 616 1 631 125 q 543 6 581 5 q 465 7 505 7 q 340 3 402 7 q 221 -8 277 -1 q 181 239 204 116 q 126 485 157 362 q 55 729 95 608 q -36 972 14 851 q 45 964 5 967 q 126 961 85 961 q 243 966 185 961 q 358 983 300 972 q 354 904 355 943 q 353 827 353 865 q 368 573 353 696 q 415 329 384 450 q 453 537 441 434 q 465 745 465 641 q 449 983 465 864 q 543 975 496 977 q 637 972 589 972 q 732 975 684 972 q 828 983 779 977 z "},"W":{"ha":1015,"x_min":0,"x_max":1008,"o":"m 404 990 q 373 748 381 861 q 366 529 366 634 q 435 691 401 607 q 503 865 469 774 q 572 679 537 765 q 647 514 606 593 l 647 576 q 637 785 647 682 q 604 979 627 887 q 621 974 607 977 q 656 969 634 971 q 707 964 678 966 q 771 962 736 962 q 885 968 824 962 q 1008 990 947 975 q 980 910 994 960 q 955 795 966 859 q 933 654 943 730 q 917 497 924 578 q 906 334 910 416 q 903 172 903 251 q 904 76 903 122 q 909 -14 906 29 q 789 2 842 -2 q 696 7 736 7 q 650 5 670 7 q 617 3 631 4 q 590 -1 602 1 q 573 117 582 59 q 553 227 564 174 q 526 326 541 279 q 490 411 511 372 q 464 320 475 367 q 445 221 452 273 q 434 111 437 169 q 431 -14 431 52 q 309 2 363 -2 q 216 7 255 7 q 170 5 190 7 q 137 3 151 4 q 111 -1 121 1 q 115 157 115 74 q 112 314 115 234 q 102 472 109 394 q 85 625 95 551 q 63 765 75 700 q 34 885 50 831 q 0 979 18 940 q 46 970 20 974 q 100 965 68 967 q 171 962 132 962 q 279 968 220 962 q 404 990 338 975 z "},"X":{"ha":848,"x_min":-17,"x_max":867,"o":"m 867 990 q 796 892 830 948 q 727 772 762 837 q 658 636 693 707 q 586 492 623 565 q 650 366 618 429 q 716 240 682 302 q 786 118 749 178 q 867 4 823 59 q 838 6 854 5 q 802 7 823 7 q 755 8 781 8 q 636 4 705 8 q 488 -14 567 0 q 474 49 483 13 q 456 124 466 85 q 436 200 446 163 q 418 268 426 238 q 394 197 406 235 q 371 122 382 159 q 352 49 360 84 q 339 -14 344 14 q 193 4 258 0 q 81 8 127 8 q 39 7 57 8 q 8 6 20 7 q -17 4 -7 5 q 62 118 26 59 q 131 238 98 177 q 196 362 164 300 q 260 488 227 425 q 204 600 232 543 q 145 719 177 656 q 73 848 113 781 q -17 990 34 915 q 121 974 60 978 q 229 970 183 970 q 281 971 258 970 q 319 973 303 972 q 350 977 336 975 q 362 916 354 950 q 380 844 370 881 q 402 769 391 807 q 425 697 414 731 q 451 769 439 732 q 472 843 463 806 q 489 914 481 880 q 500 977 496 948 q 531 973 513 975 q 569 971 547 972 q 619 970 591 970 q 728 974 667 970 q 867 990 790 978 z "},"Y":{"ha":774,"x_min":-4,"x_max":758,"o":"m 758 962 q 743 913 749 941 q 731 854 736 885 q 722 792 726 824 q 717 730 719 760 q 710 583 711 659 q 711 515 710 550 q 711 444 711 480 q 707 330 711 387 q 690 219 703 272 q 650 120 676 166 q 578 40 623 74 q 467 -14 533 6 q 307 -33 401 -33 q 184 -16 236 -33 q 99 31 132 1 q 49 99 65 60 q 33 182 33 138 q 47 243 33 214 q 83 292 60 271 q 135 325 106 313 q 196 336 165 336 q 273 315 236 336 q 339 248 311 294 q 325 250 332 249 q 311 250 317 250 q 262 208 262 250 q 280 176 262 189 q 329 164 298 164 q 389 184 366 164 q 424 233 412 203 q 440 299 436 263 q 444 367 444 334 l 444 396 q 414 375 431 382 q 378 362 396 367 q 342 357 359 358 q 314 355 326 355 q 232 366 273 355 q 158 407 191 377 q 102 490 124 437 q 78 628 81 543 q 78 654 78 631 q 75 710 77 677 q 67 784 73 744 q 53 863 62 824 q 30 934 44 901 q -4 986 16 967 q 124 969 68 974 q 224 964 181 964 q 282 965 257 964 q 323 970 307 967 q 355 977 342 972 q 348 918 352 949 q 341 856 345 887 q 337 792 338 824 q 335 730 335 760 q 338 667 335 696 q 347 615 340 637 q 364 581 353 593 q 390 568 374 568 q 422 589 409 568 q 444 643 435 610 q 455 719 452 677 q 458 803 458 761 q 455 896 458 852 q 446 968 451 941 q 477 960 458 963 q 522 955 494 957 q 590 953 549 953 q 664 955 623 953 q 758 962 706 957 z "},"Z":{"ha":747,"x_min":1,"x_max":732,"o":"m 732 990 q 697 896 721 950 q 643 776 673 841 q 576 640 612 711 q 507 494 541 568 q 444 347 473 420 q 395 207 414 274 q 479 227 437 216 q 562 255 522 239 q 641 294 602 271 q 715 350 680 317 q 709 279 711 314 q 707 210 707 244 q 712 97 707 153 q 730 -14 718 41 q 555 5 646 -1 q 371 11 464 11 q 183 5 276 11 q 1 -14 90 -1 q 181 385 87 195 q 379 747 275 574 q 207 716 294 743 q 37 643 120 689 q 46 717 43 681 q 49 789 49 753 q 43 886 49 838 q 24 981 37 934 q 175 968 97 972 q 334 964 253 964 q 537 971 436 964 q 732 990 637 978 z "},"e":{"ha":650,"x_min":22,"x_max":627,"o":"m 621 631 q 606 532 621 580 q 555 446 591 484 q 456 387 518 409 q 298 364 394 364 q 312 309 301 331 q 339 273 323 286 q 372 252 355 259 q 405 243 390 245 q 430 240 420 240 q 440 240 440 240 q 515 262 482 245 q 543 279 530 269 q 568 304 557 290 q 586 337 579 319 q 595 380 593 356 q 620 298 612 336 q 627 227 627 260 q 605 114 627 165 q 544 26 583 63 q 452 -32 505 -12 q 336 -53 399 -53 q 219 -32 275 -53 q 118 35 162 -11 q 48 154 75 81 q 22 332 22 227 q 55 532 22 445 q 142 679 87 620 q 270 769 197 739 q 421 800 342 800 q 497 791 460 800 q 561 762 533 783 q 604 710 588 742 q 621 631 621 677 m 296 476 q 340 484 315 477 q 387 504 365 491 q 425 536 410 517 q 440 579 440 555 q 429 604 440 595 q 401 614 418 614 q 359 600 378 614 q 327 566 340 587 q 306 522 314 546 q 296 476 298 497 z "},"!":{"ha":404,"x_min":8,"x_max":404,"o":"m 404 1002 q 359 862 378 937 q 327 709 340 788 q 308 549 314 631 q 301 389 301 468 q 302 338 301 363 q 304 288 303 313 q 238 298 271 295 q 174 301 206 301 q 134 300 154 301 q 94 296 114 299 q 96 348 96 321 q 97 400 97 374 q 90 573 97 486 q 71 738 83 661 q 43 880 59 816 q 8 985 26 944 q 67 980 32 981 q 142 978 102 978 q 214 979 177 978 q 286 983 251 981 q 351 991 321 986 q 404 1002 382 996 m 49 109 q 60 164 49 138 q 91 210 71 190 q 136 240 110 229 q 192 252 162 252 q 247 240 221 252 q 293 210 273 229 q 324 164 313 190 q 335 109 335 138 q 324 53 335 79 q 293 7 313 26 q 247 -23 273 -12 q 192 -35 221 -35 q 136 -23 162 -35 q 91 7 110 -12 q 60 53 71 26 q 49 109 49 79 z "},"?":{"ha":754,"x_min":22,"x_max":729,"o":"m 729 682 q 713 585 729 626 q 671 513 696 545 q 616 456 646 481 q 559 406 586 431 q 511 352 532 380 q 484 288 490 324 q 417 298 450 295 q 353 301 385 301 q 313 300 333 301 q 273 296 293 299 q 283 375 273 342 q 309 433 294 408 q 343 479 325 458 q 376 526 361 501 q 402 584 392 551 q 412 663 412 616 q 406 718 412 694 q 388 759 399 742 q 362 785 376 775 q 335 801 349 795 q 309 809 321 807 q 289 811 297 811 q 250 798 263 811 q 236 771 236 785 q 238 756 236 764 q 245 744 240 749 q 258 735 250 739 q 279 732 267 732 q 297 736 289 732 q 312 748 304 740 q 323 770 319 755 q 346 722 338 749 q 354 667 354 695 q 346 612 354 638 q 320 564 338 585 q 275 531 302 543 q 210 518 248 518 q 127 539 163 518 q 69 591 92 559 q 34 660 45 623 q 22 730 22 697 q 30 794 22 761 q 53 858 37 827 q 95 918 69 890 q 155 967 120 946 q 237 1001 191 989 q 342 1014 283 1014 q 437 1006 389 1014 q 527 981 484 998 q 607 937 570 964 q 671 874 644 911 q 714 789 699 837 q 729 682 729 741 m 228 109 q 239 164 228 138 q 270 210 250 190 q 315 240 289 229 q 371 252 341 252 q 427 240 401 252 q 472 210 453 229 q 503 164 492 190 q 514 109 514 138 q 503 53 514 79 q 472 7 492 26 q 427 -23 453 -12 q 371 -35 401 -35 q 315 -23 341 -35 q 270 7 289 -12 q 239 53 250 26 q 228 109 228 79 z "},"c":{"ha":639,"x_min":22,"x_max":619,"o":"m 619 575 q 609 518 619 547 q 581 467 600 490 q 536 430 563 444 q 476 415 509 415 q 425 425 446 415 q 391 452 404 435 q 371 489 377 468 q 364 533 364 511 q 387 615 364 581 q 397 598 391 604 q 409 589 404 592 q 422 586 416 587 q 448 595 442 586 q 454 615 453 604 q 446 637 454 627 q 415 648 437 648 q 398 647 409 648 q 373 638 387 645 q 345 618 359 631 q 318 582 330 605 q 299 523 307 558 q 292 439 292 488 q 307 356 292 388 q 342 308 321 325 q 386 284 363 290 q 425 278 409 278 q 461 283 439 278 q 504 302 483 288 q 543 339 526 315 q 567 401 561 363 q 596 337 585 374 q 607 258 607 299 q 586 150 607 203 q 528 56 566 97 q 437 -10 490 15 q 321 -35 385 -35 q 233 -19 273 -35 q 159 23 192 -4 q 100 87 126 50 q 57 167 75 124 q 31 258 40 210 q 22 353 22 305 q 34 460 22 406 q 67 566 45 515 q 119 662 88 617 q 190 740 151 707 q 277 792 229 772 q 378 811 324 811 q 463 800 426 811 q 526 769 499 788 q 571 725 553 750 q 600 674 589 701 q 615 623 610 648 q 619 575 619 597 z "},"i":{"ha":374,"x_min":24,"x_max":351,"o":"m 351 3 q 324 5 340 3 q 292 6 311 5 q 250 7 274 7 q 149 3 206 7 q 24 -11 91 -1 q 45 54 37 15 q 60 137 54 93 q 69 227 66 182 q 73 311 72 273 q 75 375 75 349 q 75 408 75 401 q 69 573 74 496 q 64 639 67 606 q 57 702 61 672 q 48 754 53 731 q 36 791 43 778 q 138 779 91 782 q 222 775 184 775 q 266 776 247 775 q 299 779 286 777 q 328 782 315 780 q 308 635 315 721 q 300 450 300 549 q 302 336 300 394 q 311 221 305 279 q 327 109 317 164 q 351 3 337 54 m 40 972 q 52 1031 40 1004 q 84 1079 64 1059 q 133 1112 105 1100 q 192 1124 161 1124 q 251 1112 223 1124 q 299 1079 278 1100 q 331 1031 319 1059 q 343 972 343 1004 q 331 913 343 941 q 299 865 319 886 q 251 832 278 844 q 192 821 223 821 q 133 832 161 821 q 84 865 105 844 q 52 913 64 886 q 40 972 40 941 z "},"j":{"ha":350,"x_min":-313,"x_max":328,"o":"m 25 972 q 37 1031 25 1004 q 70 1079 49 1059 q 118 1112 90 1100 q 176 1124 145 1124 q 235 1112 208 1124 q 283 1079 262 1100 q 316 1031 304 1059 q 328 972 328 1004 q 316 913 328 941 q 283 865 304 886 q 235 832 262 844 q 176 821 208 821 q 118 832 145 821 q 70 865 90 844 q 37 913 49 886 q 25 972 25 941 m 326 779 q 314 710 319 751 q 304 620 309 669 q 298 519 300 572 q 294 417 296 467 q 289 167 290 299 q 280 32 289 98 q 253 -93 272 -35 q 205 -201 235 -151 q 133 -286 176 -250 q 35 -341 91 -321 q -92 -361 -21 -361 q -185 -347 -144 -361 q -255 -309 -227 -334 q -298 -250 -283 -284 q -313 -174 -313 -216 q -300 -114 -313 -141 q -269 -67 -288 -87 q -223 -36 -249 -47 q -172 -25 -198 -25 q -109 -46 -138 -25 q -61 -113 -79 -66 q -70 -108 -65 -109 q -81 -107 -75 -107 q -110 -120 -96 -107 q -123 -150 -123 -132 q -118 -170 -123 -161 q -105 -183 -113 -178 q -89 -191 -98 -189 q -72 -193 -80 -193 q -44 -189 -59 -193 q -14 -164 -28 -184 q 15 -107 1 -145 q 39 -4 28 -70 q 56 161 50 62 q 62 401 62 260 q 61 502 62 451 q 55 604 59 553 q 43 704 50 654 q 24 798 35 753 q 66 784 41 790 q 120 775 87 779 q 199 771 153 771 q 326 779 254 771 z "},"o":{"ha":700,"x_min":25,"x_max":675,"o":"m 675 396 q 669 310 675 357 q 648 215 663 262 q 610 122 634 167 q 549 42 585 77 q 463 -14 513 7 q 346 -35 412 -35 q 230 -15 279 -35 q 144 38 180 5 q 85 114 109 71 q 49 204 62 157 q 30 300 35 252 q 25 392 25 349 q 45 542 25 469 q 107 673 66 616 q 212 766 149 731 q 359 802 275 802 q 462 784 416 802 q 543 737 507 767 q 603 667 578 707 q 644 583 627 627 q 667 490 660 538 q 675 396 675 441 m 439 374 q 438 413 439 389 q 433 462 437 436 q 424 513 430 488 q 409 559 418 539 q 386 593 399 580 q 353 606 372 606 q 321 593 334 606 q 297 562 307 581 q 281 517 288 542 q 271 468 275 492 q 266 420 267 443 q 264 382 264 397 q 267 328 264 359 q 280 267 271 296 q 306 217 290 237 q 350 196 323 196 q 393 215 376 196 q 420 261 410 234 q 435 319 431 289 q 439 374 439 350 z "},"s":{"ha":633,"x_min":21,"x_max":619,"o":"m 590 616 q 579 568 590 589 q 550 531 568 546 q 507 507 532 515 q 456 498 483 498 q 402 506 425 498 q 365 525 380 513 q 341 552 350 537 q 327 580 332 566 q 321 605 322 593 q 319 623 319 616 q 335 608 326 611 q 350 606 345 606 q 372 614 366 606 q 379 631 379 622 q 376 643 379 636 q 367 655 374 650 q 349 665 360 661 q 322 669 338 669 q 300 665 312 669 q 280 653 289 661 q 264 632 271 644 q 258 603 258 619 q 274 551 258 572 q 315 514 290 530 q 373 485 340 498 q 439 457 405 471 q 505 424 473 442 q 563 380 537 406 q 604 319 588 355 q 619 233 619 283 q 593 119 619 170 q 525 32 568 68 q 425 -23 481 -4 q 304 -43 368 -43 q 195 -27 247 -43 q 105 16 144 -12 q 44 82 66 44 q 21 164 21 120 q 32 222 21 197 q 62 263 43 247 q 107 288 81 279 q 164 296 134 296 q 209 291 186 296 q 251 277 231 286 q 286 254 271 267 q 311 222 302 240 q 301 224 306 224 q 290 225 296 225 q 267 217 275 225 q 258 192 258 210 q 274 160 258 173 q 309 147 290 147 q 329 152 319 147 q 345 164 338 157 q 356 182 352 172 q 359 201 359 191 q 348 239 359 219 q 314 273 336 260 q 233 319 271 300 q 163 355 195 338 q 106 389 132 372 q 63 428 81 406 q 36 482 45 451 q 26 557 26 513 q 47 653 26 609 q 106 730 68 698 q 201 782 145 763 q 329 800 258 800 q 451 783 401 800 q 532 740 501 766 q 576 681 563 713 q 590 616 590 648 z "},"u":{"ha":663,"x_min":11,"x_max":643,"o":"m 643 782 q 632 711 637 751 q 623 623 627 670 q 617 525 619 576 q 615 422 615 473 q 616 389 615 406 q 616 357 616 372 q 613 281 616 323 q 598 196 609 239 q 567 110 587 152 q 515 35 547 68 q 437 -17 483 3 q 328 -37 391 -37 q 232 -23 273 -37 q 159 16 190 -9 q 107 75 128 41 q 73 148 86 109 q 55 229 60 186 q 49 314 49 272 q 49 327 49 324 q 50 330 50 329 q 50 332 50 330 q 51 342 51 334 q 51 370 51 351 q 52 424 52 389 q 50 516 52 465 q 44 616 49 567 q 32 705 40 665 q 11 764 24 745 q 114 751 66 754 q 203 747 163 747 q 251 748 229 747 q 288 751 272 749 q 319 754 305 752 q 293 603 306 688 q 281 410 281 519 q 283 357 281 385 q 292 308 286 330 q 308 270 298 285 q 335 256 319 256 q 367 269 355 256 q 384 305 378 283 q 391 354 390 327 q 392 408 392 381 q 387 573 391 496 q 381 639 385 606 q 374 702 378 672 q 365 754 370 731 q 353 791 359 778 q 454 779 408 782 q 538 775 501 775 q 582 776 562 775 q 614 779 601 777 q 643 782 631 780 z "},"x":{"ha":707,"x_min":-11,"x_max":718,"o":"m 718 791 q 660 700 687 745 q 609 605 633 654 q 563 504 585 556 q 519 393 541 452 q 565 287 543 335 q 610 193 587 239 q 660 102 633 148 q 718 3 686 56 q 693 5 707 3 q 664 6 681 5 q 625 7 647 7 q 529 3 583 7 q 411 -11 474 -1 q 401 39 408 10 q 386 99 394 68 q 370 160 378 130 q 355 214 361 190 q 335 158 345 188 q 317 97 326 127 q 301 39 308 67 q 290 -11 294 11 q 174 3 227 -1 q 79 7 120 7 q 41 6 58 7 q 13 5 24 5 q -11 3 -1 3 q 110 202 60 107 q 199 390 160 296 q 155 478 176 434 q 109 571 133 523 q 55 674 84 620 q -11 791 26 728 q 103 778 51 781 q 196 775 155 775 q 239 776 220 775 q 272 778 258 777 q 300 781 288 779 q 309 732 303 760 q 323 676 315 705 q 341 616 332 646 q 359 558 350 585 q 381 615 371 586 q 398 674 391 645 q 412 730 406 703 q 421 781 418 758 q 446 778 432 779 q 476 776 458 777 q 517 775 494 775 q 605 778 555 775 q 718 791 655 781 z "},"v":{"ha":684,"x_min":-12,"x_max":688,"o":"m 688 786 q 631 591 653 688 q 594 395 609 493 q 568 198 578 296 q 545 1 557 100 q 478 4 515 3 q 400 5 441 5 q 333 5 367 5 q 266 2 298 4 q 204 -2 233 1 q 153 -7 176 -4 q 127 192 140 93 q 98 388 115 290 q 54 584 80 486 q -12 778 28 681 q 121 770 54 770 q 307 786 214 770 q 302 713 304 749 q 301 642 301 677 q 312 447 301 543 q 349 258 323 351 q 381 434 370 347 q 393 610 393 522 q 390 698 393 654 q 380 786 387 742 q 532 778 456 778 q 688 786 608 778 z "},"w":{"ha":846,"x_min":0,"x_max":844,"o":"m 314 819 q 302 705 305 755 q 298 607 298 654 q 301 518 298 562 q 310 424 304 474 q 366 553 338 486 q 421 692 393 620 q 477 543 448 612 q 538 411 505 475 q 544 503 541 458 q 546 595 546 547 q 543 684 546 637 q 530 783 540 730 q 615 778 574 781 q 697 775 656 775 q 769 779 733 775 q 844 791 804 782 q 765 395 789 599 q 736 -25 741 191 q 642 -12 683 -16 q 571 -8 600 -8 q 535 -9 551 -8 q 511 -12 520 -11 q 492 -16 499 -14 q 478 82 485 33 q 461 175 471 130 q 440 259 452 220 q 411 329 428 298 q 390 259 399 294 q 374 184 380 223 q 366 100 368 145 q 363 3 363 56 q 299 8 329 7 q 243 9 269 9 q 185 8 210 9 q 142 4 159 6 q 106 -1 121 1 q 98 150 104 71 q 83 308 92 229 q 64 463 75 387 q 42 606 54 539 q 20 725 31 672 q 0 811 9 778 q 31 807 14 809 q 68 804 47 806 q 119 803 90 803 q 207 806 158 803 q 314 819 255 810 z "},"z":{"ha":616,"x_min":-1,"x_max":590,"o":"m 590 791 q 550 687 576 743 q 491 565 524 631 q 424 423 459 498 q 358 262 389 348 q 414 270 385 262 q 472 292 443 277 q 531 331 502 307 q 589 390 561 355 q 584 342 586 369 q 579 284 581 315 q 576 222 577 254 q 575 158 575 190 q 578 65 575 109 q 589 -11 581 20 q 447 4 519 -1 q 298 9 374 9 q 145 4 221 9 q -1 -11 70 -1 q 71 154 33 73 q 145 313 109 236 q 214 462 181 391 q 273 596 248 533 q 209 588 239 594 q 150 572 178 582 q 91 547 121 562 q 28 514 61 532 q 50 677 50 595 q 48 733 50 706 q 41 785 46 760 q 161 774 101 777 q 282 771 221 771 q 437 776 359 771 q 590 791 514 781 z "},"b":{"ha":746,"x_min":20,"x_max":718,"o":"m 20 -9 q 41 96 32 36 q 55 225 50 156 q 63 368 60 294 q 65 518 65 443 q 62 678 65 600 q 55 825 60 756 q 45 948 51 893 q 32 1036 39 1002 q 60 1033 44 1034 q 93 1030 74 1031 q 138 1029 113 1029 q 222 1033 175 1029 q 323 1046 269 1036 q 312 1008 317 1033 q 303 951 307 983 q 296 880 299 918 q 292 804 294 842 q 288 729 290 766 q 286 661 287 692 q 360 756 314 722 q 478 790 407 790 q 518 784 494 790 q 569 762 542 778 q 622 717 595 745 q 670 645 649 689 q 705 540 692 602 q 718 396 718 479 q 694 192 718 274 q 632 59 669 109 q 548 -12 594 9 q 460 -33 503 -33 q 400 -16 429 -33 q 349 30 372 2 q 308 93 326 58 q 282 164 291 128 q 288 122 284 150 q 296 66 292 95 q 304 14 300 37 q 313 -17 309 -10 q 226 -7 270 -9 q 144 -4 182 -4 q 94 -5 117 -4 q 55 -7 72 -5 q 20 -9 35 -8 m 296 382 l 296 342 q 298 304 296 323 q 307 270 300 286 q 328 244 314 254 q 364 235 341 235 q 392 244 380 235 q 411 270 404 254 q 423 306 418 286 q 430 345 428 326 q 433 383 432 365 q 433 414 433 401 q 432 463 433 432 q 424 525 430 494 q 405 577 418 555 q 371 599 393 599 q 343 587 355 599 q 322 555 331 574 q 309 512 314 536 q 301 464 304 488 q 297 418 298 439 q 296 382 296 396 z "},"d":{"ha":750,"x_min":28,"x_max":729,"o":"m 729 -9 q 694 -7 713 -8 q 654 -5 677 -5 q 604 -4 631 -4 q 522 -7 566 -4 q 436 -17 479 -9 q 445 17 440 -9 q 454 74 450 43 q 462 136 458 105 q 468 183 466 166 q 438 91 457 132 q 393 19 418 49 q 335 -26 367 -10 q 268 -43 303 -43 q 228 -41 252 -43 q 177 -27 204 -39 q 124 8 151 -16 q 76 76 97 33 q 41 187 54 120 q 28 351 28 254 q 40 497 28 433 q 72 610 52 561 q 118 693 92 659 q 175 749 145 727 q 235 780 204 770 q 294 790 266 790 q 352 780 326 790 q 399 752 378 769 q 435 714 420 736 q 463 672 451 693 q 460 740 461 703 q 456 814 458 777 q 451 887 454 851 q 445 955 448 924 q 436 1010 441 986 q 425 1046 431 1034 q 526 1033 479 1036 q 611 1029 573 1029 q 655 1030 635 1029 q 688 1033 675 1031 q 717 1036 705 1034 q 703 948 709 1002 q 693 825 697 893 q 686 678 688 756 q 684 518 684 600 q 686 368 684 443 q 694 225 688 294 q 708 96 699 156 q 729 -9 717 36 m 450 379 l 450 489 q 448 526 450 507 q 439 561 446 545 q 418 586 432 576 q 382 596 405 596 q 354 583 366 596 q 335 550 342 570 q 323 505 328 530 q 316 455 318 479 q 313 409 314 430 q 313 375 313 387 q 314 330 313 357 q 322 278 316 303 q 341 236 328 254 q 375 218 353 218 q 414 235 399 218 q 437 277 429 252 q 448 330 445 302 q 450 379 450 357 z "},"f":{"ha":526,"x_min":11,"x_max":547,"o":"m 547 1083 q 535 988 539 1035 q 530 897 530 942 q 530 869 530 884 q 532 842 530 855 q 491 882 515 869 q 443 896 467 896 q 411 889 427 896 q 384 869 395 882 q 365 835 372 855 q 358 787 358 814 l 528 794 q 518 731 520 763 q 515 664 515 699 q 516 626 515 645 q 518 587 517 607 q 437 597 475 593 q 355 602 398 602 q 353 502 354 553 q 353 401 353 452 q 358 189 353 294 q 383 -16 364 84 q 225 0 307 0 q 141 -4 182 0 q 58 -16 99 -8 q 83 129 74 52 q 96 286 92 206 q 102 445 100 366 q 106 593 104 524 q 58 589 84 591 q 11 583 33 587 q 16 641 14 613 q 18 699 18 669 q 17 750 18 724 q 11 803 16 775 l 114 798 q 132 927 114 868 q 186 1028 150 985 q 276 1094 222 1070 q 401 1117 330 1117 q 442 1114 425 1117 q 475 1106 459 1111 q 509 1095 492 1101 q 547 1083 526 1089 z "},"h":{"ha":742,"x_min":18,"x_max":725,"o":"m 725 -28 q 644 -20 688 -22 q 554 -17 599 -17 q 472 -20 511 -17 q 403 -26 432 -22 q 426 75 417 22 q 438 183 434 127 q 444 302 443 240 q 446 432 446 363 q 445 459 446 442 q 441 496 444 476 q 433 535 438 515 q 420 572 428 555 q 400 598 412 588 q 372 608 388 608 q 352 598 362 608 q 332 570 342 587 q 313 530 322 553 q 294 482 303 507 q 299 346 296 413 q 310 216 303 278 q 325 99 316 154 q 346 3 334 45 q 319 5 334 3 q 287 6 305 5 q 244 7 268 7 q 143 3 200 7 q 18 -11 85 -1 q 35 42 28 8 q 48 118 43 75 q 57 208 54 160 q 63 304 61 256 q 67 397 66 352 q 68 478 68 442 q 69 540 69 515 q 69 572 69 565 q 63 783 68 686 q 58 865 61 823 q 52 942 56 906 q 42 1005 47 978 q 31 1046 37 1032 q 132 1033 85 1036 q 216 1029 179 1029 q 260 1030 241 1029 q 294 1033 280 1031 q 322 1036 310 1034 q 313 979 317 1013 q 305 905 309 946 q 299 816 302 863 q 296 717 297 768 q 379 802 334 777 q 472 827 424 827 q 561 805 520 827 q 630 740 601 784 q 676 627 660 695 q 693 467 693 559 q 693 335 693 403 q 696 201 694 267 q 706 77 699 136 q 725 -28 713 18 z "},"g":{"ha":749,"x_min":28,"x_max":725,"o":"m 725 779 q 712 710 718 751 q 703 620 707 669 q 697 519 699 572 q 692 417 694 467 q 688 167 688 299 q 679 32 688 98 q 652 -93 671 -35 q 604 -201 633 -151 q 531 -286 574 -250 q 433 -341 489 -321 q 307 -361 378 -361 q 193 -347 241 -361 q 114 -309 145 -334 q 67 -250 82 -284 q 52 -174 52 -216 q 66 -99 52 -132 q 103 -42 80 -66 q 155 -7 126 -19 q 214 5 184 5 q 286 -16 252 5 q 338 -85 320 -38 q 318 -79 330 -79 q 289 -92 302 -79 q 275 -122 275 -104 q 279 -139 275 -132 q 289 -151 283 -146 q 302 -156 295 -155 q 315 -158 309 -158 q 336 -156 323 -158 q 365 -142 349 -153 q 396 -109 380 -132 q 425 -47 412 -87 q 445 52 437 -8 q 453 199 453 113 q 419 104 439 138 q 376 52 399 69 q 329 31 353 35 q 283 26 304 26 q 242 32 267 26 q 189 53 217 38 q 132 93 161 67 q 80 157 103 118 q 42 251 57 196 q 28 379 28 305 q 51 572 28 493 q 112 699 75 650 q 193 769 149 747 q 281 790 238 790 q 336 780 311 790 q 382 754 361 770 q 418 718 402 738 q 446 677 433 698 q 436 737 441 707 q 422 798 430 767 q 465 784 439 790 q 519 775 486 779 q 597 771 551 771 q 725 779 652 771 m 436 439 q 433 485 436 458 q 423 536 431 511 q 402 578 416 561 q 368 596 389 596 q 340 578 353 596 q 318 535 327 560 q 303 482 309 509 q 298 436 298 455 q 302 370 298 404 q 313 308 305 336 q 333 263 321 281 q 361 245 345 245 q 392 254 378 245 q 416 277 406 262 q 431 311 426 292 q 436 351 436 330 l 436 439 z "},"k":{"ha":677,"x_min":9,"x_max":677,"o":"m 677 -20 q 545 -14 601 -14 q 462 -17 496 -14 q 408 -23 429 -20 q 368 -32 383 -27 q 376 32 374 3 q 379 94 379 61 q 374 194 379 154 q 361 260 370 233 q 340 304 352 288 q 313 335 328 321 q 311 287 311 311 q 310 237 310 262 q 315 127 310 186 q 338 -11 321 68 q 292 -7 317 -9 q 239 -5 270 -6 q 172 -4 209 -4 q 95 -5 136 -4 q 9 -11 54 -7 q 34 45 23 10 q 52 122 44 79 q 64 214 59 165 q 72 313 69 263 q 77 411 75 363 q 78 501 78 459 q 76 616 78 557 q 71 732 74 675 q 62 839 67 788 q 53 931 58 890 q 43 1000 48 972 q 33 1038 38 1027 q 123 1034 77 1034 q 240 1039 182 1034 q 351 1055 298 1045 q 336 994 343 1031 q 325 910 330 956 q 316 813 319 865 q 309 711 312 762 q 306 612 307 660 q 304 524 304 564 q 305 475 304 496 q 307 437 306 453 q 380 553 354 497 q 406 664 406 609 q 378 770 406 716 q 431 766 404 767 q 484 765 458 765 q 581 769 532 765 q 677 782 629 772 q 646 719 659 753 q 626 651 633 684 q 611 575 617 614 q 591 503 605 538 q 576 473 585 488 q 556 443 568 458 q 529 416 544 429 q 496 395 514 404 q 556 355 535 379 q 587 302 576 332 q 601 238 597 273 q 611 164 605 203 q 627 100 617 132 q 647 40 635 72 q 677 -20 660 7 z "},"l":{"ha":364,"x_min":18,"x_max":346,"o":"m 346 3 q 319 5 334 3 q 287 6 305 5 q 244 7 268 7 q 143 3 200 7 q 18 -11 85 -1 q 35 42 28 8 q 48 118 43 75 q 57 208 54 160 q 63 304 61 256 q 67 397 66 352 q 68 478 68 442 q 69 540 69 515 q 69 572 69 565 q 63 783 68 686 q 58 865 61 823 q 52 942 56 906 q 42 1005 47 978 q 31 1046 37 1032 q 132 1033 85 1036 q 216 1029 179 1029 q 260 1030 241 1029 q 294 1033 280 1031 q 322 1036 310 1034 q 311 959 316 1006 q 302 854 306 912 q 296 728 298 795 q 294 590 294 661 q 297 426 294 509 q 306 266 300 343 q 322 121 312 189 q 346 3 332 54 z "},"n":{"ha":754,"x_min":28,"x_max":734,"o":"m 734 -14 q 688 -9 713 -10 q 636 -8 663 -8 q 570 -10 604 -8 q 505 -14 536 -12 q 444 -20 473 -17 q 395 -26 416 -24 q 440 184 424 72 q 456 432 456 296 q 455 459 456 442 q 454 496 455 476 q 449 535 452 515 q 440 572 446 555 q 426 598 435 588 q 404 608 417 608 q 367 595 385 608 q 335 559 349 581 q 313 507 321 536 q 304 447 304 478 q 307 333 304 391 q 316 218 310 275 q 332 106 322 161 q 355 3 341 52 q 328 5 344 3 q 296 6 315 5 q 254 7 278 7 q 153 3 210 7 q 28 -11 95 -1 q 42 82 36 27 q 52 201 48 137 q 59 336 56 266 q 61 475 61 406 q 60 574 61 526 q 56 667 58 623 q 50 747 54 710 q 40 810 45 783 q 142 797 95 800 q 227 793 189 793 q 270 794 251 793 q 303 796 290 795 q 332 800 319 798 q 324 755 328 779 q 317 704 320 732 q 364 754 339 732 q 415 789 389 775 q 465 811 440 804 q 513 818 490 818 q 597 798 562 818 q 656 735 633 778 q 691 626 680 692 q 703 467 703 559 q 703 337 703 403 q 706 208 703 271 q 715 89 709 145 q 734 -14 722 32 z "},"m":{"ha":1068,"x_min":28,"x_max":1040,"o":"m 1040 -14 q 996 -9 1019 -10 q 947 -8 972 -8 q 886 -10 917 -8 q 827 -14 856 -12 q 771 -20 798 -17 q 724 -26 745 -24 q 740 59 732 8 q 751 170 747 109 q 759 297 756 230 q 761 432 761 363 q 761 459 761 442 q 759 496 760 476 q 754 535 758 515 q 746 572 751 555 q 731 598 740 588 q 710 608 723 608 q 684 591 696 608 q 659 546 671 574 q 662 456 661 508 q 664 348 663 404 q 665 237 665 292 q 666 138 665 182 q 667 68 667 95 q 669 41 668 41 q 613 49 639 46 q 562 52 588 52 q 489 46 528 52 q 395 29 450 41 q 411 162 404 94 q 422 292 417 221 q 428 432 428 363 q 428 459 428 442 q 426 496 427 476 q 421 535 425 515 q 413 572 418 555 q 398 598 407 588 q 376 608 389 608 q 341 596 355 608 q 319 562 327 583 q 308 514 311 541 q 304 456 304 486 q 307 339 304 398 q 316 222 310 280 q 332 109 322 164 q 355 3 341 53 q 328 5 344 3 q 296 6 315 5 q 254 7 278 7 q 153 3 210 7 q 28 -11 95 -1 q 42 82 36 27 q 52 201 48 137 q 59 336 56 266 q 61 475 61 406 q 60 574 61 526 q 56 667 58 623 q 50 747 54 710 q 40 810 45 783 q 142 797 95 800 q 227 793 189 793 q 270 794 251 793 q 303 796 290 795 q 332 800 319 798 q 325 763 328 783 q 318 720 321 743 q 399 793 356 768 q 485 818 443 818 q 580 789 543 818 q 636 697 617 760 q 724 788 676 758 q 818 818 772 818 q 905 798 867 818 q 969 735 943 778 q 1008 626 995 692 q 1022 467 1022 559 q 1022 334 1022 403 q 1024 200 1023 264 q 1030 79 1026 135 q 1040 -14 1034 23 z "},"r":{"ha":685,"x_min":28,"x_max":681,"o":"m 397 615 q 359 603 376 615 q 329 570 342 591 q 306 519 316 549 q 290 453 296 489 q 293 336 290 395 q 302 220 296 277 q 318 107 308 162 q 342 3 328 52 q 317 5 331 3 q 287 6 304 5 q 248 7 270 7 q 150 3 205 7 q 28 -11 95 -1 q 42 82 36 27 q 52 201 48 137 q 59 336 56 266 q 61 475 61 406 q 60 574 61 526 q 56 667 58 623 q 50 747 54 710 q 40 810 45 783 q 140 797 95 800 q 221 793 185 793 q 262 794 244 793 q 292 796 279 795 q 318 800 307 798 q 306 725 310 766 q 383 788 341 768 q 461 808 425 808 q 564 786 522 808 q 632 729 606 764 q 669 648 658 693 q 681 555 681 602 q 668 467 681 510 q 631 389 655 423 q 570 334 606 355 q 489 313 534 313 q 421 326 449 313 q 374 361 393 340 q 348 409 356 383 q 339 461 339 435 q 347 514 339 488 q 370 561 355 540 q 381 538 374 546 q 396 527 389 530 q 414 522 404 523 q 451 534 439 522 q 464 561 464 545 q 461 578 464 568 q 451 595 458 587 q 431 609 444 604 q 397 615 418 615 z "},"y":{"ha":728,"x_min":14,"x_max":703,"o":"m 703 779 q 690 711 695 751 q 681 625 685 671 q 674 528 677 578 q 670 431 672 478 q 665 195 666 319 q 657 58 665 125 q 630 -69 648 -9 q 582 -180 611 -129 q 510 -268 552 -231 q 411 -326 467 -305 q 285 -347 355 -347 q 171 -334 219 -347 q 91 -295 123 -320 q 44 -236 60 -271 q 29 -160 29 -201 q 43 -85 29 -119 q 81 -28 58 -52 q 133 7 104 -5 q 192 20 162 20 q 264 -2 230 20 q 315 -71 298 -24 q 306 -66 311 -67 q 296 -65 301 -65 q 280 -68 288 -65 q 267 -78 273 -72 q 257 -92 260 -84 q 253 -109 253 -100 q 257 -126 253 -119 q 267 -137 261 -133 q 280 -143 273 -141 q 293 -144 287 -144 q 317 -140 302 -144 q 346 -123 331 -136 q 377 -87 361 -111 q 404 -26 392 -64 q 423 67 416 12 q 429 199 430 122 q 392 122 412 151 q 352 76 373 92 q 307 54 330 60 q 257 49 283 49 q 188 61 224 49 q 121 103 151 73 q 71 185 91 133 q 52 318 52 237 q 52 333 52 329 q 52 340 52 338 q 53 346 52 342 q 54 359 54 349 q 54 387 54 369 q 54 439 54 406 q 53 526 54 477 q 47 622 52 575 q 35 707 43 669 q 14 764 26 745 q 117 751 68 754 q 205 747 165 747 q 253 748 232 747 q 290 751 275 749 q 322 754 308 752 q 310 710 317 743 q 298 632 304 677 q 288 533 292 587 q 283 424 283 479 q 290 353 283 382 q 306 306 296 324 q 331 278 317 287 q 361 269 345 269 q 402 290 387 269 q 428 343 417 311 q 423 441 427 385 q 414 559 420 498 q 399 682 408 620 q 376 798 390 744 q 427 784 397 790 q 488 775 452 779 q 572 771 524 771 q 703 779 630 771 z "},"'":{"ha":273,"x_min":17,"x_max":256,"o":"m 256 1022 q 232 882 241 952 q 219 755 224 812 q 212 627 214 688 l 64 627 q 56 756 62 689 q 42 884 52 814 q 17 1022 33 954 q 65 1020 41 1020 q 115 1019 90 1019 q 185 1020 146 1019 q 256 1022 223 1021 z "},"\"":{"ha":551,"x_min":17,"x_max":533,"o":"m 256 1022 q 232 882 241 952 q 219 755 224 812 q 212 627 214 688 l 64 627 q 56 756 62 689 q 42 884 52 814 q 17 1022 33 954 q 65 1020 41 1020 q 115 1019 90 1019 q 185 1020 146 1019 q 256 1022 223 1021 m 533 1022 q 520 952 526 987 q 510 882 514 916 q 503 815 506 848 q 497 755 499 783 q 490 627 492 688 l 342 627 q 334 756 340 689 q 320 884 329 814 q 294 1022 311 954 q 343 1020 318 1020 q 393 1019 368 1019 q 463 1020 425 1019 q 533 1022 500 1021 z "},"#":{"ha":832,"x_min":25,"x_max":796,"o":"m 361 375 q 405 377 382 376 q 449 380 427 378 q 451 399 450 388 q 455 423 453 411 q 458 447 457 435 q 461 465 460 458 l 468 509 q 424 505 446 507 q 379 501 401 503 q 375 472 378 489 q 370 438 373 456 q 365 404 368 420 q 361 375 363 387 m 724 155 q 675 168 701 163 q 624 176 650 173 q 624 114 624 145 q 628 53 625 83 q 604 55 615 54 q 581 56 592 56 q 536 55 564 56 q 479 53 509 54 q 421 50 449 52 q 376 45 393 47 q 397 114 388 79 q 414 184 406 149 l 343 184 l 343 66 l 315 68 q 268 67 297 68 q 206 64 238 66 q 144 59 174 62 q 96 53 115 56 q 113 110 105 82 q 127 168 121 138 q 75 156 100 163 q 25 140 50 149 q 40 194 33 161 q 54 262 47 227 q 64 331 60 298 q 71 386 69 364 q 118 378 94 380 q 167 375 142 376 q 170 392 168 381 q 174 414 172 403 q 177 436 176 425 q 180 453 179 447 l 183 484 q 120 471 151 478 q 58 456 89 464 q 83 556 72 498 q 94 689 94 615 l 94 697 q 211 689 151 689 q 217 777 215 733 q 220 864 220 820 q 257 862 238 862 q 296 861 277 861 q 331 862 308 861 q 380 862 355 862 q 430 863 406 863 q 465 864 453 863 q 435 782 448 826 q 411 693 422 738 q 454 696 433 695 q 496 701 475 698 q 503 773 500 738 q 505 842 505 809 q 505 861 505 851 q 504 879 505 871 q 564 881 529 879 q 634 886 598 883 q 702 893 669 889 q 757 900 735 897 q 726 811 740 856 q 701 721 713 767 q 750 732 726 726 q 796 745 774 737 q 782 677 788 711 q 771 611 776 643 q 763 552 766 580 q 760 505 760 525 q 710 510 734 509 q 661 511 686 511 q 658 492 660 505 q 653 463 656 479 q 649 429 651 446 q 646 397 646 412 q 705 407 675 401 q 764 419 734 413 q 749 364 756 395 q 736 299 742 333 q 727 228 731 264 q 724 155 724 191 z "},"(":{"ha":509,"x_min":21,"x_max":529,"o":"m 529 1086 q 400 943 457 1029 q 353 859 376 906 q 312 755 330 812 q 283 630 294 698 q 272 482 272 562 q 282 336 272 405 q 309 209 292 268 q 347 100 326 150 q 390 10 368 50 q 509 -153 442 -84 q 460 -149 490 -153 q 391 -134 429 -145 q 311 -104 353 -123 q 228 -52 269 -84 q 150 26 187 -20 q 83 135 112 72 q 38 280 55 198 q 21 468 21 363 q 46 675 21 584 q 114 834 72 766 q 209 951 155 903 q 319 1029 262 999 q 430 1073 375 1059 q 529 1086 485 1086 z "},")":{"ha":509,"x_min":-21,"x_max":488,"o":"m -21 1086 q 78 1073 23 1086 q 189 1029 133 1059 q 299 951 245 999 q 395 834 353 903 q 462 675 437 766 q 488 468 488 584 q 471 280 488 363 q 425 135 454 198 q 359 26 397 72 q 280 -52 321 -20 q 197 -104 239 -84 q 117 -134 155 -123 q 49 -149 79 -145 q 0 -153 18 -153 q 118 10 66 -84 q 161 100 140 50 q 199 209 182 150 q 226 336 216 268 q 236 482 236 405 q 225 630 236 562 q 196 755 214 698 q 155 859 178 812 q 107 943 132 906 q -21 1086 50 1029 z "},"*":{"ha":611,"x_min":24,"x_max":589,"o":"m 589 743 q 494 734 542 742 q 400 715 446 726 q 477 670 438 692 q 557 629 516 649 l 435 437 q 410 489 425 460 q 379 547 396 518 q 344 601 363 575 q 306 644 325 627 q 272 601 288 627 q 244 547 256 576 q 223 490 232 519 q 210 437 214 461 l 68 587 q 129 641 100 612 q 184 700 159 669 q 105 707 145 704 q 24 711 64 710 l 104 935 q 161 867 127 900 q 228 811 194 835 q 215 891 224 851 q 193 968 205 930 l 407 986 q 377 898 388 945 q 361 806 366 850 q 436 865 401 831 q 501 935 472 898 l 589 743 z "},"+":{"ha":593,"x_min":26,"x_max":566,"o":"m 414 730 q 385 640 394 690 q 374 541 376 589 q 426 546 399 543 q 478 553 452 549 q 526 565 503 558 q 566 579 548 571 q 558 519 560 549 q 555 460 555 490 q 558 401 555 431 q 566 342 560 371 q 523 359 546 352 q 475 372 500 367 q 425 379 450 376 q 375 383 399 382 q 386 286 378 334 q 406 191 393 237 q 385 195 397 193 q 360 198 373 197 q 334 200 347 199 q 314 200 322 200 q 246 197 279 200 q 178 191 212 195 q 202 279 193 228 q 215 380 211 330 q 119 371 167 377 q 26 351 71 364 q 31 372 29 359 q 34 397 33 384 q 36 422 35 410 q 36 441 36 434 q 33 510 36 476 q 26 579 31 545 q 115 555 64 564 q 215 542 165 546 q 211 593 214 567 q 203 643 208 618 q 192 690 199 668 q 178 730 186 713 q 237 722 207 724 q 296 720 267 720 q 355 722 326 720 q 414 730 385 724 z "},"=":{"ha":646,"x_min":53,"x_max":591,"o":"m 591 440 q 584 380 586 410 q 582 321 582 351 q 584 262 582 292 q 591 203 586 232 q 535 225 566 216 q 472 238 504 233 q 408 244 440 242 q 347 245 376 245 q 198 238 274 245 q 53 212 123 231 q 58 233 56 220 q 61 258 60 245 q 62 283 62 271 q 62 302 62 295 q 60 371 62 337 q 53 440 57 406 q 116 421 80 429 q 189 409 151 413 q 262 402 226 404 q 329 400 299 400 q 392 402 357 400 q 464 409 428 404 q 534 421 500 413 q 591 440 568 429 m 591 718 q 584 659 586 688 q 582 599 582 629 q 584 539 582 569 q 591 481 586 510 q 535 503 566 494 q 472 516 504 511 q 408 522 440 520 q 347 524 376 524 q 198 516 274 524 q 53 490 123 509 q 58 510 56 498 q 61 535 60 522 q 62 561 62 549 q 62 581 62 572 q 60 649 62 615 q 53 718 57 684 q 116 699 80 707 q 189 686 151 691 q 262 680 226 682 q 329 677 299 677 q 392 680 357 677 q 464 686 428 682 q 534 699 500 691 q 591 718 568 707 z "},",":{"ha":342,"x_min":25,"x_max":314,"o":"m 314 111 q 303 50 314 83 q 276 -18 292 16 q 240 -79 260 -51 q 201 -125 220 -108 l 64 -109 q 104 -71 85 -92 q 138 -26 122 -50 q 92 -13 113 -24 q 56 17 71 -1 q 33 59 41 35 q 25 111 25 83 q 33 159 25 134 q 57 205 40 184 q 101 239 73 226 q 170 253 129 253 q 234 243 206 253 q 279 214 261 233 q 305 169 296 195 q 314 111 314 143 z "},".":{"ha":334,"x_min":24,"x_max":310,"o":"m 24 109 q 35 164 24 138 q 65 210 46 190 q 111 240 85 229 q 167 252 137 252 q 222 240 196 252 q 268 210 248 229 q 299 164 288 190 q 310 109 310 138 q 299 53 310 79 q 268 7 288 26 q 222 -23 248 -12 q 167 -35 196 -35 q 111 -23 137 -35 q 65 7 85 -12 q 35 53 46 26 q 24 109 24 79 z "},"-":{"ha":629,"x_min":45,"x_max":583,"o":"m 583 579 q 576 519 578 549 q 574 460 574 490 q 576 401 574 431 q 583 342 578 371 q 527 364 557 355 q 464 377 496 372 q 399 383 431 381 q 339 385 368 385 q 190 377 265 385 q 45 351 115 370 q 50 372 47 359 q 53 397 52 384 q 54 422 54 410 q 54 441 54 434 q 52 510 54 476 q 45 579 49 545 q 107 560 72 568 q 180 548 142 552 q 254 541 217 543 q 321 539 290 539 q 384 541 349 539 q 456 548 420 543 q 526 560 492 552 q 583 579 559 568 z "},"<":{"ha":521,"x_min":26,"x_max":488,"o":"m 444 98 q 349 169 399 132 q 244 239 298 205 q 135 301 190 273 q 26 347 79 330 q 33 407 32 376 q 35 467 35 437 q 26 611 35 540 q 89 646 55 625 q 157 693 122 667 q 227 747 192 718 q 294 804 262 775 q 353 862 326 833 q 399 916 380 890 l 488 640 q 404 618 447 633 q 318 582 360 603 q 236 536 275 561 q 164 486 197 511 q 236 444 195 466 q 320 404 277 422 q 408 374 364 386 q 488 361 451 361 l 444 98 z "},">":{"ha":521,"x_min":33,"x_max":494,"o":"m 494 347 q 386 301 441 330 q 277 239 331 273 q 172 169 223 205 q 77 98 121 132 l 33 361 q 114 374 70 361 q 201 404 157 386 q 286 444 245 422 q 358 486 327 466 q 286 536 326 511 q 203 582 246 561 q 117 618 161 603 q 33 640 74 633 l 122 916 q 168 861 141 890 q 227 804 195 833 q 294 747 259 775 q 364 693 329 718 q 432 646 399 667 q 494 611 465 625 q 486 467 486 540 q 488 407 486 437 q 494 347 489 376 z "},"/":{"ha":657,"x_min":18,"x_max":640,"o":"m 640 975 q 442 494 524 738 q 309 -9 360 250 q 255 -3 285 -5 q 194 2 226 0 q 130 5 162 4 q 68 5 97 5 l 18 5 q 92 142 56 66 q 161 302 127 218 q 224 475 194 386 q 279 652 254 565 q 322 822 304 740 q 353 975 341 905 q 382 971 365 972 q 419 968 400 969 q 455 967 437 967 q 485 966 473 966 q 521 967 501 966 q 563 969 541 968 q 604 972 584 970 q 640 975 624 974 z "},":":{"ha":375,"x_min":45,"x_max":330,"o":"m 45 109 q 56 164 45 138 q 86 210 67 190 q 132 240 106 229 q 187 252 157 252 q 243 240 217 252 q 289 210 269 229 q 319 164 308 190 q 330 109 330 138 q 319 53 330 79 q 289 7 308 26 q 243 -23 269 -12 q 187 -35 217 -35 q 132 -23 157 -35 q 86 7 106 -12 q 56 53 67 26 q 45 109 45 79 m 45 591 q 56 647 45 621 q 86 693 67 673 q 132 723 106 712 q 187 734 157 734 q 243 723 217 734 q 289 693 269 712 q 319 647 308 673 q 330 591 330 621 q 319 536 330 562 q 289 491 308 510 q 243 460 269 471 q 187 449 217 449 q 132 460 157 449 q 86 491 106 471 q 56 536 67 510 q 45 591 45 562 z "},";":{"ha":382,"x_min":46,"x_max":335,"o":"m 46 591 q 57 647 46 621 q 88 693 68 673 q 133 723 107 712 q 189 734 159 734 q 244 723 218 734 q 290 693 271 712 q 320 647 309 673 q 332 591 332 621 q 320 536 332 562 q 290 491 309 510 q 244 460 271 471 q 189 449 218 449 q 133 460 159 449 q 88 491 107 471 q 57 536 68 510 q 46 591 46 562 m 335 111 q 324 50 335 83 q 297 -18 313 16 q 260 -79 280 -51 q 222 -125 241 -108 l 85 -109 q 124 -71 106 -92 q 158 -26 142 -50 q 112 -13 133 -24 q 77 17 92 -1 q 54 59 62 35 q 46 111 46 83 q 54 159 46 134 q 78 205 61 184 q 122 239 94 226 q 191 253 150 253 q 255 243 227 253 q 300 214 282 233 q 326 169 317 195 q 335 111 335 143 z "},"[":{"ha":490,"x_min":47,"x_max":465,"o":"m 465 -109 q 363 -108 420 -109 q 249 -107 307 -108 q 138 -105 191 -106 q 47 -103 85 -104 q 61 216 58 58 q 65 534 65 374 q 62 831 65 684 q 47 1128 59 979 q 138 1131 85 1129 q 248 1135 191 1133 q 358 1142 304 1138 q 449 1153 411 1147 l 465 943 q 434 944 452 944 q 395 945 416 945 q 352 946 374 945 q 309 946 330 946 q 301 744 303 844 q 298 543 298 644 q 301 308 298 425 q 310 72 304 191 q 347 76 326 73 q 390 82 368 78 q 431 93 411 87 q 465 107 451 99 l 465 -109 z "},"\\":{"ha":657,"x_min":17,"x_max":639,"o":"m 17 975 q 53 972 33 974 q 94 969 73 970 q 136 967 115 968 q 172 966 156 966 q 202 967 184 966 q 238 968 220 967 q 274 971 256 969 q 304 975 292 972 q 335 822 316 905 q 378 652 353 740 q 433 475 403 565 q 496 302 463 386 q 566 142 530 218 q 639 5 602 66 l 587 5 q 527 5 559 5 q 463 2 494 4 q 401 -3 431 0 q 349 -9 372 -5 q 215 494 296 250 q 17 975 134 738 z "},"]":{"ha":490,"x_min":25,"x_max":443,"o":"m 25 107 q 59 93 39 99 q 101 82 79 87 q 143 76 122 78 q 180 72 164 73 q 189 308 186 191 q 192 543 192 425 q 190 744 192 644 q 182 946 187 844 q 138 946 160 946 q 95 945 116 945 q 57 944 75 945 q 25 943 39 944 l 41 1153 q 99 1145 66 1149 q 168 1140 132 1142 q 242 1136 204 1137 q 317 1133 281 1134 q 386 1130 353 1131 q 443 1128 418 1128 q 428 831 431 979 q 425 534 425 684 q 429 216 425 374 q 443 -103 433 58 q 352 -105 406 -104 q 241 -107 299 -106 q 127 -108 184 -108 q 25 -109 70 -109 l 25 107 z "},"^":{"ha":519,"x_min":0,"x_max":519,"o":"m 519 554 q 466 539 495 547 q 406 523 436 531 q 347 504 375 514 q 296 482 318 494 q 298 503 297 492 q 298 524 298 513 q 296 552 298 534 q 291 594 294 571 q 283 642 288 616 q 274 694 279 668 q 250 822 263 753 q 246 801 250 822 q 238 747 243 780 q 227 675 233 715 q 216 597 221 635 q 208 529 211 559 q 204 482 204 498 q 156 502 182 492 q 103 520 130 511 q 49 536 76 528 q 0 551 22 545 q 23 586 11 562 q 47 642 35 610 q 71 711 60 674 q 94 785 83 748 q 143 977 119 872 q 169 975 154 975 q 201 973 184 974 q 233 971 217 972 q 260 971 248 971 q 282 971 269 971 q 310 972 296 972 q 338 974 325 973 q 361 977 352 975 q 415 785 388 872 q 440 711 427 748 q 467 643 453 674 q 494 588 480 611 q 519 554 507 564 z "},"_":{"ha":688,"x_min":75,"x_max":614,"o":"m 614 -60 q 606 -119 608 -90 q 604 -179 604 -149 q 606 -238 604 -209 q 614 -297 608 -268 q 557 -275 588 -283 q 494 -262 526 -267 q 430 -256 462 -258 q 370 -254 398 -254 q 220 -261 296 -254 q 75 -288 145 -269 q 80 -268 78 -279 q 83 -242 82 -256 q 84 -217 84 -229 q 85 -197 85 -205 q 82 -129 85 -163 q 75 -60 79 -94 q 138 -79 102 -71 q 210 -91 173 -87 q 284 -98 248 -96 q 351 -100 321 -100 q 415 -98 379 -100 q 487 -91 450 -96 q 556 -79 523 -87 q 614 -60 590 -71 z "},"q":{"ha":750,"x_min":28,"x_max":924,"o":"m 450 464 l 450 504 q 448 541 450 522 q 439 576 446 560 q 418 601 432 591 q 382 611 405 611 q 354 601 366 611 q 335 576 342 591 q 323 541 328 560 q 316 501 318 521 q 313 463 314 481 q 313 432 313 444 q 313 401 313 420 q 316 362 314 383 q 322 321 318 342 q 333 284 326 301 q 350 258 340 268 q 375 248 360 248 q 403 260 391 248 q 424 291 415 272 q 437 334 432 310 q 445 382 442 359 q 449 428 448 406 q 450 464 450 450 m 476 -153 q 461 -66 465 -112 q 458 21 458 -21 q 459 61 458 35 q 459 115 459 87 q 459 166 459 142 q 460 200 460 191 q 429 98 448 139 q 387 32 411 57 q 333 -3 363 7 q 268 -14 303 -14 q 228 -7 252 -14 q 177 15 204 -1 q 124 59 151 31 q 76 131 97 87 q 41 236 54 175 q 28 380 28 298 q 39 525 28 462 q 70 636 50 589 q 114 717 89 684 q 169 771 140 750 q 228 801 197 791 q 286 810 258 810 q 343 801 317 810 q 390 778 369 792 q 427 744 410 763 q 456 707 444 726 q 446 757 452 735 q 433 793 441 779 q 519 783 476 785 q 602 781 563 781 q 651 781 629 781 q 691 783 674 782 q 726 786 711 785 q 715 715 720 759 q 705 616 709 671 q 697 498 701 561 q 691 370 694 435 q 688 240 689 304 q 686 118 686 176 q 687 7 686 53 q 691 -68 688 -38 q 698 -115 694 -98 q 709 -140 703 -132 q 723 -150 715 -148 q 743 -151 732 -151 q 772 -140 760 -151 q 785 -102 785 -129 q 780 -84 784 -92 q 768 -69 777 -77 q 746 -57 760 -62 q 770 -46 755 -51 q 803 -41 785 -41 q 840 -48 819 -41 q 879 -71 861 -55 q 911 -115 898 -87 q 924 -183 924 -142 q 904 -254 924 -224 q 854 -302 885 -283 q 787 -330 824 -321 q 714 -339 749 -339 q 629 -326 668 -339 q 560 -287 591 -312 q 508 -228 530 -262 q 476 -153 487 -194 z "},"p":{"ha":751,"x_min":22,"x_max":724,"o":"m 22 778 q 58 775 38 777 q 97 773 75 774 q 147 772 120 772 q 229 775 185 772 q 315 785 273 777 q 301 743 307 769 q 292 682 296 717 q 366 777 319 743 q 484 811 412 811 q 523 809 499 811 q 574 795 547 807 q 628 760 601 784 q 676 692 654 736 q 710 581 697 648 q 724 416 724 514 q 712 271 724 335 q 680 158 700 207 q 633 75 660 109 q 577 19 606 41 q 516 -13 547 -3 q 457 -22 486 -22 q 396 -9 424 -22 q 346 29 368 5 q 309 86 324 53 q 285 160 293 120 q 288 87 286 129 q 292 2 290 46 q 298 -87 295 -43 q 306 -171 302 -132 q 315 -237 310 -209 q 326 -278 320 -266 q 225 -266 272 -269 q 140 -262 178 -262 q 96 -263 116 -262 q 63 -265 77 -264 q 35 -268 47 -267 q 47 -179 41 -234 q 58 -57 54 -125 q 65 90 62 12 q 68 250 68 168 q 65 400 68 326 q 58 543 63 475 q 43 672 52 612 q 22 778 35 732 m 301 444 l 301 335 q 303 298 301 317 q 312 263 305 279 q 333 238 319 248 q 370 228 347 228 q 397 241 386 228 q 416 274 409 254 q 429 319 424 294 q 435 369 433 345 q 438 415 437 394 q 439 449 439 437 q 437 494 439 467 q 429 545 435 520 q 411 588 423 570 q 376 606 398 606 q 337 588 352 606 q 314 546 322 571 q 304 493 307 522 q 301 444 301 465 z "},"{":{"ha":550,"x_min":-26,"x_max":576,"o":"m 576 1086 q 450 1027 505 1063 q 403 993 426 1012 q 363 950 380 974 q 334 899 345 927 q 323 839 323 871 q 328 795 323 817 q 338 752 332 774 q 348 707 344 730 q 353 660 353 684 q 345 609 353 632 q 319 566 337 587 q 273 525 302 545 q 203 482 244 505 q 272 444 244 463 q 317 401 300 424 q 340 352 334 378 q 347 294 347 326 q 343 253 347 275 q 335 206 340 231 q 327 154 331 181 q 323 97 323 126 q 333 31 323 61 q 359 -23 343 1 q 397 -66 376 -47 q 439 -100 418 -85 q 555 -153 490 -134 q 519 -152 545 -153 q 458 -146 493 -151 q 382 -133 423 -142 q 300 -110 341 -125 q 221 -72 259 -95 q 153 -17 182 -50 q 105 58 123 15 q 87 157 87 100 q 96 212 87 185 q 116 264 105 239 q 136 314 127 290 q 144 359 144 338 q 137 395 144 378 q 109 427 129 412 q 57 456 90 442 q -26 482 24 470 q 55 507 22 494 q 106 533 87 519 q 133 561 125 547 q 140 591 140 576 q 132 632 140 610 q 113 676 123 653 q 95 725 103 700 q 86 779 86 751 q 114 891 86 843 q 186 973 142 939 q 286 1029 231 1007 q 395 1065 340 1052 q 498 1083 450 1078 q 576 1086 546 1087 z "},"}":{"ha":558,"x_min":-25,"x_max":578,"o":"m -25 1086 q 54 1083 5 1087 q 156 1065 102 1078 q 266 1029 211 1052 q 365 973 321 1007 q 437 891 410 939 q 465 779 465 843 q 456 725 465 751 q 437 676 448 700 q 418 632 427 653 q 410 591 410 610 q 417 561 410 576 q 445 533 425 547 q 496 507 464 519 q 578 482 529 494 q 495 456 528 470 q 442 427 462 442 q 415 395 422 412 q 407 359 407 378 q 416 314 407 338 q 435 264 425 290 q 454 212 445 239 q 463 157 463 185 q 442 53 463 98 q 386 -26 421 8 q 304 -84 351 -60 q 205 -123 257 -108 q 99 -145 153 -138 q -4 -153 45 -152 q 112 -100 60 -134 q 154 -66 134 -85 q 191 -23 175 -47 q 218 31 208 1 q 228 97 228 61 q 224 154 228 126 q 216 206 220 181 q 208 253 212 231 q 204 294 204 275 q 211 352 204 326 q 235 401 218 378 q 279 444 252 424 q 349 482 307 463 q 277 525 307 505 q 231 566 248 545 q 205 609 213 587 q 197 660 197 632 q 202 704 197 682 q 212 748 206 726 q 222 792 218 770 q 227 839 227 815 q 216 899 227 871 q 187 950 205 927 q 147 993 170 974 q 100 1027 124 1012 q -25 1086 45 1063 z "},"":{"ha":646,"x_min":45,"x_max":600,"o":"m 600 579 q 592 519 595 549 q 589 460 589 490 q 600 342 589 401 q 541 364 574 355 q 472 377 507 372 q 402 383 437 381 q 339 385 368 385 q 190 377 265 385 q 45 351 115 370 q 50 372 47 359 q 53 397 52 384 q 54 422 54 410 q 54 441 54 434 q 52 510 54 476 q 45 579 49 545 q 107 560 72 568 q 180 548 142 552 q 254 541 217 543 q 321 539 290 539 q 387 541 349 539 q 464 548 425 543 q 539 560 503 552 q 600 579 576 568 z "},"":{"ha":924,"x_min":45,"x_max":878,"o":"m 878 579 q 869 519 872 549 q 867 460 867 490 q 869 401 867 431 q 878 342 872 371 q 829 357 860 351 q 760 369 798 364 q 681 377 722 374 q 600 381 639 380 q 529 384 562 383 q 478 385 497 385 q 418 384 454 385 q 343 381 383 383 q 260 377 302 380 q 177 371 217 375 q 102 362 137 368 q 45 351 68 357 q 50 372 47 359 q 53 397 52 384 q 54 422 54 410 q 54 441 54 434 q 52 510 54 476 q 45 579 49 545 q 95 566 63 572 q 167 555 127 559 q 249 548 206 551 q 332 543 292 545 q 406 540 372 541 q 460 539 439 539 q 512 540 478 539 q 586 543 545 541 q 672 548 627 545 q 756 555 716 551 q 829 566 797 559 q 878 579 861 572 z "},"":{"ha":833,"x_min":31,"x_max":787,"o":"m 485 144 q 493 183 489 159 q 499 235 496 207 q 505 292 503 262 q 510 350 507 322 q 514 402 512 378 q 517 441 515 426 l 481 441 q 373 438 435 441 q 248 430 311 435 q 129 420 185 425 q 37 411 73 415 q 38 443 37 427 q 39 475 39 459 q 37 566 39 517 q 31 657 35 615 q 111 648 65 652 q 202 640 156 644 q 291 634 249 636 q 361 632 333 632 q 411 633 378 632 q 486 635 444 633 q 573 638 528 636 q 661 642 619 640 q 736 646 703 644 q 787 652 770 649 q 778 603 782 632 q 770 539 773 574 q 765 464 767 504 q 764 383 764 425 q 768 255 764 317 q 782 144 772 193 l 485 144 z "},"":{"ha":399,"x_min":41,"x_max":357,"o":"m 340 1120 q 318 867 325 993 q 311 612 311 741 l 79 612 q 72 867 75 741 q 56 1120 68 993 q 85 1118 68 1118 q 120 1117 102 1118 q 156 1117 138 1117 q 186 1117 174 1117 q 221 1117 201 1117 q 262 1118 241 1118 q 304 1119 283 1118 q 340 1120 324 1119 m 357 -86 q 326 -85 341 -86 q 293 -85 310 -85 q 238 -85 272 -85 q 168 -87 204 -86 q 97 -90 131 -88 q 41 -93 62 -91 q 56 6 50 -47 q 67 115 62 60 q 75 223 72 170 q 80 323 78 277 q 83 407 82 370 q 83 465 83 444 l 315 465 q 332 189 321 326 q 357 -86 342 51 z "},"|":{"ha":390,"x_min":31,"x_max":358,"o":"m 358 -94 q 331 -92 347 -94 q 299 -91 317 -92 q 257 -90 281 -90 q 155 -94 213 -90 q 31 -109 98 -98 q 48 -52 41 -90 q 61 34 56 -14 q 70 139 66 83 q 76 252 74 195 q 80 362 79 309 q 81 459 81 416 q 82 533 82 503 q 82 572 82 563 q 76 831 81 714 q 71 931 74 882 q 64 1024 68 981 q 55 1098 60 1067 q 43 1143 50 1130 q 144 1130 98 1134 q 229 1126 191 1126 q 273 1127 254 1126 q 307 1130 293 1128 q 335 1133 323 1131 q 323 1049 329 1103 q 315 924 318 995 q 309 771 311 854 q 307 600 307 688 q 310 397 307 499 q 319 202 313 295 q 334 33 325 110 q 358 -94 344 -44 z "},"~":{"ha":682,"x_min":-1,"x_max":682,"o":"m 682 498 q 636 447 658 471 q 589 405 614 422 q 536 378 565 388 q 469 368 507 368 q 414 379 438 368 q 370 403 389 390 q 335 428 351 416 q 304 439 319 439 q 258 428 276 439 q 228 400 239 418 q 210 360 216 383 q 197 314 203 338 q 162 366 185 340 q 111 412 139 391 q 54 452 83 434 q -1 481 24 469 q 54 537 28 511 q 109 582 81 563 q 168 613 136 602 q 239 624 199 624 q 290 613 267 624 q 334 588 313 602 q 374 564 355 575 q 412 553 393 553 q 449 563 433 553 q 478 588 466 572 q 498 622 490 603 q 510 659 507 641 q 545 617 524 640 q 589 571 566 593 q 636 528 612 548 q 682 498 661 509 z "},"":{"ha":637,"x_min":49,"x_max":587,"o":"m 587 579 q 580 519 582 549 q 578 460 578 490 q 580 401 578 431 q 587 342 582 371 q 531 364 562 355 q 468 377 500 372 q 404 383 435 381 q 343 385 372 385 q 194 377 269 385 q 49 351 119 370 q 54 372 52 359 q 57 397 56 384 q 58 422 58 410 q 58 441 58 434 q 56 510 58 476 q 49 579 53 545 q 111 560 76 568 q 184 548 146 552 q 258 541 221 543 q 325 539 294 539 q 388 541 353 539 q 460 548 424 543 q 530 560 496 552 q 587 579 564 568 z "},"":{"ha":597,"x_min":24,"x_max":572,"o":"m 572 571 q 486 526 528 555 q 410 465 444 497 q 446 435 427 451 q 487 404 466 418 q 530 376 508 389 q 572 355 551 363 q 481 280 524 322 q 406 189 439 238 q 360 276 390 235 q 298 353 331 317 q 238 277 267 316 q 184 196 208 238 q 157 236 177 213 q 113 281 137 258 q 64 323 88 303 q 24 355 40 343 q 66 377 45 364 q 107 404 87 389 q 147 434 127 418 q 183 464 166 450 q 110 525 148 496 q 31 576 71 553 q 70 605 47 585 q 116 649 93 625 q 158 697 138 673 q 191 737 178 721 q 212 696 199 717 q 239 654 224 675 q 269 614 253 634 q 298 578 284 595 q 328 613 313 594 q 358 653 344 633 q 385 695 373 674 q 406 737 397 717 q 481 646 439 688 q 572 571 524 604 z "},"":{"ha":590,"x_min":25,"x_max":564,"o":"m 564 579 q 556 519 558 549 q 554 460 554 490 q 556 401 554 431 q 564 342 558 371 q 507 364 538 355 q 444 377 476 372 q 380 383 412 381 q 319 385 348 385 q 171 377 246 385 q 25 351 95 370 q 30 372 28 359 q 33 397 32 384 q 34 422 34 410 q 35 441 35 434 q 32 510 35 476 q 25 579 29 545 q 88 560 52 568 q 161 548 123 552 q 235 541 198 543 q 301 539 271 539 q 365 541 329 539 q 436 548 400 543 q 506 560 473 552 q 564 579 540 568 m 197 222 q 206 266 197 245 q 230 301 215 286 q 266 325 245 316 q 309 334 286 334 q 352 325 332 334 q 387 301 372 316 q 410 266 401 286 q 419 222 419 245 q 410 179 419 199 q 387 144 401 159 q 352 120 372 129 q 309 111 332 111 q 266 120 286 111 q 230 144 245 129 q 206 179 215 159 q 197 222 197 199 m 197 699 q 206 742 197 722 q 230 777 215 762 q 266 801 245 792 q 309 810 286 810 q 352 801 332 810 q 387 777 372 792 q 410 742 401 762 q 419 699 419 722 q 410 655 419 675 q 387 620 401 635 q 352 596 372 605 q 309 587 332 587 q 266 596 286 587 q 230 620 245 605 q 206 655 215 635 q 197 699 197 675 z "},"":{"ha":1150,"x_min":25,"x_max":1125,"o":"m 1125 507 l 1125 494 q 1101 385 1125 433 q 1037 303 1077 336 q 943 253 996 271 q 831 236 890 236 q 759 246 795 236 q 688 273 722 256 q 625 314 654 290 q 572 366 595 338 q 513 312 546 337 q 445 268 480 287 q 373 238 410 249 q 302 227 336 227 q 187 248 238 227 q 100 307 136 270 q 44 394 64 345 q 25 498 25 444 q 45 593 25 547 q 101 674 65 639 q 189 731 138 710 q 302 753 240 753 q 380 742 340 753 q 458 710 420 730 q 528 662 496 690 q 585 602 561 634 q 648 649 614 627 q 718 687 682 671 q 791 714 754 704 q 864 724 828 724 q 968 709 921 724 q 1050 668 1016 695 q 1103 600 1084 640 q 1125 507 1123 559 m 879 488 q 872 518 878 505 q 854 540 865 531 q 830 553 844 549 q 803 557 817 557 q 770 550 787 557 q 737 532 753 543 q 705 507 720 521 q 679 481 690 494 q 703 460 689 471 q 731 438 716 448 q 763 421 747 428 q 793 414 779 414 q 822 417 806 414 q 849 429 837 421 q 870 450 862 437 q 879 481 879 463 l 879 488 m 457 489 q 435 506 448 496 q 406 524 421 515 q 376 539 391 533 q 350 546 361 546 q 329 542 340 546 q 308 531 317 538 q 292 514 298 524 q 286 490 286 504 q 292 460 286 472 q 307 440 297 448 q 328 430 316 433 q 354 427 340 427 q 380 433 366 427 q 409 448 395 439 q 435 469 422 458 q 457 489 448 479 z "},"":{"ha":342,"x_min":25,"x_max":314,"o":"m 314 111 q 303 50 314 83 q 276 -18 292 16 q 240 -79 260 -51 q 201 -125 220 -108 l 64 -109 q 104 -71 85 -92 q 138 -26 122 -50 q 92 -13 113 -24 q 56 17 71 -1 q 33 59 41 35 q 25 111 25 83 q 33 159 25 134 q 57 205 40 184 q 101 239 73 226 q 170 253 129 253 q 234 243 206 253 q 279 214 261 233 q 305 169 296 195 q 314 111 314 143 z "},"":{"ha":675,"x_min":25,"x_max":647,"o":"m 314 111 q 303 50 314 83 q 276 -18 292 16 q 240 -79 260 -51 q 201 -125 220 -108 l 64 -109 q 104 -71 85 -92 q 138 -26 122 -50 q 92 -13 113 -24 q 56 17 71 -1 q 33 59 41 35 q 25 111 25 83 q 33 159 25 134 q 57 205 40 184 q 101 239 73 226 q 170 253 129 253 q 234 243 206 253 q 279 214 261 233 q 305 169 296 195 q 314 111 314 143 m 647 111 q 636 50 647 83 q 609 -18 625 16 q 573 -79 593 -51 q 534 -125 553 -108 l 397 -109 q 437 -71 419 -92 q 471 -26 455 -50 q 425 -13 446 -24 q 389 17 404 -1 q 366 59 374 35 q 358 111 358 83 q 366 159 358 134 q 390 205 373 184 q 434 239 407 226 q 503 253 462 253 q 612 214 576 253 q 647 111 647 175 z "},"":{"ha":334,"x_min":24,"x_max":313,"o":"m 313 831 q 302 769 313 803 q 275 702 291 735 q 238 640 258 669 q 200 595 218 612 l 62 611 q 102 649 84 628 q 136 693 121 670 q 91 707 111 695 q 55 736 70 718 q 32 779 40 755 q 24 831 24 803 q 31 879 24 854 q 55 924 39 903 q 100 959 72 945 q 168 972 127 972 q 232 962 205 972 q 277 933 260 952 q 304 889 295 915 q 313 831 313 863 z "},"":{"ha":667,"x_min":24,"x_max":646,"o":"m 313 831 q 302 769 313 803 q 275 702 291 735 q 238 640 258 669 q 200 595 218 612 l 62 611 q 102 649 84 628 q 136 693 121 670 q 91 707 111 695 q 55 736 70 718 q 32 779 40 755 q 24 831 24 803 q 31 879 24 854 q 55 924 39 903 q 100 959 72 945 q 168 972 127 972 q 232 962 205 972 q 277 933 260 952 q 304 889 295 915 q 313 831 313 863 m 646 831 q 635 769 646 803 q 608 702 624 735 q 571 640 591 669 q 533 595 551 612 l 396 611 q 436 649 418 628 q 469 693 454 670 q 424 707 444 695 q 388 736 403 718 q 365 779 373 755 q 357 831 357 803 q 364 879 357 854 q 389 924 372 903 q 433 959 406 945 q 501 972 460 972 q 610 933 575 972 q 646 831 646 895 z "},"":{"ha":667,"x_min":22,"x_max":644,"o":"m 355 736 q 366 798 355 764 q 393 865 377 831 q 430 926 410 898 q 468 972 450 955 l 606 956 q 566 918 584 939 q 532 873 547 897 q 577 860 557 871 q 613 830 598 848 q 636 788 628 812 q 644 736 644 764 q 637 688 644 713 q 613 643 629 663 q 568 608 596 622 q 500 595 541 595 q 436 605 463 595 q 391 634 408 615 q 364 678 373 652 q 355 736 355 704 m 22 736 q 33 798 22 764 q 60 865 44 831 q 97 926 77 898 q 135 972 117 955 l 272 956 q 232 918 250 939 q 199 873 214 897 q 244 860 224 871 q 280 830 265 848 q 303 788 295 812 q 311 736 311 764 q 304 688 311 713 q 280 643 296 663 q 235 608 263 622 q 167 595 208 595 q 102 605 130 595 q 57 634 75 615 q 31 678 39 652 q 22 736 22 704 z "},"":{"ha":334,"x_min":22,"x_max":311,"o":"m 22 736 q 33 798 22 764 q 60 865 44 831 q 97 926 77 898 q 135 972 117 955 l 272 956 q 232 918 250 939 q 199 873 214 897 q 244 860 224 871 q 280 830 265 848 q 303 788 295 812 q 311 736 311 764 q 304 688 311 713 q 280 643 296 663 q 235 608 263 622 q 167 595 208 595 q 102 605 130 595 q 57 634 75 615 q 31 678 39 652 q 22 736 22 704 z "},"":{"ha":400,"x_min":-1,"x_max":395,"o":"m -1 -313 q 44 -173 24 -248 q 76 -20 63 -99 q 95 139 89 58 q 102 300 102 220 q 101 351 102 326 q 98 401 100 376 q 164 390 131 394 q 229 386 197 386 q 309 393 267 386 q 306 341 307 367 q 306 289 306 315 q 313 115 306 202 q 332 -49 320 28 q 360 -191 344 -127 q 395 -296 376 -255 q 335 -291 369 -292 q 260 -290 300 -290 q 188 -292 225 -290 q 117 -296 151 -293 q 52 -302 82 -298 q -1 -313 21 -307 m 354 581 q 343 525 354 551 q 312 479 332 498 q 267 449 293 460 q 211 437 241 437 q 155 449 181 437 q 110 479 130 460 q 79 525 90 498 q 68 581 68 551 q 79 636 68 610 q 110 682 90 663 q 155 712 130 701 q 211 724 181 724 q 267 712 241 724 q 312 682 293 701 q 343 636 332 663 q 354 581 354 610 z "},"":{"ha":751,"x_min":24,"x_max":730,"o":"m 25 53 q 47 142 28 105 q 93 207 66 178 q 148 257 119 235 q 204 301 178 279 q 248 351 230 324 q 269 414 266 377 q 335 402 302 406 q 400 399 368 399 q 440 400 420 399 q 479 406 460 402 q 469 326 479 359 q 444 269 459 294 q 410 222 428 243 q 376 175 392 200 q 351 118 361 150 q 340 39 340 85 q 355 -39 340 -9 q 390 -84 370 -68 q 431 -105 410 -100 q 464 -110 452 -110 q 503 -97 490 -110 q 517 -71 517 -83 q 507 -43 517 -55 q 473 -31 497 -31 q 455 -35 463 -31 q 440 -46 448 -39 q 429 -68 433 -54 q 407 -22 414 -48 q 399 33 399 5 q 407 89 399 62 q 433 136 415 115 q 478 169 450 157 q 543 182 505 182 q 625 161 589 182 q 683 110 660 141 q 719 41 707 79 q 730 -29 730 4 q 713 -125 730 -75 q 657 -217 696 -175 q 558 -286 619 -258 q 411 -313 498 -313 q 316 -304 363 -313 q 225 -280 269 -296 q 145 -237 182 -263 q 81 -173 109 -210 q 39 -89 54 -136 q 24 18 24 -41 q 24 35 24 26 q 25 53 24 44 m 525 593 q 514 537 525 563 q 483 492 503 511 q 438 461 464 473 q 382 450 412 450 q 326 461 352 450 q 280 492 300 473 q 250 537 261 511 q 239 593 239 563 q 250 649 239 623 q 280 694 261 675 q 326 725 300 713 q 382 736 352 736 q 438 725 412 736 q 483 694 464 713 q 514 649 503 675 q 525 593 525 623 z "},"t":{"ha":576,"x_min":4,"x_max":571,"o":"m 571 823 q 563 764 566 793 q 561 704 561 734 q 563 645 561 675 q 571 586 566 616 q 497 611 538 603 q 414 624 456 619 l 414 566 q 416 411 414 489 q 425 259 419 332 q 441 119 431 185 q 465 3 451 54 q 438 5 454 3 q 406 6 425 5 q 364 7 388 7 q 262 3 320 7 q 138 -11 205 -1 q 171 264 161 121 q 180 543 180 407 l 180 624 q 89 613 134 621 q 4 596 44 606 q 9 616 7 604 q 12 641 11 628 q 13 666 13 654 q 14 686 14 678 q 11 755 14 721 q 4 823 8 789 q 81 801 37 810 q 172 789 126 793 q 163 898 168 848 q 150 989 157 948 q 252 976 205 979 q 336 972 298 972 q 380 974 361 972 q 413 976 399 975 q 441 979 429 977 q 429 898 434 947 q 419 790 424 850 q 504 803 464 795 q 571 823 543 811 z "},"":{"ha":464,"x_min":0,"x_max":464,"o":"m 464 1126 q 415 1080 439 1106 q 370 1023 391 1053 q 333 961 349 993 q 306 899 316 929 q 269 903 288 903 q 232 904 250 904 q 187 903 209 904 q 143 899 165 902 q 117 959 132 927 q 83 1021 102 991 q 43 1080 64 1052 q 0 1129 22 1107 q 89 1161 45 1143 q 176 1198 134 1179 q 179 1148 176 1175 q 186 1094 181 1121 q 200 1042 191 1067 q 222 997 209 1017 q 257 1074 243 1034 q 271 1157 271 1115 q 270 1178 271 1167 q 268 1198 269 1188 q 364 1158 313 1175 q 464 1126 415 1141 z "},"":{"ha":427,"x_min":0,"x_max":427,"o":"m 427 1145 q 403 1109 412 1132 q 387 1059 395 1086 q 368 1003 378 1031 q 338 952 357 975 q 290 915 319 929 q 214 900 260 900 q 137 913 167 900 q 88 947 107 926 q 58 994 69 968 q 39 1046 47 1020 q 23 1095 31 1072 q 0 1133 14 1118 q 46 1137 22 1133 q 96 1147 71 1141 q 145 1160 121 1153 q 189 1174 169 1167 q 185 1146 186 1160 q 184 1118 184 1132 q 186 1096 184 1109 q 192 1068 188 1082 q 205 1046 197 1055 q 225 1036 213 1036 q 242 1043 235 1036 q 253 1061 249 1050 q 258 1082 257 1071 q 260 1100 260 1093 q 257 1138 260 1119 q 250 1174 254 1156 q 328 1153 286 1161 q 411 1145 371 1145 l 427 1145 z "},"":{"ha":222,"x_min":0,"x_max":222,"o":"m 0 1013 q 9 1056 0 1036 q 33 1091 18 1076 q 68 1115 48 1106 q 111 1124 88 1124 q 154 1115 134 1124 q 190 1091 174 1106 q 214 1056 205 1076 q 222 1013 222 1036 q 214 969 222 989 q 190 934 205 949 q 154 910 174 919 q 111 901 134 901 q 68 910 88 901 q 33 934 48 919 q 9 969 18 949 q 0 1013 0 989 z "},"":{"ha":329,"x_min":0,"x_max":329,"o":"m 329 943 q 322 891 329 920 q 297 838 315 863 q 247 796 279 812 q 164 779 215 779 q 78 795 111 779 q 28 836 45 812 q 5 889 11 861 q 0 943 0 918 q 6 996 0 967 q 30 1048 12 1024 q 80 1089 47 1073 q 164 1105 112 1105 q 249 1089 217 1105 q 299 1048 281 1073 q 323 996 317 1024 q 329 943 329 967 m 225 947 q 223 967 225 956 q 215 986 221 977 q 198 1001 209 995 q 168 1007 186 1007 q 138 1001 150 1007 q 121 986 127 995 q 112 967 115 977 q 110 947 110 956 q 112 927 110 938 q 119 908 113 917 q 137 893 125 899 q 168 888 149 888 q 196 894 185 888 q 214 909 208 900 q 223 928 220 918 q 225 947 225 939 z "},"":{"ha":278,"x_min":0,"x_max":278,"o":"m 278 -200 q 245 -212 263 -201 q 207 -234 228 -222 q 163 -255 186 -245 q 114 -265 140 -265 q 68 -255 89 -265 q 32 -229 47 -245 q 8 -190 17 -212 q 0 -143 0 -168 q 11 -98 0 -124 q 38 -44 22 -71 q 71 8 54 -16 q 100 47 87 33 l 179 47 q 156 16 170 38 q 129 -32 142 -6 q 106 -81 116 -57 q 97 -119 97 -105 q 106 -141 97 -134 q 129 -149 115 -149 q 151 -142 141 -149 q 169 -125 161 -135 q 182 -104 176 -115 q 192 -83 188 -93 q 206 -116 197 -99 q 226 -148 215 -132 q 251 -177 237 -163 q 278 -200 264 -191 z "},"":{"ha":637,"x_min":0,"x_max":637,"o":"m 135 852 l 0 913 q 77 1027 41 972 q 108 1075 92 1050 q 138 1122 124 1099 q 163 1165 152 1145 q 182 1200 175 1185 q 233 1166 203 1184 q 292 1132 263 1147 q 359 1095 324 1114 l 135 852 m 412 852 l 278 913 q 355 1027 319 972 q 386 1075 370 1050 q 416 1122 402 1099 q 441 1165 430 1145 q 460 1200 453 1185 q 511 1166 481 1184 q 570 1132 541 1147 q 637 1095 602 1114 l 412 852 z "},"":{"ha":375,"x_min":24,"x_max":353,"o":"m 353 818 q 346 766 353 794 q 321 713 339 738 q 270 671 302 688 q 187 654 238 654 q 101 671 134 654 q 52 711 69 687 q 29 764 35 736 q 24 818 24 793 q 30 870 24 842 q 54 923 36 899 q 103 964 71 947 q 187 981 135 981 q 272 964 240 981 q 322 923 304 947 q 347 870 340 899 q 353 818 353 842 m 249 822 q 247 841 249 831 q 239 861 245 852 q 221 876 233 869 q 192 882 210 882 q 162 876 174 882 q 144 861 151 869 q 136 841 138 852 q 134 822 134 831 q 135 802 134 812 q 143 783 137 792 q 161 768 149 774 q 192 762 172 762 q 220 768 209 762 q 238 784 231 774 q 247 803 244 793 q 249 822 249 813 z "},"":{"ha":399,"x_min":0,"x_max":399,"o":"m 399 1059 q 392 1015 395 1037 q 390 971 390 993 q 392 928 390 949 q 399 885 395 906 q 359 897 382 892 q 310 904 336 902 q 261 907 285 907 q 218 908 237 908 q 165 908 193 908 q 109 906 137 907 q 53 901 80 904 q 0 890 25 897 q 4 906 3 897 q 6 924 5 915 q 7 943 7 934 q 7 958 7 952 q 5 1008 7 983 q 0 1059 3 1033 q 101 1044 49 1047 q 204 1042 154 1042 q 302 1044 251 1042 q 399 1059 353 1046 z "},"":{"ha":494,"x_min":0,"x_max":494,"o":"m 0 1013 q 9 1056 0 1036 q 33 1091 18 1076 q 68 1115 48 1106 q 111 1124 88 1124 q 154 1115 134 1124 q 190 1091 174 1106 q 214 1056 205 1076 q 222 1013 222 1036 q 214 969 222 989 q 190 934 205 949 q 154 910 174 919 q 111 901 134 901 q 68 910 88 901 q 33 934 48 919 q 9 969 18 949 q 0 1013 0 989 m 272 1013 q 281 1056 272 1036 q 305 1091 290 1076 q 340 1115 320 1106 q 383 1124 360 1124 q 426 1115 406 1124 q 461 1091 446 1106 q 486 1056 477 1076 q 494 1013 494 1036 q 486 969 494 989 q 461 934 477 949 q 426 910 446 919 q 383 901 406 901 q 340 910 360 901 q 305 934 320 919 q 281 969 290 949 q 272 1013 272 989 z "},"":{"ha":359,"x_min":0,"x_max":359,"o":"m 135 852 l 0 913 q 77 1027 41 972 q 108 1075 92 1050 q 138 1122 124 1099 q 163 1165 152 1145 q 182 1200 175 1185 q 233 1166 203 1184 q 292 1132 263 1147 q 359 1095 324 1114 l 135 852 z "},"`":{"ha":359,"x_min":0,"x_max":359,"o":"m 225 852 l 0 1095 q 68 1132 35 1114 q 127 1166 96 1147 q 179 1200 157 1184 q 196 1165 185 1185 q 221 1122 208 1145 q 251 1075 235 1099 q 282 1027 267 1050 q 359 913 318 972 l 225 852 z "},"":{"ha":513,"x_min":0,"x_max":513,"o":"m 513 1002 q 478 961 494 979 q 443 930 461 943 q 403 910 425 917 q 353 903 381 903 q 313 911 329 903 q 281 930 296 920 q 251 948 267 940 q 212 957 235 957 q 174 949 191 957 q 145 928 157 941 q 126 898 134 915 q 114 864 118 882 q 66 937 94 904 q 0 987 39 970 q 45 1035 25 1015 q 85 1068 65 1055 q 128 1088 106 1082 q 180 1095 151 1095 q 219 1086 201 1095 q 252 1069 236 1078 q 281 1051 267 1059 q 311 1043 296 1043 q 339 1050 326 1043 q 360 1069 351 1058 q 375 1095 370 1081 q 383 1122 381 1109 q 410 1090 394 1108 q 443 1056 425 1073 q 478 1024 460 1038 q 513 1002 496 1009 z "},"":{"ha":464,"x_min":0,"x_max":464,"o":"m 464 971 q 364 939 415 956 q 268 899 313 922 q 270 920 269 909 q 271 940 271 930 q 257 1023 271 982 q 222 1100 243 1063 q 200 1054 209 1080 q 186 1002 191 1029 q 179 948 181 975 q 176 899 176 922 q 89 936 134 918 q 0 968 45 954 q 43 1017 22 989 q 83 1076 64 1045 q 117 1138 102 1107 q 143 1198 132 1170 q 187 1195 165 1196 q 232 1193 209 1193 q 269 1194 250 1193 q 306 1198 288 1195 q 333 1136 316 1168 q 370 1074 349 1104 q 415 1018 391 1044 q 464 971 439 991 z "},"":{"ha":452,"x_min":24,"x_max":419,"o":"m 380 104 q 303 160 346 132 q 213 212 260 189 q 118 250 166 235 q 24 268 69 265 q 33 347 29 307 q 36 428 36 387 q 32 498 36 463 q 112 537 72 515 q 190 583 151 559 q 266 632 228 606 q 339 682 303 657 l 419 454 q 359 449 391 454 q 293 435 326 444 q 228 415 260 426 q 171 393 197 404 q 228 372 196 383 q 293 352 260 361 q 359 337 326 343 q 419 332 391 332 l 380 104 z "},"":{"ha":452,"x_min":32,"x_max":428,"o":"m 428 268 q 333 250 382 265 q 238 212 285 235 q 148 160 191 189 q 71 104 105 132 l 32 332 q 92 337 59 332 q 157 352 124 343 q 222 372 191 361 q 281 393 254 383 q 223 415 254 404 q 158 435 191 426 q 93 449 125 444 q 32 454 60 454 l 113 682 q 185 632 148 657 q 261 583 222 606 q 339 537 299 559 q 419 498 378 515 q 415 427 415 463 q 419 347 415 387 q 428 268 422 307 z "},"":{"ha":225,"x_min":0,"x_max":225,"o":"m 225 -175 q 203 -248 225 -222 q 149 -286 182 -273 q 76 -300 115 -298 q 0 -302 36 -302 q 5 -273 3 -288 q 7 -241 7 -258 q 5 -216 7 -229 q 0 -191 4 -202 q 13 -198 4 -195 q 33 -203 22 -201 q 53 -207 43 -205 q 68 -208 62 -208 q 102 -200 87 -208 q 117 -170 117 -191 q 111 -151 117 -159 q 97 -138 106 -143 q 78 -131 88 -134 q 58 -129 68 -129 q 35 -131 47 -129 q 11 -136 22 -132 l 82 58 l 147 58 l 114 -64 q 159 -72 139 -64 q 194 -95 180 -80 q 217 -130 209 -110 q 225 -175 225 -151 z "},"":{"ha":868,"x_min":24,"x_max":836,"o":"m 380 104 q 303 160 346 132 q 213 212 260 189 q 118 250 166 235 q 24 268 69 265 q 33 347 29 307 q 36 428 36 387 q 32 498 36 463 q 112 537 72 515 q 190 583 151 559 q 266 632 228 606 q 339 682 303 657 l 419 454 q 359 449 391 454 q 293 435 326 444 q 228 415 260 426 q 171 393 197 404 q 228 372 196 383 q 293 352 260 361 q 359 337 326 343 q 419 332 391 332 l 380 104 m 798 104 q 720 160 763 132 q 630 212 677 189 q 534 250 583 235 q 440 268 486 265 q 449 347 446 307 q 453 428 453 387 q 449 498 453 463 q 528 537 489 515 q 606 583 568 559 q 682 632 645 606 q 755 682 720 657 l 836 454 q 775 449 808 454 q 710 435 743 444 q 645 415 677 426 q 587 393 614 404 q 645 372 613 383 q 710 352 676 361 q 776 337 743 343 q 836 332 808 332 l 798 104 z "},"":{"ha":868,"x_min":32,"x_max":844,"o":"m 844 268 q 750 250 798 265 q 654 212 701 235 q 565 160 608 189 q 488 104 522 132 l 449 332 q 508 337 476 332 q 574 352 541 343 q 640 372 608 361 q 697 393 671 383 q 640 415 671 404 q 575 435 608 426 q 509 449 542 444 q 449 454 477 454 l 529 682 q 602 632 564 657 q 677 583 639 606 q 756 537 716 559 q 836 498 795 515 q 832 427 832 463 q 836 347 832 387 q 844 268 839 307 m 428 268 q 333 250 382 265 q 238 212 285 235 q 148 160 191 189 q 71 104 105 132 l 32 332 q 92 337 59 332 q 157 352 124 343 q 222 372 191 361 q 281 393 254 383 q 223 415 254 404 q 158 435 191 426 q 93 449 125 444 q 32 454 60 454 l 113 682 q 185 632 148 657 q 261 583 222 606 q 339 537 299 559 q 419 498 378 515 q 415 427 415 463 q 419 347 415 387 q 428 268 422 307 z "},"":{"ha":519,"x_min":54,"x_max":465,"o":"m 54 473 q 70 553 54 516 q 114 619 86 591 q 180 663 142 647 q 260 679 217 679 q 340 663 302 679 q 405 619 377 647 q 449 553 433 591 q 465 473 465 516 q 449 393 465 431 q 405 328 433 356 q 340 284 377 300 q 260 268 302 268 q 180 284 217 268 q 114 328 142 300 q 70 393 86 356 q 54 473 54 431 z "},"":{"ha":757,"x_min":25,"x_max":742,"o":"m 355 329 q 394 369 372 345 q 436 420 416 393 q 469 476 456 448 q 482 532 482 505 q 477 559 482 547 q 465 581 473 572 q 447 594 457 589 q 427 599 437 599 q 395 586 408 599 q 374 552 382 573 q 362 506 366 532 q 356 456 358 481 q 354 410 354 431 q 354 376 354 389 q 354 353 354 365 q 355 329 354 342 m 429 4 q 397 7 415 5 q 360 9 382 8 q 310 9 338 9 q 182 5 255 9 q 25 -14 110 0 q 51 64 40 17 q 69 164 62 111 q 80 272 76 217 q 86 374 84 327 q 89 456 88 422 q 89 504 89 491 q 89 525 89 507 q 87 572 88 543 q 85 639 87 602 q 82 718 84 677 q 76 800 79 758 q 67 878 72 841 q 55 944 62 914 q 40 990 49 973 q 166 974 109 978 q 269 970 223 970 q 324 971 300 970 q 366 974 349 972 q 400 978 385 976 q 388 909 394 946 q 378 829 382 872 q 398 835 386 833 q 421 837 410 837 q 442 837 433 837 q 453 836 451 836 q 513 830 481 836 q 577 808 545 824 q 639 766 609 793 q 692 699 669 740 q 728 601 715 658 q 742 468 742 544 q 719 332 742 394 q 656 224 695 269 q 567 154 617 179 q 464 129 517 129 q 431 132 447 129 q 399 140 416 135 q 412 71 405 104 q 429 4 420 37 z "},"":{"ha":734,"x_min":5,"x_max":707,"o":"m 5 1063 q 41 1060 21 1061 q 80 1058 58 1059 q 131 1057 103 1057 q 212 1060 168 1057 q 298 1069 256 1062 q 293 1037 296 1064 q 289 970 291 1009 q 285 885 287 930 q 281 798 283 840 q 278 725 279 757 q 275 682 277 694 q 350 778 304 744 q 467 811 395 811 q 506 809 482 811 q 557 795 530 807 q 611 760 584 784 q 659 692 637 736 q 693 581 680 648 q 707 416 707 514 q 695 271 707 335 q 663 158 683 207 q 616 75 643 109 q 560 19 589 41 q 499 -13 530 -3 q 440 -22 469 -22 q 382 -12 408 -22 q 336 15 357 -1 q 299 53 315 32 q 272 96 283 74 q 277 -8 274 49 q 284 -120 279 -66 q 295 -217 288 -174 q 310 -278 301 -260 q 208 -266 255 -269 q 123 -262 161 -262 q 79 -263 99 -262 q 46 -265 60 -264 q 18 -268 30 -267 q 31 -166 25 -234 q 41 -9 37 -98 q 49 186 46 81 q 52 400 52 291 q 49 600 52 501 q 41 786 47 699 q 26 945 35 873 q 5 1063 18 1017 m 285 444 l 285 335 q 287 298 285 317 q 296 263 289 279 q 316 238 303 248 q 353 228 330 228 q 380 241 369 228 q 400 274 392 254 q 412 319 408 294 q 419 369 416 345 q 422 415 421 394 q 422 449 422 437 q 421 494 422 467 q 413 545 419 520 q 394 588 406 570 q 359 606 381 606 q 320 588 335 606 q 298 546 306 571 q 287 493 290 522 q 285 444 285 465 z "},"":{"ha":875,"x_min":16,"x_max":844,"o":"m 844 481 q 820 291 844 370 q 755 156 795 212 q 665 67 715 101 q 561 15 614 34 q 458 -9 509 -3 q 370 -16 408 -16 q 289 -11 338 -16 q 180 -7 239 -7 q 104 -8 146 -7 q 16 -14 62 -9 q 54 80 38 27 q 80 189 69 133 q 97 300 91 245 q 107 401 103 355 q 64 392 86 397 q 16 379 43 387 q 20 399 18 387 q 23 425 22 412 q 25 450 24 437 q 25 469 25 462 q 22 538 25 504 q 16 607 20 572 q 64 588 41 596 q 111 576 88 581 q 109 637 111 602 q 104 713 107 673 q 95 795 100 753 q 80 876 89 838 q 60 944 72 913 q 33 993 49 975 q 129 982 83 985 q 208 979 174 979 q 259 980 239 979 q 294 981 279 981 q 319 983 309 982 q 340 985 329 985 q 365 987 351 986 q 400 987 379 987 q 497 981 446 987 q 598 956 549 975 q 692 902 647 937 q 770 811 736 867 q 824 674 804 755 q 844 481 844 593 m 449 607 q 441 547 444 576 q 439 488 439 518 q 441 429 439 458 q 449 370 444 399 q 410 387 429 380 q 374 399 391 395 q 381 301 376 340 q 394 237 386 261 q 414 203 403 214 q 440 193 426 193 q 493 266 473 193 q 513 496 513 338 q 508 628 513 575 q 494 713 503 681 q 471 759 485 745 q 440 772 458 772 q 397 728 414 772 q 374 582 380 683 q 412 592 393 586 q 449 607 431 599 z "},"":{"ha":689,"x_min":0,"x_max":689,"o":"m 494 754 q 487 682 488 716 q 485 614 485 648 q 487 546 485 579 q 494 481 488 513 q 471 485 483 484 q 446 486 458 486 q 363 475 405 486 q 376 369 365 412 q 404 299 387 326 q 445 261 421 273 q 496 249 468 249 q 581 280 538 249 q 653 370 623 311 l 689 -9 q 633 0 665 -4 q 566 6 601 4 q 497 9 531 8 q 435 11 463 10 q 390 11 408 11 q 371 11 372 11 q 279 7 328 10 q 184 -3 237 3 q 71 -21 130 -9 q 103 161 90 57 q 122 380 117 265 q 60 347 91 365 q 0 307 29 328 q 5 332 3 317 q 8 362 7 347 q 9 392 9 378 q 9 415 9 406 q 6 493 9 455 q 0 568 3 532 q 12 567 5 567 q 25 567 18 567 q 125 579 71 567 q 121 693 123 637 q 113 801 118 749 q 102 899 109 853 q 86 983 95 945 q 214 966 156 970 q 315 962 271 962 q 364 963 343 962 q 401 966 385 964 q 432 970 418 968 q 396 828 411 906 q 372 671 380 751 q 439 710 407 690 q 494 754 471 731 z "},"":{"ha":518,"x_min":12,"x_max":507,"o":"m 507 754 q 499 682 500 716 q 497 614 497 648 q 499 546 497 579 q 507 481 500 513 q 484 485 496 484 q 460 486 472 486 q 411 482 436 486 q 361 471 385 477 q 367 337 363 404 q 376 211 370 271 q 391 97 382 150 q 411 3 399 44 q 384 5 399 3 q 352 6 370 5 q 310 7 334 7 q 208 3 266 7 q 83 -11 151 -1 q 103 56 95 12 q 117 153 111 99 q 126 266 123 207 q 132 379 130 325 q 71 345 102 363 q 12 307 41 327 q 18 332 16 317 q 21 362 20 347 q 22 392 22 378 q 22 415 22 406 q 19 493 22 455 q 12 568 16 532 q 26 567 19 567 q 40 567 33 567 q 86 570 62 567 q 135 578 110 572 q 135 603 135 583 q 134 653 134 623 q 132 720 133 683 q 128 797 130 758 q 123 875 126 836 q 117 948 121 914 q 107 1007 113 981 q 96 1046 102 1033 q 197 1033 151 1036 q 282 1029 244 1029 q 326 1030 307 1029 q 359 1033 345 1031 q 387 1036 375 1034 q 377 970 382 1010 q 369 882 372 930 q 363 776 366 833 q 359 659 361 720 q 440 703 400 678 q 507 754 479 728 z "},"":{"ha":882,"x_min":4,"x_max":876,"o":"m 876 823 q 869 764 871 793 q 867 704 867 734 q 869 645 867 675 q 876 586 871 616 q 820 601 860 595 q 726 612 779 607 q 717 511 720 564 q 714 399 714 457 q 717 297 714 349 q 726 193 720 245 q 741 90 732 141 q 765 -11 751 39 q 738 -9 761 -11 q 679 -8 715 -8 q 578 -12 636 -8 q 452 -26 521 -15 q 486 205 475 102 q 496 396 496 309 q 491 514 496 458 q 479 627 487 571 q 435 627 456 627 q 395 628 413 628 q 385 526 388 579 q 382 415 382 473 q 385 313 382 365 q 393 209 387 261 q 409 104 399 156 q 433 3 419 52 q 406 5 429 4 q 343 7 382 7 q 243 3 300 7 q 119 -11 186 -1 q 154 222 143 119 q 164 412 164 325 q 160 520 164 469 q 150 621 156 570 q 75 610 111 616 q 4 596 38 604 q 9 616 7 604 q 12 641 11 628 q 13 666 13 654 q 14 686 14 678 q 11 755 14 721 q 4 823 8 789 q 69 804 32 812 q 146 792 106 796 q 225 785 186 787 q 294 783 264 783 q 338 784 308 783 q 407 785 368 784 q 494 788 447 786 q 589 792 541 789 q 684 797 637 794 q 769 804 730 800 q 836 813 808 808 q 876 823 864 818 m 765 -12 l 765 -11 l 766 -11 q 766 -12 766 -12 l 765 -12 z "},"":{"ha":987,"x_min":35,"x_max":961,"o":"m 832 -81 q 804 -78 820 -79 q 770 -76 790 -77 q 725 -75 751 -75 q 625 -79 682 -75 q 497 -93 567 -83 q 524 80 514 -7 q 538 242 533 166 q 545 379 543 319 q 546 473 546 439 q 546 491 546 484 q 547 507 547 498 q 547 528 547 515 q 547 565 547 541 q 544 624 546 588 q 538 715 541 661 q 533 751 536 734 q 524 781 530 768 q 510 803 518 795 q 489 811 501 811 q 449 783 463 811 q 429 710 435 754 q 423 615 423 667 q 422 515 422 563 q 434 260 422 391 q 471 3 446 130 q 440 5 458 4 q 404 7 425 7 q 357 8 383 8 q 251 4 311 8 q 122 -9 192 1 q 158 184 146 91 q 176 349 170 277 q 184 509 183 434 q 184 549 184 526 q 182 594 183 568 q 180 652 182 620 q 96 555 134 605 q 35 457 58 505 l 52 975 q 123 968 83 971 q 209 964 163 966 q 304 961 254 962 q 407 960 355 960 q 557 962 481 960 q 703 967 633 964 q 832 976 772 970 q 936 989 892 981 l 961 465 q 884 581 926 525 q 790 684 842 637 q 785 581 787 634 q 783 472 783 528 q 786 331 783 403 q 795 189 789 260 q 811 50 802 118 q 832 -81 820 -18 z "},"":{"ha":627,"x_min":43,"x_max":583,"o":"m 432 730 q 403 640 412 690 q 392 541 394 589 q 444 546 417 543 q 496 553 471 549 q 544 565 522 558 q 583 579 566 571 q 576 519 578 549 q 574 460 574 490 q 576 401 574 431 q 583 342 578 371 q 541 359 564 352 q 493 372 517 367 q 443 379 469 376 q 393 383 418 382 q 404 286 397 334 q 424 191 411 237 q 404 195 416 193 q 378 198 391 197 q 352 200 364 199 q 332 200 340 200 q 264 197 297 200 q 196 191 231 195 q 210 232 203 209 q 220 279 216 254 q 228 330 224 304 q 233 380 231 355 q 137 371 185 377 q 45 351 90 364 q 50 372 47 359 q 53 397 52 384 q 54 422 54 410 q 54 441 54 434 q 52 510 54 476 q 45 579 49 545 q 133 555 82 564 q 233 542 183 546 q 229 593 232 567 q 221 643 226 618 q 211 690 217 668 q 196 730 204 713 q 255 722 225 724 q 314 720 285 720 q 374 722 345 720 q 432 730 403 724 m 582 135 q 574 75 576 104 q 572 16 572 46 q 574 -44 572 -14 q 582 -103 576 -73 q 525 -81 556 -90 q 462 -68 494 -73 q 398 -61 430 -63 q 338 -60 366 -60 q 189 -67 264 -60 q 43 -93 113 -74 q 48 -73 46 -85 q 51 -48 50 -61 q 53 -23 52 -35 q 53 -3 53 -11 q 50 66 53 32 q 43 135 47 100 q 106 116 71 123 q 178 103 141 108 q 252 96 216 98 q 319 94 289 94 q 383 96 347 94 q 455 103 418 98 q 525 116 491 108 q 582 135 558 123 z "},"":{"ha":615,"x_min":24,"x_max":590,"o":"m 590 865 q 583 806 585 835 q 581 746 581 777 q 583 687 581 716 q 590 628 585 657 q 513 654 557 644 q 425 667 469 663 q 424 608 424 637 q 424 549 424 579 q 427 373 424 462 q 435 203 429 285 q 451 53 441 122 q 475 -66 460 -17 q 448 -64 463 -66 q 416 -63 434 -64 q 374 -62 397 -62 q 272 -66 330 -62 q 147 -81 214 -70 q 163 -29 156 -62 q 176 48 170 5 q 185 142 181 92 q 191 243 189 192 q 195 345 194 295 q 197 436 197 394 q 198 511 198 479 q 199 558 199 543 q 199 568 199 564 q 199 580 199 571 q 198 608 199 589 q 197 665 198 627 q 107 655 151 662 q 24 637 64 648 q 28 657 26 646 q 32 683 31 669 q 33 708 33 696 q 33 728 33 720 q 31 797 33 762 q 24 865 28 831 q 99 843 55 852 q 191 831 144 835 q 185 900 189 866 q 179 962 182 934 q 170 1013 175 991 q 160 1046 165 1034 q 261 1033 214 1036 q 346 1029 308 1029 q 390 1030 370 1029 q 423 1033 410 1031 q 452 1036 439 1034 q 439 951 444 1004 q 429 831 433 899 q 518 843 475 835 q 590 865 562 852 z "},"":{"ha":640,"x_min":36,"x_max":603,"o":"m 603 338 q 593 218 593 277 q 603 100 593 159 q 533 124 572 115 q 454 138 494 134 q 468 25 460 77 q 488 -66 476 -26 q 460 -64 476 -66 q 428 -63 447 -64 q 386 -62 410 -62 q 284 -66 342 -62 q 160 -81 227 -70 q 172 -45 167 -67 q 182 5 178 -23 q 190 67 186 33 q 197 136 194 100 q 114 126 155 133 q 36 110 73 119 q 41 130 39 118 q 44 155 43 142 q 46 180 45 168 q 46 200 46 192 q 43 269 46 235 q 36 338 40 303 q 114 316 68 324 q 205 302 159 307 q 209 405 208 356 q 210 491 210 454 q 211 572 211 534 l 211 598 q 211 628 211 610 q 210 665 210 645 q 120 655 163 662 q 36 637 76 648 q 41 657 39 646 q 44 683 43 669 q 46 708 45 696 q 46 728 46 720 q 43 797 46 762 q 36 865 40 831 q 112 843 68 852 q 203 831 157 835 q 198 900 201 866 q 191 962 195 934 q 182 1013 187 991 q 172 1046 178 1034 q 274 1033 227 1036 q 358 1029 321 1029 q 402 1030 382 1029 q 435 1033 422 1031 q 464 1036 452 1034 q 451 951 456 1004 q 441 831 446 899 q 531 843 488 835 q 603 865 574 852 q 593 746 593 805 q 603 628 593 686 q 525 654 569 644 q 437 667 481 663 q 436 608 436 637 q 436 547 436 578 q 437 424 436 486 q 441 302 438 362 q 531 316 488 307 q 603 338 574 324 z "},"":{"ha":336,"x_min":25,"x_max":311,"o":"m 25 511 q 36 567 25 541 q 67 612 47 593 q 112 643 86 632 q 168 654 138 654 q 224 643 198 654 q 270 612 250 632 q 300 567 289 593 q 311 511 311 541 q 300 455 311 481 q 270 410 289 429 q 224 379 250 391 q 168 368 198 368 q 112 379 138 368 q 67 410 86 391 q 36 455 47 429 q 25 511 25 481 z "},"":{"ha":374,"x_min":24,"x_max":351,"o":"m 351 3 q 324 5 340 3 q 292 6 311 5 q 250 7 274 7 q 149 3 206 7 q 24 -11 91 -1 q 45 54 37 15 q 60 137 54 93 q 69 227 66 182 q 73 311 72 273 q 75 375 75 349 q 75 408 75 401 q 69 573 74 496 q 64 639 67 606 q 57 702 61 672 q 48 754 53 731 q 36 791 43 778 q 138 779 91 782 q 222 775 184 775 q 266 776 247 775 q 299 779 286 777 q 328 782 315 780 q 308 635 315 721 q 300 450 300 549 q 302 336 300 394 q 311 221 305 279 q 327 109 317 164 q 351 3 337 54 z "},"":{"ha":443,"x_min":26,"x_max":416,"o":"m 416 737 q 413 685 416 713 q 400 628 409 657 q 377 573 392 600 q 341 525 363 546 q 289 492 319 505 q 220 479 259 479 q 149 491 179 479 q 98 523 119 503 q 63 568 77 543 q 41 622 49 594 q 30 680 33 650 q 26 734 26 709 q 39 825 26 781 q 76 903 51 869 q 139 959 101 938 q 228 981 177 981 q 315 958 279 981 q 373 900 351 935 q 406 822 396 865 q 416 737 416 779 m 275 724 q 274 762 275 738 q 267 808 272 785 q 251 847 261 831 q 224 864 241 864 q 196 848 207 864 q 180 810 186 832 q 172 766 174 789 q 170 729 170 743 q 172 696 170 715 q 179 660 174 677 q 195 630 184 642 q 221 618 205 618 q 247 629 237 618 q 264 656 258 640 q 273 691 270 673 q 275 724 275 709 z "},"a":{"ha":758,"x_min":29,"x_max":730,"o":"m 730 -9 q 701 -7 718 -8 q 666 -5 686 -5 q 623 -4 646 -4 q 548 -7 589 -4 q 465 -17 508 -9 l 468 174 q 392 18 442 73 q 275 -37 342 -37 q 228 -32 254 -37 q 174 -11 201 -26 q 120 31 146 4 q 74 101 94 58 q 41 206 54 144 q 29 351 29 267 q 52 546 29 465 q 111 679 75 627 q 191 754 147 730 q 275 778 234 778 q 339 768 311 778 q 391 743 368 758 q 429 709 413 728 q 456 671 446 690 q 450 720 454 694 q 440 774 446 746 q 530 762 484 765 q 614 760 575 760 q 688 762 660 760 q 718 764 705 762 q 705 688 711 730 q 694 598 699 646 q 687 497 690 550 q 685 390 685 445 q 695 184 685 288 q 730 -9 705 81 m 452 379 l 452 489 q 450 526 452 507 q 440 561 448 545 q 420 586 433 576 q 383 596 406 596 q 343 579 359 596 q 317 533 327 562 q 303 463 307 503 q 300 375 300 422 q 303 320 300 348 q 316 270 307 292 q 340 233 325 247 q 376 218 355 218 q 416 235 401 218 q 438 277 431 252 q 449 330 446 302 q 452 379 452 357 z "},"":{"ha":486,"x_min":31,"x_max":452,"o":"m 452 509 q 433 510 444 509 q 413 511 425 511 q 387 511 401 511 q 342 510 366 511 q 292 504 317 509 l 293 575 q 248 513 277 534 q 179 492 218 492 q 135 499 160 492 q 86 532 109 507 q 47 603 63 557 q 31 725 31 649 q 44 841 31 793 q 79 921 58 890 q 126 966 100 952 q 176 981 152 981 q 216 975 198 981 q 247 960 233 969 q 270 939 260 951 q 286 917 280 928 q 283 946 285 930 q 278 978 281 962 q 331 971 304 972 q 380 970 357 970 q 406 970 394 970 q 427 971 418 970 q 444 972 437 972 q 430 872 436 932 q 424 747 424 813 q 430 625 424 686 q 452 509 437 563 m 283 742 l 283 811 q 282 832 283 821 q 276 851 281 843 q 264 865 272 860 q 243 871 256 871 q 220 854 229 871 q 208 817 212 838 q 202 773 203 795 q 201 739 201 751 q 202 712 201 728 q 207 681 203 696 q 218 655 211 666 q 239 644 226 644 q 262 654 254 644 q 276 680 271 665 q 282 712 281 695 q 283 742 283 728 z "},"":{"ha":696,"x_min":41,"x_max":673,"o":"m 370 -358 q 342 -356 357 -357 q 310 -355 328 -355 q 268 -354 292 -354 q 166 -358 224 -354 q 41 -372 109 -361 q 63 -307 54 -347 q 78 -223 72 -268 q 86 -134 83 -179 q 91 -50 90 -88 q 93 14 92 -12 q 93 47 93 41 q 84 153 85 102 q 82 254 82 203 q 83 312 82 283 q 83 371 83 340 q 82 459 83 414 q 76 553 81 505 q 63 653 72 601 q 41 764 55 706 q 145 751 96 754 q 233 747 193 747 q 281 748 260 747 q 318 751 302 749 q 350 754 336 752 q 324 603 336 688 q 311 410 311 519 q 314 357 311 385 q 322 308 316 330 q 339 270 328 285 q 366 256 349 256 q 398 269 387 256 q 415 305 410 283 q 421 354 420 327 q 422 408 422 381 q 417 573 421 496 q 412 639 415 606 q 405 702 409 672 q 395 754 401 731 q 383 791 390 778 q 485 779 438 782 q 568 775 532 775 q 612 776 593 775 q 645 779 631 777 q 673 782 661 780 q 662 711 667 751 q 653 623 657 670 q 648 525 650 576 q 646 422 646 473 q 646 389 646 406 q 647 357 647 372 q 643 281 647 323 q 628 196 640 239 q 597 110 617 152 q 546 35 578 68 q 467 -17 513 3 q 358 -37 421 -37 q 342 -37 350 -37 q 326 -36 334 -36 q 339 -202 330 -120 q 370 -358 349 -284 z "},"":{"ha":1101,"x_min":26,"x_max":1063,"o":"m 1063 -53 q 1035 -51 1050 -52 q 1003 -50 1021 -50 q 961 -49 985 -49 q 859 -53 917 -49 q 734 -66 802 -56 q 755 4 747 -42 q 769 108 764 51 q 779 228 775 165 q 784 345 782 290 q 786 443 785 400 q 786 504 786 486 q 786 513 786 503 q 786 545 786 522 q 784 606 785 568 q 781 701 783 644 q 779 723 780 710 q 772 747 777 735 q 758 767 767 759 q 733 775 749 775 q 710 767 719 775 q 696 748 701 760 q 690 724 692 736 q 688 701 688 711 q 683 593 684 648 q 682 481 682 537 q 685 331 682 404 q 691 192 687 257 q 702 75 696 127 q 715 -11 708 23 q 687 -8 703 -9 q 654 -6 673 -7 q 610 -5 634 -5 q 525 -8 572 -5 q 424 -21 478 -12 q 439 33 433 -3 q 450 113 445 68 q 457 208 454 158 q 461 304 460 258 q 434 262 450 283 q 397 224 418 241 q 351 196 376 207 q 293 186 325 186 q 234 196 264 186 q 173 227 203 205 q 117 283 144 249 q 70 367 90 318 q 38 480 50 416 q 26 625 26 544 q 43 783 26 718 q 88 889 60 847 q 149 955 115 931 q 216 990 183 979 q 279 1003 250 1001 q 328 1006 309 1006 q 396 1004 361 1006 q 472 999 431 1002 q 564 993 513 996 q 683 987 615 990 q 838 982 751 984 q 1039 981 926 981 q 1027 903 1033 950 q 1019 798 1022 857 q 1013 673 1015 740 q 1011 534 1011 606 q 1014 370 1011 453 q 1023 210 1017 288 q 1039 65 1029 133 q 1063 -53 1048 -2 m 449 653 q 446 702 449 674 q 436 755 444 730 q 413 797 428 780 q 374 814 398 814 q 339 796 352 814 q 321 753 327 779 q 313 702 315 728 q 311 657 311 675 q 312 623 311 644 q 315 577 313 602 q 321 528 317 553 q 334 482 326 503 q 353 449 341 462 q 380 436 364 436 q 417 446 404 436 q 438 471 431 456 q 447 506 445 487 q 449 543 449 525 l 449 653 z "},"":{"ha":711,"x_min":25,"x_max":675,"o":"m 165 1059 q 325 1027 253 1056 q 453 949 397 998 q 551 838 509 901 q 621 701 593 774 q 661 550 648 628 q 675 396 675 472 q 669 310 675 357 q 648 215 663 262 q 610 122 634 167 q 549 42 585 77 q 463 -14 513 7 q 346 -35 412 -35 q 230 -15 279 -35 q 144 38 180 5 q 85 114 109 71 q 49 204 62 157 q 30 300 35 252 q 25 392 25 349 q 34 493 25 443 q 59 587 43 543 q 100 669 76 631 q 154 735 124 707 q 221 779 184 763 q 298 794 257 794 q 344 785 323 794 q 382 762 366 775 q 410 735 399 749 q 422 714 420 722 q 378 830 404 779 q 325 918 353 880 q 270 982 297 956 q 220 1024 242 1008 q 183 1048 197 1040 q 165 1059 168 1057 m 439 374 q 438 413 439 389 q 433 462 437 436 q 424 513 430 488 q 409 559 418 539 q 386 593 399 580 q 353 606 372 606 q 321 593 334 606 q 297 562 307 581 q 281 517 288 542 q 271 468 275 492 q 266 420 267 443 q 264 382 264 397 q 267 328 264 359 q 280 267 271 296 q 306 217 290 237 q 350 196 323 196 q 393 215 376 196 q 420 261 410 234 q 435 319 431 289 q 439 374 439 350 z "},"":{"ha":703,"x_min":25,"x_max":675,"o":"m 606 1129 q 599 1076 602 1100 q 596 1028 596 1052 q 598 986 596 1007 q 606 939 600 964 q 542 934 573 937 q 479 925 510 931 q 566 814 529 876 q 627 683 602 752 q 663 541 651 614 q 675 396 675 468 q 669 310 675 357 q 648 215 663 262 q 610 122 634 167 q 549 42 585 77 q 463 -14 513 7 q 346 -35 412 -35 q 230 -15 279 -35 q 144 38 180 5 q 85 114 109 71 q 49 204 62 157 q 30 300 35 252 q 25 392 25 349 q 34 493 25 443 q 59 587 43 543 q 100 669 76 631 q 154 735 124 707 q 221 779 184 763 q 298 794 257 794 q 344 785 323 794 q 382 762 366 775 q 410 735 399 749 q 422 714 420 722 q 388 809 408 766 q 346 886 368 852 q 245 839 293 865 q 157 783 197 812 q 164 838 162 816 q 167 878 167 860 q 164 917 167 899 q 157 961 161 936 q 214 967 184 963 q 273 978 243 972 q 234 1014 253 999 q 200 1038 215 1028 q 176 1052 186 1047 q 165 1059 167 1057 q 276 1042 224 1056 q 372 1004 328 1028 q 500 1057 439 1026 q 606 1129 561 1088 m 439 374 q 438 413 439 389 q 433 462 437 436 q 424 513 430 488 q 409 559 418 539 q 386 593 399 580 q 353 606 372 606 q 321 593 334 606 q 297 562 307 581 q 281 517 288 542 q 271 468 275 492 q 266 420 267 443 q 264 382 264 397 q 267 328 264 359 q 280 267 271 296 q 306 217 290 237 q 350 196 323 196 q 393 215 376 196 q 420 261 410 234 q 435 319 431 289 q 439 374 439 350 z "},"":{"ha":1014,"x_min":11,"x_max":1013,"o":"m 419 557 q 430 636 419 602 q 455 699 441 671 q 480 750 469 726 q 492 800 492 774 q 487 830 492 816 q 473 856 481 844 q 454 873 465 867 q 432 880 444 880 q 385 850 401 880 q 361 767 368 821 q 354 637 355 713 q 354 471 354 562 q 355 339 354 406 q 360 209 357 273 q 369 89 363 146 q 383 -16 374 31 q 225 0 307 0 q 141 -4 182 0 q 58 -16 99 -8 q 83 129 74 52 q 96 286 92 206 q 102 445 100 366 q 106 593 104 524 q 58 589 84 591 q 11 583 33 587 q 16 641 14 613 q 18 699 18 669 q 17 750 18 724 q 11 803 16 775 l 114 798 q 134 927 114 868 q 193 1028 154 985 q 287 1094 231 1070 q 415 1117 343 1117 q 544 1100 486 1117 q 643 1050 602 1082 q 707 970 684 1017 q 729 864 729 923 q 714 787 729 819 q 682 729 700 755 q 649 680 664 703 q 635 631 635 657 q 651 580 635 600 q 694 545 667 559 q 754 518 720 530 q 824 491 788 506 q 893 457 859 477 q 954 408 927 438 q 996 336 980 378 q 1013 233 1013 294 q 987 119 1013 170 q 918 32 961 68 q 818 -23 875 -4 q 697 -43 760 -43 q 589 -27 640 -43 q 498 16 537 -12 q 436 82 459 44 q 414 164 414 120 q 425 222 414 197 q 455 263 435 247 q 500 288 474 279 q 557 296 526 296 q 602 291 579 296 q 644 277 624 286 q 679 254 663 267 q 704 222 694 240 q 694 224 699 224 q 684 225 689 225 q 660 217 669 225 q 652 192 652 210 q 667 160 652 173 q 701 147 682 147 q 722 152 712 147 q 738 164 731 157 q 749 182 745 172 q 753 201 753 191 q 741 239 753 219 q 707 273 728 260 q 626 319 664 300 q 556 355 589 338 q 499 389 524 372 q 456 428 473 406 q 429 482 438 451 q 419 557 419 513 z "},"":{"ha":717,"x_min":58,"x_max":684,"o":"m 256 631 q 242 631 250 631 q 227 632 235 631 q 207 632 218 632 q 165 631 188 632 q 119 627 143 630 q 133 696 128 663 q 140 756 138 730 q 143 814 143 787 q 142 838 143 825 q 141 866 142 850 q 139 900 140 882 q 94 850 116 878 q 58 794 72 822 l 64 981 q 110 977 85 979 q 160 975 134 975 q 238 978 199 975 q 310 986 276 981 l 318 798 q 279 860 300 831 q 233 909 257 890 q 229 836 229 877 q 236 734 229 787 q 256 631 242 681 m 468 632 q 458 633 464 632 q 447 633 454 633 q 431 633 439 633 q 388 632 413 633 q 330 625 362 631 q 349 731 343 680 q 354 832 354 783 q 350 915 354 876 q 340 987 347 954 q 386 981 366 982 q 421 979 406 979 q 436 980 430 979 q 448 981 443 980 q 457 982 453 981 q 479 887 467 934 q 510 793 491 840 q 534 889 526 842 q 546 987 543 937 q 593 981 572 982 q 629 979 614 979 q 646 980 639 979 q 658 981 652 980 q 668 982 664 981 q 660 925 663 958 q 657 854 657 892 q 664 741 657 800 q 684 632 670 682 q 673 633 679 632 q 660 633 667 633 q 643 633 652 633 q 598 632 624 633 q 541 625 572 631 q 551 657 547 637 q 557 697 555 676 q 561 740 559 719 q 562 779 562 762 q 549 748 555 764 q 535 714 543 732 q 520 676 528 696 q 504 631 513 656 q 488 676 495 656 q 473 714 480 696 q 460 748 467 732 q 447 779 454 764 q 455 703 450 741 q 468 632 460 665 z "},"":{"ha":818,"x_min":28,"x_max":789,"o":"m 765 1044 q 713 962 739 1004 q 663 875 688 920 q 716 792 692 838 q 755 692 739 746 q 780 579 772 639 q 789 454 789 519 q 766 261 789 351 q 696 103 743 170 q 577 -4 649 35 q 408 -43 506 -43 q 315 -32 358 -43 q 235 -1 271 -21 l 197 -79 q 170 -72 185 -75 q 137 -67 154 -69 q 101 -64 119 -65 q 65 -64 82 -64 l 36 -64 q 82 5 58 -33 q 132 86 106 42 q 53 250 79 155 q 28 454 28 345 q 42 601 28 530 q 81 732 56 671 q 142 844 106 793 q 219 929 177 894 q 310 985 262 965 q 408 1004 357 1004 q 488 994 450 1004 q 561 964 526 983 q 580 1005 570 985 q 599 1044 589 1025 q 614 1040 605 1042 q 634 1038 624 1039 q 655 1037 645 1037 q 672 1036 665 1036 q 693 1037 682 1036 q 718 1039 705 1038 q 743 1041 731 1040 q 765 1044 755 1043 m 307 513 q 309 472 307 492 q 314 436 311 453 q 384 583 349 509 q 452 726 419 656 q 408 749 431 749 q 370 727 388 749 q 337 672 351 706 q 315 596 323 638 q 307 513 307 554 m 511 513 q 507 579 511 547 q 448 453 477 516 q 389 328 418 391 q 398 325 393 326 q 408 325 403 325 q 451 339 431 325 q 483 379 470 354 q 504 438 496 404 q 511 513 511 473 z "},"":{"ha":700,"x_min":25,"x_max":675,"o":"m 673 842 q 625 770 648 806 q 579 699 602 735 q 622 632 604 668 q 652 556 640 595 q 669 476 663 517 q 675 396 675 435 q 669 310 675 357 q 648 215 663 262 q 610 122 634 167 q 549 42 585 77 q 463 -14 513 7 q 346 -35 412 -35 q 280 -29 310 -35 q 224 -12 250 -23 l 195 -79 q 167 -72 182 -75 q 134 -67 151 -69 q 98 -64 117 -65 q 62 -64 79 -64 l 33 -64 l 117 66 q 72 140 90 100 q 44 223 54 180 q 29 310 33 267 q 25 392 25 353 q 45 542 25 469 q 107 673 66 616 q 212 766 149 731 q 359 802 275 802 q 422 795 393 802 q 478 778 452 789 q 492 809 486 793 q 507 842 498 825 q 523 838 513 839 q 543 835 532 836 q 563 834 553 834 q 581 833 573 833 q 602 834 590 833 q 626 836 614 835 q 651 839 639 837 q 673 842 663 840 m 264 382 q 264 356 264 370 q 267 326 264 342 q 336 463 306 399 q 392 586 366 526 q 374 600 385 595 q 353 606 364 606 q 321 593 334 606 q 297 562 307 581 q 281 517 288 542 q 271 468 275 492 q 266 420 267 443 q 264 382 264 397 m 439 374 q 438 404 439 386 q 435 441 437 422 q 378 326 406 385 q 321 204 350 267 q 350 196 333 196 q 393 215 376 196 q 420 261 410 234 q 435 319 431 289 q 439 374 439 350 z "},"":{"ha":1185,"x_min":29,"x_max":1161,"o":"m 1156 631 q 1141 532 1156 580 q 1090 446 1126 484 q 991 387 1053 409 q 833 364 929 364 q 847 309 836 331 q 874 273 859 286 q 907 252 890 259 q 940 243 925 245 q 965 240 955 240 q 975 240 975 240 q 1050 262 1017 245 q 1078 279 1064 269 q 1103 304 1092 290 q 1121 337 1114 319 q 1129 380 1128 356 q 1154 298 1147 336 q 1161 227 1161 260 q 1139 114 1161 165 q 1079 26 1118 63 q 987 -32 1040 -12 q 871 -53 934 -53 q 768 -37 819 -53 q 675 14 718 -21 q 682 -17 678 -2 q 689 -47 685 -32 q 631 -33 664 -40 q 561 -23 602 -28 q 465 -17 519 -18 l 464 187 q 436 93 454 135 q 394 22 418 52 q 339 -22 369 -7 q 275 -37 309 -37 q 228 -32 254 -37 q 174 -11 201 -26 q 120 31 146 4 q 74 101 94 58 q 41 206 54 144 q 29 351 29 267 q 52 546 29 465 q 111 679 75 627 q 191 754 147 730 q 275 778 234 778 q 339 768 311 778 q 391 743 368 758 q 429 709 413 728 q 456 671 446 690 q 450 720 454 694 q 440 774 446 746 q 530 762 484 765 q 614 760 575 760 q 688 762 660 760 q 718 764 705 762 q 712 737 715 751 q 707 707 710 722 q 822 777 758 753 q 956 800 886 800 q 1031 791 995 800 q 1095 762 1067 783 q 1139 710 1123 742 q 1156 631 1156 677 m 452 379 l 452 489 q 450 526 452 507 q 440 561 448 545 q 420 586 433 576 q 383 596 406 596 q 355 583 367 596 q 336 550 344 570 q 324 505 329 530 q 317 455 319 479 q 315 409 315 430 q 314 375 314 387 q 316 330 314 357 q 323 278 317 303 q 342 236 330 254 q 376 218 355 218 q 416 235 401 218 q 438 277 431 252 q 449 330 446 302 q 452 379 452 357 m 943 521 q 975 579 975 552 q 964 604 975 595 q 936 614 953 614 q 911 608 924 614 q 885 591 899 603 q 859 560 870 578 q 840 523 848 545 q 831 476 832 502 q 877 484 856 477 q 912 499 897 491 q 943 521 930 509 z "},"":{"ha":1088,"x_min":25,"x_max":1064,"o":"m 1059 631 q 1044 532 1059 580 q 993 446 1029 484 q 894 387 956 409 q 736 364 831 364 q 750 309 739 331 q 777 273 761 286 q 810 252 792 259 q 842 243 827 245 q 867 240 857 240 q 878 240 877 240 q 953 262 920 245 q 981 279 967 269 q 1005 304 994 290 q 1024 337 1017 319 q 1032 380 1031 356 q 1057 298 1050 336 q 1064 227 1064 260 q 1042 114 1064 165 q 982 26 1021 63 q 890 -32 943 -12 q 774 -53 837 -53 q 654 -30 713 -53 q 549 41 595 -7 q 462 -14 512 7 q 346 -35 412 -35 q 230 -15 279 -35 q 144 38 180 5 q 85 114 109 71 q 49 204 62 157 q 30 300 35 252 q 25 392 25 349 q 45 542 25 469 q 107 673 66 616 q 212 766 149 731 q 359 802 275 802 q 494 770 437 802 q 589 688 550 739 q 712 771 644 742 q 859 800 781 800 q 934 791 898 800 q 998 762 970 783 q 1042 710 1025 742 q 1059 631 1059 677 m 439 374 q 438 413 439 389 q 433 462 437 436 q 424 513 430 488 q 409 559 418 539 q 386 593 399 580 q 353 606 372 606 q 321 593 334 606 q 297 562 307 581 q 281 517 288 542 q 271 468 275 492 q 266 420 267 443 q 264 382 264 397 q 267 328 264 359 q 280 267 271 296 q 306 217 290 237 q 350 196 323 196 q 393 215 376 196 q 420 261 410 234 q 435 319 431 289 q 439 374 439 350 m 846 521 q 870 551 863 536 q 878 579 878 566 q 867 604 878 595 q 839 614 856 614 q 787 591 814 614 q 761 560 772 578 q 743 523 751 545 q 733 476 734 502 q 779 484 758 477 q 814 499 800 491 q 846 521 832 509 z "},"":{"ha":782,"x_min":25,"x_max":764,"o":"m 728 774 q 715 712 728 740 q 680 665 703 685 q 628 635 658 646 q 562 624 597 624 q 496 633 524 624 q 450 657 469 643 q 420 690 431 672 q 404 725 410 708 q 396 756 398 742 q 395 778 395 770 q 414 761 403 764 q 432 757 425 757 q 459 767 451 757 q 467 789 467 777 q 464 804 467 796 q 453 820 460 812 q 432 831 445 827 q 399 836 418 836 q 371 831 385 836 q 345 815 357 826 q 326 789 333 805 q 318 753 318 774 q 327 712 318 732 q 350 675 335 692 q 384 643 364 657 q 428 619 404 629 q 505 589 465 604 q 582 556 545 574 q 652 516 619 538 q 710 462 685 493 q 749 389 734 431 q 764 292 764 347 q 731 147 764 212 q 645 35 699 81 q 520 -37 591 -12 q 372 -62 450 -62 q 239 -42 302 -62 q 129 15 176 -21 q 53 99 81 51 q 25 204 25 148 q 39 277 25 245 q 76 329 52 308 q 133 359 100 349 q 201 370 165 370 q 257 363 230 370 q 309 346 285 357 q 352 317 333 334 q 383 278 372 300 q 358 282 369 282 q 329 271 340 282 q 318 239 318 260 q 323 217 318 227 q 337 200 329 208 q 357 189 346 193 q 380 184 368 184 q 406 190 394 184 q 426 205 417 196 q 439 227 435 215 q 444 250 444 238 q 430 298 444 274 q 387 342 415 323 q 288 398 334 374 q 201 443 241 422 q 131 486 162 465 q 77 536 99 508 q 43 603 55 565 q 32 696 32 642 q 57 818 32 761 q 130 917 82 875 q 247 984 178 960 q 404 1008 316 1008 q 555 987 493 1008 q 655 932 616 966 q 710 856 693 898 q 728 774 728 814 m 627 1267 q 578 1220 602 1246 q 533 1163 554 1194 q 495 1101 512 1133 q 469 1039 479 1069 q 432 1044 451 1043 q 395 1044 412 1044 q 350 1043 372 1044 q 306 1039 328 1042 q 280 1099 295 1067 q 246 1162 264 1131 q 206 1220 227 1192 q 163 1270 185 1248 q 252 1301 208 1283 q 339 1339 296 1319 q 341 1288 339 1315 q 349 1234 344 1261 q 363 1182 354 1207 q 385 1137 372 1157 q 420 1215 406 1174 q 433 1297 433 1255 q 433 1318 433 1308 q 431 1339 432 1329 q 527 1298 475 1315 q 627 1267 578 1282 z "},"":{"ha":633,"x_min":21,"x_max":619,"o":"m 590 616 q 579 568 590 589 q 550 531 568 546 q 507 507 532 515 q 456 498 483 498 q 402 506 425 498 q 365 525 380 513 q 341 552 350 537 q 327 580 332 566 q 321 605 322 593 q 319 623 319 616 q 335 608 326 611 q 350 606 345 606 q 372 614 366 606 q 379 631 379 622 q 376 643 379 636 q 367 655 374 650 q 349 665 360 661 q 322 669 338 669 q 300 665 312 669 q 280 653 289 661 q 264 632 271 644 q 258 603 258 619 q 274 551 258 572 q 315 514 290 530 q 373 485 340 498 q 439 457 405 471 q 505 424 473 442 q 563 380 537 406 q 604 319 588 355 q 619 233 619 283 q 593 119 619 170 q 525 32 568 68 q 425 -23 481 -4 q 304 -43 368 -43 q 195 -27 247 -43 q 105 16 144 -12 q 44 82 66 44 q 21 164 21 120 q 32 222 21 197 q 62 263 43 247 q 107 288 81 279 q 164 296 134 296 q 209 291 186 296 q 251 277 231 286 q 286 254 271 267 q 311 222 302 240 q 301 224 306 224 q 290 225 296 225 q 267 217 275 225 q 258 192 258 210 q 274 160 258 173 q 309 147 290 147 q 329 152 319 147 q 345 164 338 157 q 356 182 352 172 q 359 201 359 191 q 348 239 359 219 q 314 273 336 260 q 233 319 271 300 q 163 355 195 338 q 106 389 132 372 q 63 428 81 406 q 36 482 45 451 q 26 557 26 513 q 47 653 26 609 q 106 730 68 698 q 201 782 145 763 q 329 800 258 800 q 451 783 401 800 q 532 740 501 766 q 576 681 563 713 q 590 616 590 648 m 553 1062 q 504 1015 528 1042 q 459 959 480 989 q 421 897 438 928 q 395 834 405 865 q 358 839 377 838 q 321 840 338 840 q 276 839 298 840 q 232 834 254 838 q 206 895 221 863 q 172 957 191 926 q 132 1015 153 987 q 89 1065 111 1043 q 178 1096 134 1078 q 265 1134 222 1114 q 268 1083 265 1110 q 275 1029 270 1057 q 289 977 280 1002 q 311 932 298 952 q 346 1010 332 969 q 359 1093 359 1050 q 359 1113 359 1103 q 357 1134 358 1124 q 453 1094 401 1110 q 553 1062 504 1077 z "},"":{"ha":774,"x_min":-4,"x_max":758,"o":"m 758 962 q 743 913 749 941 q 731 854 736 885 q 722 792 726 824 q 717 730 719 760 q 710 583 711 659 q 711 515 710 550 q 711 444 711 480 q 707 330 711 387 q 690 219 703 272 q 650 120 676 166 q 578 40 623 74 q 467 -14 533 6 q 307 -33 401 -33 q 184 -16 236 -33 q 99 31 132 1 q 49 99 65 60 q 33 182 33 138 q 47 243 33 214 q 83 292 60 271 q 135 325 106 313 q 196 336 165 336 q 273 315 236 336 q 339 248 311 294 q 325 250 332 249 q 311 250 317 250 q 262 208 262 250 q 280 176 262 189 q 329 164 298 164 q 389 184 366 164 q 424 233 412 203 q 440 299 436 263 q 444 367 444 334 l 444 396 q 414 375 431 382 q 378 362 396 367 q 342 357 359 358 q 314 355 326 355 q 232 366 273 355 q 158 407 191 377 q 102 490 124 437 q 78 628 81 543 q 78 654 78 631 q 75 710 77 677 q 67 784 73 744 q 53 863 62 824 q 30 934 44 901 q -4 986 16 967 q 124 969 68 974 q 224 964 181 964 q 282 965 257 964 q 323 970 307 967 q 355 977 342 972 q 348 918 352 949 q 341 856 345 887 q 337 792 338 824 q 335 730 335 760 q 338 667 335 696 q 347 615 340 637 q 364 581 353 593 q 390 568 374 568 q 422 589 409 568 q 444 643 435 610 q 455 719 452 677 q 458 803 458 761 q 455 896 458 852 q 446 968 451 941 q 477 960 458 963 q 522 955 494 957 q 590 953 549 953 q 664 955 623 953 q 758 962 706 957 m 463 1000 l 328 1060 q 405 1175 369 1120 q 436 1222 420 1198 q 466 1269 452 1246 q 491 1312 479 1292 q 509 1347 503 1333 q 561 1313 530 1331 q 619 1279 591 1295 q 687 1242 652 1261 l 463 1000 z "},"":{"ha":728,"x_min":14,"x_max":703,"o":"m 703 779 q 690 711 695 751 q 681 625 685 671 q 674 528 677 578 q 670 431 672 478 q 665 195 666 319 q 657 58 665 125 q 630 -69 648 -9 q 582 -180 611 -129 q 510 -268 552 -231 q 411 -326 467 -305 q 285 -347 355 -347 q 171 -334 219 -347 q 91 -295 123 -320 q 44 -236 60 -271 q 29 -160 29 -201 q 43 -85 29 -119 q 81 -28 58 -52 q 133 7 104 -5 q 192 20 162 20 q 264 -2 230 20 q 315 -71 298 -24 q 306 -66 311 -67 q 296 -65 301 -65 q 280 -68 288 -65 q 267 -78 273 -72 q 257 -92 260 -84 q 253 -109 253 -100 q 257 -126 253 -119 q 267 -137 261 -133 q 280 -143 273 -141 q 293 -144 287 -144 q 317 -140 302 -144 q 346 -123 331 -136 q 377 -87 361 -111 q 404 -26 392 -64 q 423 67 416 12 q 429 199 430 122 q 392 122 412 151 q 352 76 373 92 q 307 54 330 60 q 257 49 283 49 q 188 61 224 49 q 121 103 151 73 q 71 185 91 133 q 52 318 52 237 q 52 333 52 329 q 52 340 52 338 q 53 346 52 342 q 54 359 54 349 q 54 387 54 369 q 54 439 54 406 q 53 526 54 477 q 47 622 52 575 q 35 707 43 669 q 14 764 26 745 q 117 751 68 754 q 205 747 165 747 q 253 748 232 747 q 290 751 275 749 q 322 754 308 752 q 310 710 317 743 q 298 632 304 677 q 288 533 292 587 q 283 424 283 479 q 290 353 283 382 q 306 306 296 324 q 331 278 317 287 q 361 269 345 269 q 402 290 387 269 q 428 343 417 311 q 423 441 427 385 q 414 559 420 498 q 399 682 408 620 q 376 798 390 744 q 427 784 397 790 q 488 775 452 779 q 572 771 524 771 q 703 779 630 771 m 410 827 l 275 887 q 353 1002 317 947 q 384 1049 368 1025 q 413 1096 399 1074 q 439 1139 427 1119 q 457 1174 450 1160 q 508 1140 478 1158 q 567 1106 538 1122 q 635 1069 600 1088 l 410 827 z "},"":{"ha":747,"x_min":1,"x_max":732,"o":"m 732 990 q 697 896 721 950 q 643 776 673 841 q 576 640 612 711 q 507 494 541 568 q 444 347 473 420 q 395 207 414 274 q 479 227 437 216 q 562 255 522 239 q 641 294 602 271 q 715 350 680 317 q 709 279 711 314 q 707 210 707 244 q 712 97 707 153 q 730 -14 718 41 q 555 5 646 -1 q 371 11 464 11 q 183 5 276 11 q 1 -14 90 -1 q 181 385 87 195 q 379 747 275 574 q 207 716 294 743 q 37 643 120 689 q 46 717 43 681 q 49 789 49 753 q 43 886 49 838 q 24 981 37 934 q 175 968 97 972 q 334 964 253 964 q 537 971 436 964 q 732 990 637 978 m 599 1234 q 550 1187 574 1213 q 505 1130 526 1160 q 468 1068 484 1100 q 441 1006 451 1036 q 404 1010 423 1010 q 367 1011 385 1011 q 322 1010 344 1011 q 278 1006 300 1009 q 252 1066 267 1034 q 218 1128 237 1098 q 178 1187 199 1159 q 135 1236 157 1215 q 224 1268 180 1250 q 311 1305 269 1286 q 314 1255 311 1282 q 321 1201 316 1228 q 335 1149 326 1174 q 357 1104 344 1124 q 392 1181 378 1141 q 406 1264 406 1222 q 405 1285 406 1274 q 403 1305 404 1295 q 499 1265 448 1282 q 599 1234 550 1249 z "},"":{"ha":616,"x_min":-1,"x_max":590,"o":"m 590 791 q 550 687 576 743 q 491 565 524 631 q 424 423 459 498 q 358 262 389 348 q 414 270 385 262 q 472 292 443 277 q 531 331 502 307 q 589 390 561 355 q 584 342 586 369 q 579 284 581 315 q 576 222 577 254 q 575 158 575 190 q 578 65 575 109 q 589 -11 581 20 q 447 4 519 -1 q 298 9 374 9 q 145 4 221 9 q -1 -11 70 -1 q 71 154 33 73 q 145 313 109 236 q 214 462 181 391 q 273 596 248 533 q 209 588 239 594 q 150 572 178 582 q 91 547 121 562 q 28 514 61 532 q 50 677 50 595 q 48 733 50 706 q 41 785 46 760 q 161 774 101 777 q 282 771 221 771 q 437 776 359 771 q 590 791 514 781 m 543 1049 q 494 1002 518 1029 q 450 946 471 976 q 412 884 429 916 q 385 821 395 852 q 348 826 368 825 q 311 827 329 827 q 266 826 288 827 q 222 821 244 825 q 196 882 212 850 q 162 944 181 913 q 123 1002 144 975 q 79 1052 102 1030 q 169 1083 124 1065 q 256 1121 213 1101 q 258 1070 256 1097 q 266 1017 260 1044 q 279 964 271 989 q 302 920 288 939 q 336 997 323 956 q 350 1080 350 1038 q 349 1100 350 1090 q 347 1121 349 1111 q 443 1081 392 1097 q 543 1049 494 1064 z "},"":{"ha":794,"x_min":-11,"x_max":825,"o":"m 825 -8 q 744 -1 783 -3 q 665 1 705 1 q 444 -20 557 1 q 453 9 448 -3 q 463 37 458 22 q 469 73 467 52 q 472 125 472 93 q 467 187 472 157 q 453 239 463 216 q 430 275 444 262 q 397 289 416 289 q 363 277 377 289 q 341 243 349 264 q 329 195 332 222 q 325 138 325 168 q 329 85 325 107 q 337 47 332 63 q 347 18 342 31 q 354 -7 352 5 q 262 1 307 -1 q 172 4 217 4 q 82 1 127 4 q -11 -7 37 -1 q 63 235 31 115 q 117 477 94 355 q 153 722 139 598 q 174 977 167 846 q 284 967 224 970 q 407 964 344 964 q 511 966 460 964 q 604 978 562 969 q 629 723 609 848 q 678 474 648 597 q 745 231 707 351 q 825 -8 783 111 m 446 518 q 437 556 444 531 q 419 613 431 578 q 383 705 407 649 q 371 643 378 670 q 358 593 364 615 q 348 553 352 571 q 343 518 343 534 q 359 466 343 484 q 395 447 375 447 q 430 467 416 447 q 446 518 444 488 m 160 1136 q 169 1179 160 1159 q 193 1214 178 1199 q 228 1238 208 1230 q 271 1247 248 1247 q 314 1238 294 1247 q 350 1214 334 1230 q 374 1179 365 1199 q 382 1136 382 1159 q 374 1093 382 1113 q 350 1058 365 1073 q 314 1034 334 1042 q 271 1025 294 1025 q 228 1034 248 1025 q 193 1058 208 1042 q 169 1093 178 1073 q 160 1136 160 1113 m 432 1136 q 441 1179 432 1159 q 465 1214 450 1199 q 500 1238 480 1230 q 543 1247 520 1247 q 586 1238 566 1247 q 622 1214 606 1230 q 646 1179 637 1199 q 654 1136 654 1159 q 646 1093 654 1113 q 622 1058 637 1073 q 586 1034 606 1042 q 543 1025 566 1025 q 500 1034 520 1025 q 465 1058 480 1042 q 441 1093 450 1073 q 432 1136 432 1113 z "},"":{"ha":794,"x_min":-11,"x_max":825,"o":"m 554 1040 q 552 1006 554 1025 q 542 970 549 987 q 604 978 575 972 q 629 723 609 848 q 678 474 648 597 q 745 231 707 351 q 825 -8 783 111 q 744 -1 783 -3 q 665 1 705 1 q 444 -20 557 1 q 453 9 448 -3 q 463 37 458 22 q 469 73 467 52 q 472 125 472 93 q 467 187 472 157 q 453 239 463 216 q 430 275 444 262 q 397 289 416 289 q 363 277 377 289 q 341 243 349 264 q 329 195 332 222 q 325 138 325 168 q 329 85 325 107 q 337 47 332 63 q 347 18 342 31 q 354 -7 352 5 q 262 1 307 -1 q 172 4 217 4 q 82 1 127 4 q -11 -7 37 -1 q 63 235 31 115 q 117 477 94 355 q 153 722 139 598 q 174 977 167 846 q 202 973 187 975 q 235 970 218 971 q 227 1005 229 987 q 225 1040 225 1023 q 231 1093 225 1064 q 255 1145 237 1121 q 304 1186 273 1170 q 389 1203 336 1203 q 474 1186 441 1203 q 524 1145 506 1170 q 548 1093 542 1121 q 554 1040 554 1064 m 446 518 q 437 556 444 531 q 419 613 431 578 q 383 705 407 649 q 371 643 378 670 q 358 593 364 615 q 348 553 352 571 q 343 518 343 534 q 359 466 343 484 q 395 447 375 447 q 430 467 416 447 q 446 518 444 488 m 450 1044 q 448 1064 450 1053 q 440 1083 446 1074 q 423 1098 434 1092 q 393 1104 412 1104 q 363 1098 375 1104 q 346 1083 352 1092 q 337 1064 340 1074 q 335 1044 335 1053 q 337 1024 335 1035 q 345 1005 338 1014 q 362 990 351 996 q 393 985 374 985 q 421 991 410 985 q 439 1006 433 997 q 448 1025 446 1015 q 450 1044 450 1036 z "},"":{"ha":785,"x_min":26,"x_max":764,"o":"m 509 -175 q 487 -248 509 -222 q 432 -286 465 -273 q 359 -300 399 -298 q 283 -302 319 -302 q 289 -273 287 -288 q 290 -241 290 -258 q 289 -216 290 -229 q 283 -191 288 -202 q 297 -198 288 -195 q 316 -203 306 -201 q 336 -207 326 -205 q 351 -208 346 -208 q 385 -200 370 -208 q 400 -170 400 -191 q 395 -151 400 -159 q 380 -138 389 -143 q 361 -131 372 -134 q 342 -129 351 -129 q 318 -131 330 -129 q 294 -136 306 -132 l 334 -29 q 202 30 260 -15 q 106 140 145 75 q 47 284 67 205 q 26 446 26 363 q 41 579 26 511 q 82 708 55 646 q 147 825 109 770 q 234 919 185 879 q 341 983 283 960 q 465 1006 399 1006 q 570 992 525 1006 q 649 955 616 978 q 704 901 682 931 q 740 840 726 871 q 758 776 753 808 q 764 718 764 745 q 752 649 764 685 q 718 585 741 614 q 663 537 696 555 q 587 518 630 518 q 525 531 551 518 q 482 564 498 543 q 457 612 465 585 q 449 667 449 638 q 456 722 449 695 q 478 770 463 749 q 489 748 482 755 q 503 736 496 740 q 521 732 511 732 q 552 743 543 732 q 561 770 561 755 q 558 784 561 777 q 550 797 555 791 q 534 807 544 803 q 511 811 525 811 q 490 809 504 811 q 459 799 476 807 q 425 773 442 790 q 392 727 407 756 q 369 654 378 698 q 359 549 359 611 q 368 474 359 506 q 390 420 376 443 q 421 384 404 398 q 457 361 439 370 q 493 350 475 353 q 524 347 510 347 q 568 354 541 347 q 621 377 595 360 q 669 424 648 394 q 699 501 690 454 q 735 422 722 468 q 747 325 747 376 q 724 191 747 253 q 656 80 701 128 q 548 3 612 33 q 406 -33 485 -27 l 397 -64 q 443 -72 422 -64 q 478 -95 463 -80 q 500 -130 492 -110 q 509 -175 509 -151 z "},"":{"ha":699,"x_min":28,"x_max":673,"o":"m 673 -9 q 601 1 638 -3 q 523 7 564 5 q 436 9 482 9 q 335 9 389 9 q 274 9 309 9 q 197 5 238 8 q 113 -2 156 3 q 28 -16 69 -7 q 54 61 43 15 q 72 160 64 108 q 83 267 79 212 q 89 368 87 321 q 91 449 91 414 q 92 496 92 483 q 91 517 92 498 q 90 564 91 535 q 88 631 90 593 q 84 709 87 669 q 78 791 82 750 q 70 870 75 833 q 58 936 64 907 q 43 983 52 966 q 174 969 109 974 q 298 965 238 965 q 437 969 372 965 q 549 979 501 973 q 652 993 606 985 l 652 675 q 576 731 612 711 q 513 760 541 751 q 452 772 480 771 q 396 764 418 772 q 363 742 375 755 q 347 712 351 729 q 343 679 343 696 q 348 644 343 661 q 364 612 353 626 q 392 588 375 597 q 433 579 410 579 q 469 588 453 579 q 497 609 486 597 q 522 639 511 622 l 522 363 q 497 404 511 389 q 468 426 482 418 q 443 434 454 433 q 428 436 432 436 q 362 409 384 436 q 340 339 340 382 q 348 286 340 308 q 367 251 355 264 q 394 231 378 237 q 428 225 410 225 q 486 237 455 225 q 546 270 517 250 q 599 316 575 290 q 637 370 623 342 l 673 -9 m 421 1008 l 286 1068 q 363 1183 328 1128 q 394 1230 378 1206 q 424 1277 410 1255 q 450 1320 438 1300 q 468 1355 461 1341 q 519 1321 489 1339 q 578 1287 549 1303 q 646 1250 610 1269 l 421 1008 z "},"":{"ha":897,"x_min":25,"x_max":871,"o":"m 419 4 q 389 7 406 5 q 353 9 374 8 q 304 9 332 9 q 181 5 252 9 q 25 -14 110 0 q 51 64 40 17 q 69 164 62 111 q 80 272 76 217 q 86 374 84 327 q 89 456 88 422 q 89 504 89 491 q 89 525 89 507 q 87 572 88 543 q 85 639 87 602 q 82 718 84 677 q 76 800 79 758 q 67 878 72 841 q 55 944 62 914 q 40 990 49 973 q 165 974 109 978 q 265 970 221 970 q 318 971 295 970 q 357 974 342 972 q 390 978 376 976 q 456 711 419 834 q 541 484 494 589 l 541 511 q 533 718 538 622 q 527 800 530 758 q 518 878 524 841 q 507 944 513 914 q 492 990 500 973 q 617 974 559 978 q 718 970 674 970 q 771 971 748 970 q 810 974 795 972 q 843 978 829 976 q 829 893 835 940 q 818 793 823 846 q 811 682 813 741 q 808 562 808 624 q 812 420 808 492 q 823 276 815 348 q 843 136 831 205 q 871 4 854 67 q 842 7 859 5 q 807 9 827 8 q 761 9 787 9 q 648 5 712 9 q 511 -14 585 0 q 500 123 511 56 q 469 255 489 190 q 420 382 448 319 q 357 505 391 444 q 362 376 357 441 q 374 248 366 311 q 393 122 382 184 q 419 4 404 61 m 709 1137 q 674 1096 690 1114 q 639 1065 657 1078 q 599 1045 621 1052 q 549 1038 577 1038 q 509 1046 525 1038 q 477 1065 492 1055 q 447 1083 463 1075 q 408 1092 431 1092 q 370 1084 387 1092 q 341 1063 353 1076 q 322 1033 330 1050 q 310 999 314 1017 q 262 1072 290 1039 q 196 1122 235 1105 q 241 1170 221 1149 q 281 1203 261 1190 q 324 1223 302 1217 q 376 1230 347 1230 q 415 1221 397 1230 q 448 1204 432 1213 q 477 1186 463 1194 q 507 1178 492 1178 q 535 1185 522 1178 q 556 1204 547 1193 q 571 1230 566 1216 q 579 1257 577 1244 q 606 1225 590 1243 q 638 1191 621 1208 q 674 1159 656 1173 q 709 1137 692 1144 z "},"":{"ha":818,"x_min":28,"x_max":789,"o":"m 789 454 q 766 261 789 351 q 696 103 743 170 q 577 -4 649 35 q 408 -43 506 -43 q 240 -4 311 -43 q 121 103 168 35 q 51 261 74 170 q 28 454 28 351 q 42 601 28 530 q 81 732 56 671 q 142 844 106 793 q 219 929 177 894 q 310 985 262 965 q 408 1004 357 1004 q 564 963 494 1004 q 684 847 634 921 q 761 673 734 773 q 789 454 789 572 m 511 513 q 503 607 511 564 q 481 681 495 650 q 448 731 467 713 q 408 749 429 749 q 370 727 388 749 q 337 672 351 706 q 315 596 323 638 q 307 513 307 554 q 314 438 307 473 q 334 379 321 404 q 366 339 347 354 q 408 325 385 325 q 451 339 431 325 q 483 379 470 354 q 504 438 496 404 q 511 513 511 473 m 161 1147 q 170 1191 161 1171 q 194 1226 179 1211 q 230 1250 210 1241 q 273 1259 250 1259 q 316 1250 296 1259 q 351 1226 336 1241 q 375 1191 366 1211 q 384 1147 384 1171 q 375 1104 384 1124 q 351 1069 366 1084 q 316 1045 336 1054 q 273 1036 296 1036 q 230 1045 250 1036 q 194 1069 210 1054 q 170 1104 179 1084 q 161 1147 161 1124 m 433 1147 q 442 1191 433 1171 q 466 1226 451 1211 q 502 1250 481 1241 q 545 1259 522 1259 q 588 1250 568 1259 q 623 1226 608 1241 q 647 1191 638 1211 q 656 1147 656 1171 q 647 1104 656 1124 q 623 1069 638 1084 q 588 1045 608 1054 q 545 1036 568 1036 q 502 1045 522 1036 q 466 1069 481 1054 q 442 1104 451 1084 q 433 1147 433 1124 z "},"":{"ha":814,"x_min":11,"x_max":791,"o":"m 791 978 q 766 791 776 900 q 757 557 757 682 q 757 523 757 539 q 758 488 758 506 q 759 452 759 471 q 760 411 760 433 q 756 314 760 366 q 739 212 752 262 q 703 114 726 161 q 639 31 679 66 q 541 -26 600 -5 q 401 -47 483 -47 q 270 -30 325 -47 q 176 17 214 -13 q 114 88 138 47 q 77 176 90 129 q 60 274 64 223 q 56 375 56 325 q 56 413 56 397 q 57 440 56 428 q 58 466 58 453 q 60 496 59 479 q 61 539 60 514 q 61 602 61 564 q 59 705 61 647 q 52 818 58 762 q 37 921 47 874 q 11 990 27 967 q 139 974 79 978 q 250 970 199 970 q 309 971 283 970 q 355 974 336 972 q 393 978 377 976 q 376 884 385 936 q 360 772 367 831 q 349 646 353 712 q 345 513 345 581 q 348 375 345 428 q 357 293 351 322 q 375 252 364 263 q 401 241 386 241 q 437 255 422 241 q 461 299 452 268 q 476 382 471 331 q 481 511 480 434 q 474 718 479 622 q 468 800 472 758 q 459 878 465 841 q 448 944 454 914 q 432 990 441 973 q 557 974 500 978 q 661 970 615 970 q 716 971 692 970 q 757 974 740 972 q 791 978 777 976 m 154 1140 q 163 1183 154 1163 q 187 1218 172 1203 q 222 1242 202 1234 q 265 1251 242 1251 q 308 1242 288 1251 q 343 1218 328 1234 q 368 1183 359 1203 q 376 1140 376 1163 q 368 1097 376 1117 q 343 1062 359 1077 q 308 1038 328 1046 q 265 1029 288 1029 q 222 1038 242 1029 q 187 1062 202 1046 q 163 1097 172 1077 q 154 1140 154 1117 m 426 1140 q 435 1183 426 1163 q 459 1218 444 1203 q 494 1242 474 1234 q 537 1251 514 1251 q 580 1242 560 1251 q 615 1218 600 1234 q 640 1183 631 1203 q 648 1140 648 1163 q 640 1097 648 1117 q 615 1062 631 1077 q 580 1038 600 1046 q 537 1029 560 1029 q 494 1038 514 1029 q 459 1062 474 1046 q 435 1097 444 1077 q 426 1140 426 1117 z "},"":{"ha":758,"x_min":29,"x_max":730,"o":"m 730 -9 q 701 -7 718 -8 q 666 -5 686 -5 q 623 -4 646 -4 q 548 -7 589 -4 q 465 -17 508 -9 l 468 174 q 392 18 442 73 q 275 -37 342 -37 q 228 -32 254 -37 q 174 -11 201 -26 q 120 31 146 4 q 74 101 94 58 q 41 206 54 144 q 29 351 29 267 q 52 546 29 465 q 111 679 75 627 q 191 754 147 730 q 275 778 234 778 q 339 768 311 778 q 391 743 368 758 q 429 709 413 728 q 456 671 446 690 q 450 720 454 694 q 440 774 446 746 q 530 762 484 765 q 614 760 575 760 q 688 762 660 760 q 718 764 705 762 q 705 688 711 730 q 694 598 699 646 q 687 497 690 550 q 685 390 685 445 q 695 184 685 288 q 730 -9 705 81 m 452 379 l 452 489 q 450 526 452 507 q 440 561 448 545 q 420 586 433 576 q 383 596 406 596 q 343 579 359 596 q 317 533 327 562 q 303 463 307 503 q 300 375 300 422 q 303 320 300 348 q 316 270 307 292 q 340 233 325 247 q 376 218 355 218 q 416 235 401 218 q 438 277 431 252 q 449 330 446 302 q 452 379 452 357 m 410 813 l 275 873 q 353 988 317 933 q 384 1036 368 1011 q 413 1083 399 1060 q 439 1126 427 1105 q 457 1160 450 1146 q 508 1126 478 1145 q 567 1093 538 1108 q 635 1055 600 1074 l 410 813 z "},"":{"ha":758,"x_min":29,"x_max":730,"o":"m 730 -9 q 701 -7 718 -8 q 666 -5 686 -5 q 623 -4 646 -4 q 548 -7 589 -4 q 465 -17 508 -9 l 468 174 q 392 18 442 73 q 275 -37 342 -37 q 228 -32 254 -37 q 174 -11 201 -26 q 120 31 146 4 q 74 101 94 58 q 41 206 54 144 q 29 351 29 267 q 52 546 29 465 q 111 679 75 627 q 191 754 147 730 q 275 778 234 778 q 339 768 311 778 q 391 743 368 758 q 429 709 413 728 q 456 671 446 690 q 450 720 454 694 q 440 774 446 746 q 530 762 484 765 q 614 760 575 760 q 688 762 660 760 q 718 764 705 762 q 705 688 711 730 q 694 598 699 646 q 687 497 690 550 q 685 390 685 445 q 695 184 685 288 q 730 -9 705 81 m 452 379 l 452 489 q 450 526 452 507 q 440 561 448 545 q 420 586 433 576 q 383 596 406 596 q 343 579 359 596 q 317 533 327 562 q 303 463 307 503 q 300 375 300 422 q 303 320 300 348 q 316 270 307 292 q 340 233 325 247 q 376 218 355 218 q 416 235 401 218 q 438 277 431 252 q 449 330 446 302 q 452 379 452 357 m 321 820 l 96 1062 q 163 1099 130 1081 q 222 1133 192 1115 q 275 1167 253 1152 q 292 1133 281 1153 q 317 1089 303 1112 q 347 1042 331 1067 q 378 995 362 1018 q 455 880 414 940 l 321 820 z "},"":{"ha":758,"x_min":29,"x_max":730,"o":"m 730 -9 q 701 -7 718 -8 q 666 -5 686 -5 q 623 -4 646 -4 q 548 -7 589 -4 q 465 -17 508 -9 l 468 174 q 392 18 442 73 q 275 -37 342 -37 q 228 -32 254 -37 q 174 -11 201 -26 q 120 31 146 4 q 74 101 94 58 q 41 206 54 144 q 29 351 29 267 q 52 546 29 465 q 111 679 75 627 q 191 754 147 730 q 275 778 234 778 q 339 768 311 778 q 391 743 368 758 q 429 709 413 728 q 456 671 446 690 q 450 720 454 694 q 440 774 446 746 q 530 762 484 765 q 614 760 575 760 q 688 762 660 760 q 718 764 705 762 q 705 688 711 730 q 694 598 699 646 q 687 497 690 550 q 685 390 685 445 q 695 184 685 288 q 730 -9 705 81 m 452 379 l 452 489 q 450 526 452 507 q 440 561 448 545 q 420 586 433 576 q 383 596 406 596 q 343 579 359 596 q 317 533 327 562 q 303 463 307 503 q 300 375 300 422 q 303 320 300 348 q 316 270 307 292 q 340 233 325 247 q 376 218 355 218 q 416 235 401 218 q 438 277 431 252 q 449 330 446 302 q 452 379 452 357 m 611 891 q 511 859 562 876 q 415 819 460 842 q 417 840 416 829 q 418 860 418 850 q 404 943 418 902 q 370 1020 391 983 q 347 974 356 1000 q 333 922 338 949 q 326 868 328 895 q 323 819 323 842 q 236 856 281 838 q 147 888 192 874 q 191 937 170 909 q 230 996 212 965 q 264 1058 249 1027 q 290 1118 279 1090 q 334 1115 312 1116 q 379 1113 356 1113 q 416 1114 397 1113 q 453 1118 435 1115 q 480 1056 463 1088 q 517 994 496 1024 q 562 938 538 964 q 611 891 586 911 z "},"":{"ha":758,"x_min":29,"x_max":730,"o":"m 730 -9 q 701 -7 718 -8 q 666 -5 686 -5 q 623 -4 646 -4 q 548 -7 589 -4 q 465 -17 508 -9 l 468 174 q 392 18 442 73 q 275 -37 342 -37 q 228 -32 254 -37 q 174 -11 201 -26 q 120 31 146 4 q 74 101 94 58 q 41 206 54 144 q 29 351 29 267 q 52 546 29 465 q 111 679 75 627 q 191 754 147 730 q 275 778 234 778 q 339 768 311 778 q 391 743 368 758 q 429 709 413 728 q 456 671 446 690 q 450 720 454 694 q 440 774 446 746 q 530 762 484 765 q 614 760 575 760 q 688 762 660 760 q 718 764 705 762 q 705 688 711 730 q 694 598 699 646 q 687 497 690 550 q 685 390 685 445 q 695 184 685 288 q 730 -9 705 81 m 452 379 l 452 489 q 450 526 452 507 q 440 561 448 545 q 420 586 433 576 q 383 596 406 596 q 343 579 359 596 q 317 533 327 562 q 303 463 307 503 q 300 375 300 422 q 303 320 300 348 q 316 270 307 292 q 340 233 325 247 q 376 218 355 218 q 416 235 401 218 q 438 277 431 252 q 449 330 446 302 q 452 379 452 357 m 132 931 q 141 974 132 954 q 165 1009 150 994 q 200 1034 180 1025 q 243 1042 220 1042 q 287 1034 267 1042 q 322 1009 307 1025 q 346 974 337 994 q 355 931 355 954 q 346 888 355 908 q 322 853 337 868 q 287 829 307 838 q 243 820 267 820 q 200 829 220 820 q 165 853 180 838 q 141 888 150 868 q 132 931 132 908 m 404 931 q 413 974 404 954 q 437 1009 422 994 q 472 1034 452 1025 q 515 1042 492 1042 q 558 1034 538 1042 q 594 1009 578 1025 q 618 974 609 994 q 627 931 627 954 q 618 888 627 908 q 594 853 609 868 q 558 829 578 838 q 515 820 538 820 q 472 829 492 820 q 437 853 452 838 q 413 888 422 868 q 404 931 404 908 z "},"":{"ha":758,"x_min":29,"x_max":730,"o":"m 730 -9 q 701 -7 718 -8 q 666 -5 686 -5 q 623 -4 646 -4 q 548 -7 589 -4 q 465 -17 508 -9 l 468 174 q 392 18 442 73 q 275 -37 342 -37 q 228 -32 254 -37 q 174 -11 201 -26 q 120 31 146 4 q 74 101 94 58 q 41 206 54 144 q 29 351 29 267 q 52 546 29 465 q 111 679 75 627 q 191 754 147 730 q 275 778 234 778 q 339 768 311 778 q 391 743 368 758 q 429 709 413 728 q 456 671 446 690 q 450 720 454 694 q 440 774 446 746 q 530 762 484 765 q 614 760 575 760 q 688 762 660 760 q 718 764 705 762 q 705 688 711 730 q 694 598 699 646 q 687 497 690 550 q 685 390 685 445 q 695 184 685 288 q 730 -9 705 81 m 452 379 l 452 489 q 450 526 452 507 q 440 561 448 545 q 420 586 433 576 q 383 596 406 596 q 343 579 359 596 q 317 533 327 562 q 303 463 307 503 q 300 375 300 422 q 303 320 300 348 q 316 270 307 292 q 340 233 325 247 q 376 218 355 218 q 416 235 401 218 q 438 277 431 252 q 449 330 446 302 q 452 379 452 357 m 636 949 q 601 909 618 927 q 566 878 585 890 q 526 858 548 865 q 476 850 505 850 q 436 859 452 850 q 405 878 420 867 q 374 896 390 888 q 336 905 358 905 q 297 897 314 905 q 269 876 281 889 q 249 846 257 863 q 237 812 241 829 q 190 885 218 852 q 123 935 162 918 q 169 983 149 962 q 209 1016 189 1003 q 252 1036 229 1029 q 304 1042 274 1042 q 342 1034 325 1042 q 375 1017 359 1026 q 405 999 391 1007 q 435 991 419 991 q 462 998 450 991 q 484 1017 475 1006 q 499 1043 493 1029 q 507 1070 505 1057 q 533 1038 517 1056 q 566 1003 549 1021 q 602 971 583 986 q 636 949 620 957 z "},"":{"ha":758,"x_min":29,"x_max":730,"o":"m 730 -9 q 701 -7 718 -8 q 666 -5 686 -5 q 623 -4 646 -4 q 548 -7 589 -4 q 465 -17 508 -9 l 468 174 q 392 18 442 73 q 275 -37 342 -37 q 228 -32 254 -37 q 174 -11 201 -26 q 120 31 146 4 q 74 101 94 58 q 41 206 54 144 q 29 351 29 267 q 52 546 29 465 q 111 679 75 627 q 191 754 147 730 q 275 778 234 778 q 339 768 311 778 q 391 743 368 758 q 429 709 413 728 q 456 671 446 690 q 450 720 454 694 q 440 774 446 746 q 530 762 484 765 q 614 760 575 760 q 688 762 660 760 q 718 764 705 762 q 705 688 711 730 q 694 598 699 646 q 687 497 690 550 q 685 390 685 445 q 695 184 685 288 q 730 -9 705 81 m 452 379 l 452 489 q 450 526 452 507 q 440 561 448 545 q 420 586 433 576 q 383 596 406 596 q 343 579 359 596 q 317 533 327 562 q 303 463 307 503 q 300 375 300 422 q 303 320 300 348 q 316 270 307 292 q 340 233 325 247 q 376 218 355 218 q 416 235 401 218 q 438 277 431 252 q 449 330 446 302 q 452 379 452 357 m 544 994 q 537 941 544 970 q 512 888 530 913 q 462 846 494 863 q 379 829 430 829 q 293 846 326 829 q 243 886 260 862 q 220 940 226 911 q 215 994 215 968 q 221 1046 215 1017 q 245 1099 227 1074 q 295 1139 262 1123 q 379 1156 327 1156 q 464 1139 432 1156 q 514 1099 496 1123 q 538 1046 532 1074 q 544 994 544 1017 m 440 998 q 438 1017 440 1006 q 430 1036 436 1027 q 413 1051 424 1045 q 383 1057 401 1057 q 353 1051 365 1057 q 336 1036 342 1045 q 327 1017 330 1027 q 325 998 325 1006 q 327 978 325 988 q 334 958 328 967 q 352 944 340 949 q 383 938 363 938 q 411 944 400 938 q 429 959 422 950 q 438 978 435 968 q 440 998 440 989 z "},"":{"ha":639,"x_min":24,"x_max":619,"o":"m 433 -175 q 412 -248 433 -222 q 357 -286 390 -273 q 284 -300 323 -298 q 208 -302 244 -302 q 213 -273 212 -288 q 215 -241 215 -258 q 214 -216 215 -229 q 208 -191 212 -202 q 221 -198 212 -195 q 241 -203 231 -201 q 261 -207 251 -205 q 277 -208 271 -208 q 310 -200 295 -208 q 325 -170 325 -191 q 319 -151 325 -159 q 305 -138 314 -143 q 286 -131 296 -134 q 267 -129 276 -129 q 243 -131 255 -129 q 220 -136 231 -132 l 258 -28 q 158 23 201 -14 q 84 112 114 60 q 39 227 54 164 q 24 354 24 290 q 35 461 24 407 q 67 567 46 516 q 120 662 89 618 q 191 740 151 707 q 277 792 230 773 q 378 811 324 811 q 463 800 426 811 q 526 769 499 788 q 571 725 553 750 q 600 674 589 701 q 615 623 610 648 q 619 575 619 597 q 610 520 619 549 q 583 468 601 492 q 538 430 566 445 q 476 415 511 415 q 425 425 446 415 q 391 452 404 435 q 371 489 377 468 q 364 533 364 511 q 387 615 364 581 q 397 598 391 604 q 409 589 404 592 q 422 586 416 587 q 448 595 442 586 q 454 615 453 604 q 446 637 454 627 q 415 648 437 648 q 398 647 409 648 q 373 638 387 645 q 345 618 359 631 q 318 582 330 605 q 299 523 307 558 q 292 439 292 488 q 307 356 292 388 q 342 308 321 325 q 386 284 363 290 q 425 278 409 278 q 461 283 439 278 q 504 302 483 288 q 543 339 526 315 q 567 401 561 363 q 596 337 585 374 q 607 258 607 299 q 587 151 607 201 q 530 60 566 100 q 442 -4 493 21 q 329 -35 391 -30 l 322 -64 q 368 -72 347 -64 q 402 -95 388 -80 q 425 -130 417 -110 q 433 -175 433 -151 z "},"":{"ha":650,"x_min":22,"x_max":652,"o":"m 621 631 q 606 532 621 580 q 555 446 591 484 q 456 387 518 409 q 298 364 394 364 q 312 309 301 331 q 339 273 323 286 q 372 252 355 259 q 405 243 390 245 q 430 240 420 240 q 440 240 440 240 q 515 262 482 245 q 543 279 530 269 q 568 304 557 290 q 586 337 579 319 q 595 380 593 356 q 620 298 612 336 q 627 227 627 260 q 605 114 627 165 q 544 26 583 63 q 452 -32 505 -12 q 336 -53 399 -53 q 219 -32 275 -53 q 118 35 162 -11 q 48 154 75 81 q 22 332 22 227 q 55 532 22 445 q 142 679 87 620 q 270 769 197 739 q 421 800 342 800 q 497 791 460 800 q 561 762 533 783 q 604 710 588 742 q 621 631 621 677 m 296 476 q 340 484 315 477 q 387 504 365 491 q 425 536 410 517 q 440 579 440 555 q 429 604 440 595 q 401 614 418 614 q 359 600 378 614 q 327 566 340 587 q 306 522 314 546 q 296 476 298 497 m 428 852 l 293 913 q 370 1027 334 972 q 401 1075 385 1050 q 431 1122 417 1099 q 456 1165 445 1145 q 475 1200 468 1185 q 526 1166 496 1184 q 585 1132 556 1147 q 652 1095 617 1114 l 428 852 z "},"":{"ha":650,"x_min":22,"x_max":627,"o":"m 621 631 q 606 532 621 580 q 555 446 591 484 q 456 387 518 409 q 298 364 394 364 q 312 309 301 331 q 339 273 323 286 q 372 252 355 259 q 405 243 390 245 q 430 240 420 240 q 440 240 440 240 q 515 262 482 245 q 543 279 530 269 q 568 304 557 290 q 586 337 579 319 q 595 380 593 356 q 620 298 612 336 q 627 227 627 260 q 605 114 627 165 q 544 26 583 63 q 452 -32 505 -12 q 336 -53 399 -53 q 219 -32 275 -53 q 118 35 162 -11 q 48 154 75 81 q 22 332 22 227 q 55 532 22 445 q 142 679 87 620 q 270 769 197 739 q 421 800 342 800 q 497 791 460 800 q 561 762 533 783 q 604 710 588 742 q 621 631 621 677 m 296 476 q 340 484 315 477 q 387 504 365 491 q 425 536 410 517 q 440 579 440 555 q 429 604 440 595 q 401 614 418 614 q 359 600 378 614 q 327 566 340 587 q 306 522 314 546 q 296 476 298 497 m 270 836 l 45 1078 q 113 1116 79 1097 q 172 1149 141 1131 q 224 1183 202 1168 q 241 1149 230 1169 q 266 1106 252 1128 q 296 1059 280 1083 q 327 1011 311 1034 q 404 897 363 956 l 270 836 z "},"":{"ha":650,"x_min":22,"x_max":627,"o":"m 621 631 q 606 532 621 580 q 555 446 591 484 q 456 387 518 409 q 298 364 394 364 q 312 309 301 331 q 339 273 323 286 q 372 252 355 259 q 405 243 390 245 q 430 240 420 240 q 440 240 440 240 q 515 262 482 245 q 543 279 530 269 q 568 304 557 290 q 586 337 579 319 q 595 380 593 356 q 620 298 612 336 q 627 227 627 260 q 605 114 627 165 q 544 26 583 63 q 452 -32 505 -12 q 336 -53 399 -53 q 219 -32 275 -53 q 118 35 162 -11 q 48 154 75 81 q 22 332 22 227 q 55 532 22 445 q 142 679 87 620 q 270 769 197 739 q 421 800 342 800 q 497 791 460 800 q 561 762 533 783 q 604 710 588 742 q 621 631 621 677 m 296 476 q 340 484 315 477 q 387 504 365 491 q 425 536 410 517 q 440 579 440 555 q 429 604 440 595 q 401 614 418 614 q 359 600 378 614 q 327 566 340 587 q 306 522 314 546 q 296 476 298 497 m 555 909 q 455 878 507 895 q 359 837 404 861 q 361 858 361 848 q 362 878 362 868 q 349 961 362 920 q 314 1038 335 1002 q 292 992 300 1018 q 278 940 283 967 q 270 886 273 913 q 268 837 268 860 q 181 874 225 857 q 92 906 136 892 q 135 955 114 927 q 175 1014 156 983 q 209 1077 193 1045 q 235 1137 224 1108 q 278 1133 256 1135 q 323 1131 300 1131 q 360 1132 341 1131 q 397 1137 380 1133 q 424 1074 408 1106 q 462 1013 441 1042 q 507 956 483 983 q 555 909 530 930 z "},"":{"ha":650,"x_min":22,"x_max":627,"o":"m 621 631 q 606 532 621 580 q 555 446 591 484 q 456 387 518 409 q 298 364 394 364 q 312 309 301 331 q 339 273 323 286 q 372 252 355 259 q 405 243 390 245 q 430 240 420 240 q 440 240 440 240 q 515 262 482 245 q 543 279 530 269 q 568 304 557 290 q 586 337 579 319 q 595 380 593 356 q 620 298 612 336 q 627 227 627 260 q 605 114 627 165 q 544 26 583 63 q 452 -32 505 -12 q 336 -53 399 -53 q 219 -32 275 -53 q 118 35 162 -11 q 48 154 75 81 q 22 332 22 227 q 55 532 22 445 q 142 679 87 620 q 270 769 197 739 q 421 800 342 800 q 497 791 460 800 q 561 762 533 783 q 604 710 588 742 q 621 631 621 677 m 296 476 q 340 484 315 477 q 387 504 365 491 q 425 536 410 517 q 440 579 440 555 q 429 604 440 595 q 401 614 418 614 q 359 600 378 614 q 327 566 340 587 q 306 522 314 546 q 296 476 298 497 m 77 956 q 85 999 77 979 q 110 1035 94 1019 q 145 1059 125 1050 q 188 1067 165 1067 q 231 1059 211 1067 q 266 1035 251 1050 q 290 999 281 1019 q 299 956 299 979 q 290 913 299 933 q 266 878 281 893 q 231 854 251 863 q 188 845 211 845 q 145 854 165 845 q 110 878 125 863 q 85 913 94 893 q 77 956 77 933 m 349 956 q 357 999 349 979 q 381 1035 366 1019 q 417 1059 397 1050 q 460 1067 437 1067 q 503 1059 483 1067 q 538 1035 523 1050 q 562 999 553 1019 q 571 956 571 979 q 562 913 571 933 q 538 878 553 893 q 503 854 523 863 q 460 845 483 845 q 417 854 437 845 q 381 878 397 863 q 357 913 366 893 q 349 956 349 933 z "},"":{"ha":374,"x_min":24,"x_max":472,"o":"m 351 3 q 324 5 340 3 q 292 6 311 5 q 250 7 274 7 q 149 3 206 7 q 24 -11 91 -1 q 45 54 37 15 q 60 137 54 93 q 69 227 66 182 q 73 311 72 273 q 75 375 75 349 q 75 408 75 401 q 69 573 74 496 q 64 639 67 606 q 57 702 61 672 q 48 754 53 731 q 36 791 43 778 q 138 779 91 782 q 222 775 184 775 q 266 776 247 775 q 299 779 286 777 q 328 782 315 780 q 308 635 315 721 q 300 450 300 549 q 302 336 300 394 q 311 221 305 279 q 327 109 317 164 q 351 3 337 54 m 248 824 l 113 884 q 190 999 154 944 q 221 1046 205 1022 q 251 1094 237 1071 q 276 1137 264 1116 q 294 1171 288 1157 q 346 1137 315 1156 q 404 1103 376 1119 q 472 1066 437 1085 l 248 824 z "},"":{"ha":374,"x_min":-102,"x_max":351,"o":"m 351 3 q 324 5 340 3 q 292 6 311 5 q 250 7 274 7 q 149 3 206 7 q 24 -11 91 -1 q 45 54 37 15 q 60 137 54 93 q 69 227 66 182 q 73 311 72 273 q 75 375 75 349 q 75 408 75 401 q 69 573 74 496 q 64 639 67 606 q 57 702 61 672 q 48 754 53 731 q 36 791 43 778 q 138 779 91 782 q 222 775 184 775 q 266 776 247 775 q 299 779 286 777 q 328 782 315 780 q 308 635 315 721 q 300 450 300 549 q 302 336 300 394 q 311 221 305 279 q 327 109 317 164 q 351 3 337 54 m 123 829 l -102 1072 q -35 1109 -68 1090 q 24 1143 -6 1124 q 77 1177 55 1161 q 94 1142 83 1162 q 119 1099 105 1122 q 149 1052 133 1076 q 180 1004 164 1027 q 257 890 216 949 l 123 829 z "},"":{"ha":374,"x_min":-44,"x_max":420,"o":"m 351 3 q 324 5 340 3 q 292 6 311 5 q 250 7 274 7 q 149 3 206 7 q 24 -11 91 -1 q 45 54 37 15 q 60 137 54 93 q 69 227 66 182 q 73 311 72 273 q 75 375 75 349 q 75 408 75 401 q 69 573 74 496 q 64 639 67 606 q 57 702 61 672 q 48 754 53 731 q 36 791 43 778 q 138 779 91 782 q 222 775 184 775 q 266 776 247 775 q 299 779 286 777 q 328 782 315 780 q 308 635 315 721 q 300 450 300 549 q 302 336 300 394 q 311 221 305 279 q 327 109 317 164 q 351 3 337 54 m 420 915 q 320 883 371 900 q 224 842 269 866 q 226 863 225 853 q 227 884 227 873 q 213 966 227 926 q 178 1044 199 1007 q 156 998 165 1023 q 142 945 147 972 q 135 892 137 918 q 132 842 132 865 q 45 880 90 862 q -44 911 1 898 q -1 961 -22 932 q 39 1020 20 989 q 73 1082 58 1050 q 99 1142 88 1114 q 143 1138 121 1140 q 188 1137 165 1137 q 225 1138 205 1137 q 262 1142 244 1139 q 289 1080 272 1112 q 326 1018 305 1048 q 371 962 347 988 q 420 915 395 935 z "},"":{"ha":374,"x_min":-59,"x_max":435,"o":"m 351 3 q 324 5 340 3 q 292 6 311 5 q 250 7 274 7 q 149 3 206 7 q 24 -11 91 -1 q 45 54 37 15 q 60 137 54 93 q 69 227 66 182 q 73 311 72 273 q 75 375 75 349 q 75 408 75 401 q 69 573 74 496 q 64 639 67 606 q 57 702 61 672 q 48 754 53 731 q 36 791 43 778 q 138 779 91 782 q 222 775 184 775 q 266 776 247 775 q 299 779 286 777 q 328 782 315 780 q 308 635 315 721 q 300 450 300 549 q 302 336 300 394 q 311 221 305 279 q 327 109 317 164 q 351 3 337 54 m -59 959 q -50 1002 -59 982 q -26 1037 -41 1022 q 9 1061 -11 1053 q 52 1070 29 1070 q 95 1061 75 1070 q 131 1037 115 1053 q 155 1002 146 1022 q 163 959 163 982 q 155 916 163 936 q 131 881 146 896 q 95 857 115 865 q 52 848 75 848 q 9 857 29 848 q -26 881 -11 865 q -50 916 -41 896 q -59 959 -59 936 m 213 959 q 222 1002 213 982 q 246 1037 231 1022 q 281 1061 261 1053 q 324 1070 301 1070 q 367 1061 347 1070 q 402 1037 387 1053 q 427 1002 418 1022 q 435 959 435 982 q 427 916 435 936 q 402 881 418 896 q 367 857 387 865 q 324 848 347 848 q 281 857 301 848 q 246 881 261 865 q 222 916 231 896 q 213 959 213 936 z "},"":{"ha":754,"x_min":28,"x_max":734,"o":"m 734 -14 q 688 -9 713 -10 q 636 -8 663 -8 q 570 -10 604 -8 q 505 -14 536 -12 q 444 -20 473 -17 q 395 -26 416 -24 q 440 184 424 72 q 456 432 456 296 q 455 459 456 442 q 454 496 455 476 q 449 535 452 515 q 440 572 446 555 q 426 598 435 588 q 404 608 417 608 q 367 595 385 608 q 335 559 349 581 q 313 507 321 536 q 304 447 304 478 q 307 333 304 391 q 316 218 310 275 q 332 106 322 161 q 355 3 341 52 q 328 5 344 3 q 296 6 315 5 q 254 7 278 7 q 153 3 210 7 q 28 -11 95 -1 q 42 82 36 27 q 52 201 48 137 q 59 336 56 266 q 61 475 61 406 q 60 574 61 526 q 56 667 58 623 q 50 747 54 710 q 40 810 45 783 q 142 797 95 800 q 227 793 189 793 q 270 794 251 793 q 303 796 290 795 q 332 800 319 798 q 324 755 328 779 q 317 704 320 732 q 364 754 339 732 q 415 789 389 775 q 465 811 440 804 q 513 818 490 818 q 597 798 562 818 q 656 735 633 778 q 691 626 680 692 q 703 467 703 559 q 703 337 703 403 q 706 208 703 271 q 715 89 709 145 q 734 -14 722 32 m 637 968 q 603 927 619 945 q 568 896 586 909 q 528 876 549 883 q 477 869 506 869 q 437 877 454 869 q 406 896 421 886 q 375 915 391 906 q 337 923 359 923 q 299 915 315 923 q 270 894 282 907 q 251 864 258 881 q 239 830 243 848 q 191 903 219 870 q 125 954 163 937 q 170 1001 150 981 q 210 1035 190 1021 q 253 1054 231 1048 q 305 1061 275 1061 q 343 1053 326 1061 q 376 1035 361 1044 q 406 1017 392 1025 q 436 1009 420 1009 q 464 1017 451 1009 q 485 1036 476 1024 q 500 1061 494 1047 q 508 1088 506 1075 q 534 1057 519 1074 q 567 1022 550 1039 q 603 990 585 1004 q 637 968 621 975 z "},"":{"ha":700,"x_min":25,"x_max":675,"o":"m 675 396 q 669 310 675 357 q 648 215 663 262 q 610 122 634 167 q 549 42 585 77 q 463 -14 513 7 q 346 -35 412 -35 q 230 -15 279 -35 q 144 38 180 5 q 85 114 109 71 q 49 204 62 157 q 30 300 35 252 q 25 392 25 349 q 45 542 25 469 q 107 673 66 616 q 212 766 149 731 q 359 802 275 802 q 462 784 416 802 q 543 737 507 767 q 603 667 578 707 q 644 583 627 627 q 667 490 660 538 q 675 396 675 441 m 439 374 q 438 413 439 389 q 433 462 437 436 q 424 513 430 488 q 409 559 418 539 q 386 593 399 580 q 353 606 372 606 q 321 593 334 606 q 297 562 307 581 q 281 517 288 542 q 271 468 275 492 q 266 420 267 443 q 264 382 264 397 q 267 328 264 359 q 280 267 271 296 q 306 217 290 237 q 350 196 323 196 q 393 215 376 196 q 420 261 410 234 q 435 319 431 289 q 439 374 439 350 m 425 846 l 290 907 q 368 1021 332 966 q 398 1069 382 1044 q 428 1116 414 1093 q 454 1159 442 1139 q 472 1194 465 1179 q 523 1160 493 1178 q 582 1126 553 1141 q 650 1088 614 1107 l 425 846 z "},"":{"ha":700,"x_min":25,"x_max":675,"o":"m 675 396 q 669 310 675 357 q 648 215 663 262 q 610 122 634 167 q 549 42 585 77 q 463 -14 513 7 q 346 -35 412 -35 q 230 -15 279 -35 q 144 38 180 5 q 85 114 109 71 q 49 204 62 157 q 30 300 35 252 q 25 392 25 349 q 45 542 25 469 q 107 673 66 616 q 212 766 149 731 q 359 802 275 802 q 462 784 416 802 q 543 737 507 767 q 603 667 578 707 q 644 583 627 627 q 667 490 660 538 q 675 396 675 441 m 439 374 q 438 413 439 389 q 433 462 437 436 q 424 513 430 488 q 409 559 418 539 q 386 593 399 580 q 353 606 372 606 q 321 593 334 606 q 297 562 307 581 q 281 517 288 542 q 271 468 275 492 q 266 420 267 443 q 264 382 264 397 q 267 328 264 359 q 280 267 271 296 q 306 217 290 237 q 350 196 323 196 q 393 215 376 196 q 420 261 410 234 q 435 319 431 289 q 439 374 439 350 m 286 842 l 61 1084 q 129 1122 96 1103 q 188 1156 157 1137 q 240 1190 218 1174 q 257 1155 246 1175 q 282 1112 269 1135 q 312 1065 296 1089 q 343 1017 328 1040 q 420 903 379 962 l 286 842 z "},"":{"ha":700,"x_min":25,"x_max":675,"o":"m 675 396 q 669 310 675 357 q 648 215 663 262 q 610 122 634 167 q 549 42 585 77 q 463 -14 513 7 q 346 -35 412 -35 q 230 -15 279 -35 q 144 38 180 5 q 85 114 109 71 q 49 204 62 157 q 30 300 35 252 q 25 392 25 349 q 45 542 25 469 q 107 673 66 616 q 212 766 149 731 q 359 802 275 802 q 462 784 416 802 q 543 737 507 767 q 603 667 578 707 q 644 583 627 627 q 667 490 660 538 q 675 396 675 441 m 439 374 q 438 413 439 389 q 433 462 437 436 q 424 513 430 488 q 409 559 418 539 q 386 593 399 580 q 353 606 372 606 q 321 593 334 606 q 297 562 307 581 q 281 517 288 542 q 271 468 275 492 q 266 420 267 443 q 264 382 264 397 q 267 328 264 359 q 280 267 271 296 q 306 217 290 237 q 350 196 323 196 q 393 215 376 196 q 420 261 410 234 q 435 319 431 289 q 439 374 439 350 m 582 922 q 482 890 533 907 q 386 849 431 873 q 388 870 387 860 q 389 890 389 880 q 375 973 389 932 q 340 1050 361 1014 q 318 1005 327 1030 q 304 952 309 979 q 297 899 299 925 q 294 849 294 872 q 207 887 252 869 q 118 918 163 905 q 161 967 140 939 q 201 1026 182 996 q 235 1089 220 1057 q 261 1149 250 1120 q 305 1145 283 1147 q 350 1143 327 1143 q 387 1144 368 1143 q 424 1149 406 1145 q 451 1086 434 1118 q 488 1025 467 1055 q 533 968 509 995 q 582 922 557 942 z "},"":{"ha":700,"x_min":25,"x_max":675,"o":"m 675 396 q 669 310 675 357 q 648 215 663 262 q 610 122 634 167 q 549 42 585 77 q 463 -14 513 7 q 346 -35 412 -35 q 230 -15 279 -35 q 144 38 180 5 q 85 114 109 71 q 49 204 62 157 q 30 300 35 252 q 25 392 25 349 q 45 542 25 469 q 107 673 66 616 q 212 766 149 731 q 359 802 275 802 q 462 784 416 802 q 543 737 507 767 q 603 667 578 707 q 644 583 627 627 q 667 490 660 538 q 675 396 675 441 m 439 374 q 438 413 439 389 q 433 462 437 436 q 424 513 430 488 q 409 559 418 539 q 386 593 399 580 q 353 606 372 606 q 321 593 334 606 q 297 562 307 581 q 281 517 288 542 q 271 468 275 492 q 266 420 267 443 q 264 382 264 397 q 267 328 264 359 q 280 267 271 296 q 306 217 290 237 q 350 196 323 196 q 393 215 376 196 q 420 261 410 234 q 435 319 431 289 q 439 374 439 350 m 103 952 q 112 995 103 975 q 136 1030 121 1015 q 171 1055 151 1046 q 214 1063 191 1063 q 257 1055 237 1063 q 293 1030 277 1046 q 317 995 308 1015 q 326 952 326 975 q 317 909 326 929 q 293 874 308 889 q 257 850 277 859 q 214 841 237 841 q 171 850 191 841 q 136 874 151 859 q 112 909 121 889 q 103 952 103 929 m 375 952 q 384 995 375 975 q 408 1030 393 1015 q 443 1055 423 1046 q 486 1063 463 1063 q 529 1055 509 1063 q 565 1030 549 1046 q 589 995 580 1015 q 597 952 597 975 q 589 909 597 929 q 565 874 580 889 q 529 850 549 859 q 486 841 509 841 q 443 850 463 841 q 408 874 423 859 q 384 909 393 889 q 375 952 375 929 z "},"":{"ha":700,"x_min":25,"x_max":675,"o":"m 675 396 q 669 310 675 357 q 648 215 663 262 q 610 122 634 167 q 549 42 585 77 q 463 -14 513 7 q 346 -35 412 -35 q 230 -15 279 -35 q 144 38 180 5 q 85 114 109 71 q 49 204 62 157 q 30 300 35 252 q 25 392 25 349 q 45 542 25 469 q 107 673 66 616 q 212 766 149 731 q 359 802 275 802 q 462 784 416 802 q 543 737 507 767 q 603 667 578 707 q 644 583 627 627 q 667 490 660 538 q 675 396 675 441 m 439 374 q 438 413 439 389 q 433 462 437 436 q 424 513 430 488 q 409 559 418 539 q 386 593 399 580 q 353 606 372 606 q 321 593 334 606 q 297 562 307 581 q 281 517 288 542 q 271 468 275 492 q 266 420 267 443 q 264 382 264 397 q 267 328 264 359 q 280 267 271 296 q 306 217 290 237 q 350 196 323 196 q 393 215 376 196 q 420 261 410 234 q 435 319 431 289 q 439 374 439 350 m 606 951 q 571 910 587 928 q 536 879 554 892 q 496 859 517 866 q 446 852 474 852 q 406 860 422 852 q 374 879 389 869 q 343 898 359 889 q 305 906 328 906 q 267 898 283 906 q 238 877 250 890 q 219 847 227 864 q 207 813 211 831 q 159 886 187 853 q 93 937 132 920 q 138 984 118 964 q 178 1018 158 1004 q 221 1037 199 1031 q 273 1044 243 1044 q 312 1036 294 1044 q 345 1018 329 1027 q 374 1000 360 1008 q 404 992 389 992 q 432 1000 419 992 q 453 1019 444 1007 q 468 1044 463 1030 q 476 1072 474 1058 q 503 1040 487 1057 q 535 1005 518 1022 q 571 973 553 987 q 606 951 589 958 z "},"":{"ha":663,"x_min":11,"x_max":643,"o":"m 643 782 q 632 711 637 751 q 623 623 627 670 q 617 525 619 576 q 615 422 615 473 q 616 389 615 406 q 616 357 616 372 q 613 281 616 323 q 598 196 609 239 q 567 110 587 152 q 515 35 547 68 q 437 -17 483 3 q 328 -37 391 -37 q 232 -23 273 -37 q 159 16 190 -9 q 107 75 128 41 q 73 148 86 109 q 55 229 60 186 q 49 314 49 272 q 49 327 49 324 q 50 330 50 329 q 50 332 50 330 q 51 342 51 334 q 51 370 51 351 q 52 424 52 389 q 50 516 52 465 q 44 616 49 567 q 32 705 40 665 q 11 764 24 745 q 114 751 66 754 q 203 747 163 747 q 251 748 229 747 q 288 751 272 749 q 319 754 305 752 q 293 603 306 688 q 281 410 281 519 q 283 357 281 385 q 292 308 286 330 q 308 270 298 285 q 335 256 319 256 q 367 269 355 256 q 384 305 378 283 q 391 354 390 327 q 392 408 392 381 q 387 573 391 496 q 381 639 385 606 q 374 702 378 672 q 365 754 370 731 q 353 791 359 778 q 454 779 408 782 q 538 775 501 775 q 582 776 562 775 q 614 779 601 777 q 643 782 631 780 m 396 829 l 261 890 q 338 1004 302 949 q 369 1052 353 1027 q 399 1099 385 1076 q 425 1142 413 1122 q 443 1177 436 1162 q 494 1143 464 1161 q 553 1109 524 1124 q 621 1072 585 1090 l 396 829 z "},"":{"ha":663,"x_min":11,"x_max":643,"o":"m 643 782 q 632 711 637 751 q 623 623 627 670 q 617 525 619 576 q 615 422 615 473 q 616 389 615 406 q 616 357 616 372 q 613 281 616 323 q 598 196 609 239 q 567 110 587 152 q 515 35 547 68 q 437 -17 483 3 q 328 -37 391 -37 q 232 -23 273 -37 q 159 16 190 -9 q 107 75 128 41 q 73 148 86 109 q 55 229 60 186 q 49 314 49 272 q 49 327 49 324 q 50 330 50 329 q 50 332 50 330 q 51 342 51 334 q 51 370 51 351 q 52 424 52 389 q 50 516 52 465 q 44 616 49 567 q 32 705 40 665 q 11 764 24 745 q 114 751 66 754 q 203 747 163 747 q 251 748 229 747 q 288 751 272 749 q 319 754 305 752 q 293 603 306 688 q 281 410 281 519 q 283 357 281 385 q 292 308 286 330 q 308 270 298 285 q 335 256 319 256 q 367 269 355 256 q 384 305 378 283 q 391 354 390 327 q 392 408 392 381 q 387 573 391 496 q 381 639 385 606 q 374 702 378 672 q 365 754 370 731 q 353 791 359 778 q 454 779 408 782 q 538 775 501 775 q 582 776 562 775 q 614 779 601 777 q 643 782 631 780 m 281 823 l 56 1065 q 123 1102 90 1084 q 182 1136 152 1118 q 235 1170 213 1154 q 252 1135 241 1156 q 277 1092 263 1115 q 307 1045 291 1069 q 338 998 322 1021 q 415 883 374 943 l 281 823 z "},"":{"ha":663,"x_min":11,"x_max":643,"o":"m 643 782 q 632 711 637 751 q 623 623 627 670 q 617 525 619 576 q 615 422 615 473 q 616 389 615 406 q 616 357 616 372 q 613 281 616 323 q 598 196 609 239 q 567 110 587 152 q 515 35 547 68 q 437 -17 483 3 q 328 -37 391 -37 q 232 -23 273 -37 q 159 16 190 -9 q 107 75 128 41 q 73 148 86 109 q 55 229 60 186 q 49 314 49 272 q 49 327 49 324 q 50 330 50 329 q 50 332 50 330 q 51 342 51 334 q 51 370 51 351 q 52 424 52 389 q 50 516 52 465 q 44 616 49 567 q 32 705 40 665 q 11 764 24 745 q 114 751 66 754 q 203 747 163 747 q 251 748 229 747 q 288 751 272 749 q 319 754 305 752 q 293 603 306 688 q 281 410 281 519 q 283 357 281 385 q 292 308 286 330 q 308 270 298 285 q 335 256 319 256 q 367 269 355 256 q 384 305 378 283 q 391 354 390 327 q 392 408 392 381 q 387 573 391 496 q 381 639 385 606 q 374 702 378 672 q 365 754 370 731 q 353 791 359 778 q 454 779 408 782 q 538 775 501 775 q 582 776 562 775 q 614 779 601 777 q 643 782 631 780 m 575 911 q 475 879 526 896 q 379 838 424 862 q 381 859 380 849 q 382 880 382 869 q 368 962 382 922 q 334 1040 355 1003 q 311 994 320 1019 q 297 941 302 968 q 290 888 292 914 q 288 838 288 861 q 200 876 245 858 q 111 907 156 894 q 155 957 134 928 q 194 1016 176 985 q 228 1078 213 1046 q 254 1138 243 1109 q 298 1134 276 1136 q 343 1133 320 1133 q 380 1134 361 1133 q 417 1138 399 1135 q 444 1076 427 1107 q 481 1014 460 1044 q 526 958 503 984 q 575 911 550 931 z "},"":{"ha":663,"x_min":11,"x_max":643,"o":"m 643 782 q 632 711 637 751 q 623 623 627 670 q 617 525 619 576 q 615 422 615 473 q 616 389 615 406 q 616 357 616 372 q 613 281 616 323 q 598 196 609 239 q 567 110 587 152 q 515 35 547 68 q 437 -17 483 3 q 328 -37 391 -37 q 232 -23 273 -37 q 159 16 190 -9 q 107 75 128 41 q 73 148 86 109 q 55 229 60 186 q 49 314 49 272 q 49 327 49 324 q 50 330 50 329 q 50 332 50 330 q 51 342 51 334 q 51 370 51 351 q 52 424 52 389 q 50 516 52 465 q 44 616 49 567 q 32 705 40 665 q 11 764 24 745 q 114 751 66 754 q 203 747 163 747 q 251 748 229 747 q 288 751 272 749 q 319 754 305 752 q 293 603 306 688 q 281 410 281 519 q 283 357 281 385 q 292 308 286 330 q 308 270 298 285 q 335 256 319 256 q 367 269 355 256 q 384 305 378 283 q 391 354 390 327 q 392 408 392 381 q 387 573 391 496 q 381 639 385 606 q 374 702 378 672 q 365 754 370 731 q 353 791 359 778 q 454 779 408 782 q 538 775 501 775 q 582 776 562 775 q 614 779 601 777 q 643 782 631 780 m 79 947 q 88 990 79 970 q 112 1025 97 1010 q 148 1049 127 1040 q 191 1058 168 1058 q 234 1049 214 1058 q 269 1025 254 1040 q 293 990 284 1010 q 302 947 302 970 q 293 904 302 924 q 269 868 284 884 q 234 844 254 853 q 191 836 214 836 q 148 844 168 836 q 112 868 127 853 q 88 904 97 884 q 79 947 79 924 m 351 947 q 360 990 351 970 q 384 1025 369 1010 q 419 1049 399 1040 q 463 1058 439 1058 q 506 1049 486 1058 q 541 1025 526 1040 q 565 990 556 1010 q 574 947 574 970 q 565 904 574 924 q 541 868 556 884 q 506 844 526 853 q 463 836 486 836 q 419 844 439 836 q 384 868 399 853 q 360 904 369 884 q 351 947 351 924 z "},"":{"ha":794,"x_min":-11,"x_max":825,"o":"m 825 -8 q 744 -1 783 -3 q 665 1 705 1 q 444 -20 557 1 q 453 9 448 -3 q 463 37 458 22 q 469 73 467 52 q 472 125 472 93 q 467 187 472 157 q 453 239 463 216 q 430 275 444 262 q 397 289 416 289 q 363 277 377 289 q 341 243 349 264 q 329 195 332 222 q 325 138 325 168 q 329 85 325 107 q 337 47 332 63 q 347 18 342 31 q 354 -7 352 5 q 262 1 307 -1 q 172 4 217 4 q 82 1 127 4 q -11 -7 37 -1 q 63 235 31 115 q 117 477 94 355 q 153 722 139 598 q 174 977 167 846 q 284 967 224 970 q 407 964 344 964 q 511 966 460 964 q 604 978 562 969 q 629 723 609 848 q 678 474 648 597 q 745 231 707 351 q 825 -8 783 111 m 446 518 q 437 556 444 531 q 419 613 431 578 q 383 705 407 649 q 371 643 378 670 q 358 593 364 615 q 348 553 352 571 q 343 518 343 534 q 359 466 343 484 q 395 447 375 447 q 430 467 416 447 q 446 518 444 488 m 338 1014 l 113 1256 q 180 1293 147 1275 q 239 1327 209 1309 q 292 1361 270 1345 q 309 1326 298 1347 q 334 1283 320 1306 q 363 1236 348 1261 q 395 1189 379 1212 q 472 1074 431 1134 l 338 1014 z "},"":{"ha":794,"x_min":-11,"x_max":825,"o":"m 825 -8 q 744 -1 783 -3 q 665 1 705 1 q 444 -20 557 1 q 453 9 448 -3 q 463 37 458 22 q 469 73 467 52 q 472 125 472 93 q 467 187 472 157 q 453 239 463 216 q 430 275 444 262 q 397 289 416 289 q 363 277 377 289 q 341 243 349 264 q 329 195 332 222 q 325 138 325 168 q 329 85 325 107 q 337 47 332 63 q 347 18 342 31 q 354 -7 352 5 q 262 1 307 -1 q 172 4 217 4 q 82 1 127 4 q -11 -7 37 -1 q 63 235 31 115 q 117 477 94 355 q 153 722 139 598 q 174 977 167 846 q 284 967 224 970 q 407 964 344 964 q 511 966 460 964 q 604 978 562 969 q 629 723 609 848 q 678 474 648 597 q 745 231 707 351 q 825 -8 783 111 m 446 518 q 437 556 444 531 q 419 613 431 578 q 383 705 407 649 q 371 643 378 670 q 358 593 364 615 q 348 553 352 571 q 343 518 343 534 q 359 466 343 484 q 395 447 375 447 q 430 467 416 447 q 446 518 444 488 m 644 1134 q 609 1093 625 1112 q 574 1062 592 1075 q 534 1042 555 1049 q 484 1035 512 1035 q 444 1043 460 1035 q 412 1062 427 1052 q 381 1081 397 1072 q 343 1089 366 1089 q 305 1081 321 1089 q 276 1060 288 1074 q 257 1030 264 1047 q 245 996 249 1014 q 197 1069 225 1036 q 131 1120 170 1103 q 176 1167 156 1147 q 216 1201 196 1187 q 259 1220 237 1214 q 311 1227 281 1227 q 350 1219 332 1227 q 382 1201 367 1211 q 412 1183 398 1192 q 442 1175 427 1175 q 470 1183 457 1175 q 491 1202 482 1190 q 506 1227 500 1213 q 514 1255 512 1241 q 541 1223 525 1240 q 573 1188 556 1205 q 609 1156 591 1171 q 644 1134 627 1141 z "},"":{"ha":818,"x_min":28,"x_max":789,"o":"m 789 454 q 766 261 789 351 q 696 103 743 170 q 577 -4 649 35 q 408 -43 506 -43 q 240 -4 311 -43 q 121 103 168 35 q 51 261 74 170 q 28 454 28 351 q 42 601 28 530 q 81 732 56 671 q 142 844 106 793 q 219 929 177 894 q 310 985 262 965 q 408 1004 357 1004 q 564 963 494 1004 q 684 847 634 921 q 761 673 734 773 q 789 454 789 572 m 511 513 q 503 607 511 564 q 481 681 495 650 q 448 731 467 713 q 408 749 429 749 q 370 727 388 749 q 337 672 351 706 q 315 596 323 638 q 307 513 307 554 q 314 438 307 473 q 334 379 321 404 q 366 339 347 354 q 408 325 385 325 q 451 339 431 325 q 483 379 470 354 q 504 438 496 404 q 511 513 511 473 m 664 1146 q 629 1105 646 1124 q 594 1074 612 1087 q 554 1054 576 1061 q 504 1047 532 1047 q 464 1056 480 1047 q 433 1074 448 1064 q 402 1093 418 1084 q 363 1101 386 1101 q 325 1094 342 1101 q 297 1073 309 1086 q 277 1043 285 1059 q 265 1008 269 1026 q 218 1082 245 1048 q 151 1132 190 1115 q 196 1179 176 1159 q 237 1213 216 1200 q 279 1233 257 1226 q 332 1239 302 1239 q 370 1231 353 1239 q 403 1213 387 1223 q 433 1196 418 1204 q 463 1187 447 1187 q 490 1195 477 1187 q 512 1214 503 1202 q 527 1239 521 1225 q 534 1267 532 1253 q 561 1235 545 1253 q 594 1200 576 1217 q 629 1168 611 1183 q 664 1146 648 1154 z "},"":{"ha":794,"x_min":-11,"x_max":825,"o":"m 825 -8 q 744 -1 783 -3 q 665 1 705 1 q 444 -20 557 1 q 453 9 448 -3 q 463 37 458 22 q 469 73 467 52 q 472 125 472 93 q 467 187 472 157 q 453 239 463 216 q 430 275 444 262 q 397 289 416 289 q 363 277 377 289 q 341 243 349 264 q 329 195 332 222 q 325 138 325 168 q 329 85 325 107 q 337 47 332 63 q 347 18 342 31 q 354 -7 352 5 q 262 1 307 -1 q 172 4 217 4 q 82 1 127 4 q -11 -7 37 -1 q 63 235 31 115 q 117 477 94 355 q 153 722 139 598 q 174 977 167 846 q 284 967 224 970 q 407 964 344 964 q 511 966 460 964 q 604 978 562 969 q 629 723 609 848 q 678 474 648 597 q 745 231 707 351 q 825 -8 783 111 m 446 518 q 437 556 444 531 q 419 613 431 578 q 383 705 407 649 q 371 643 378 670 q 358 593 364 615 q 348 553 352 571 q 343 518 343 534 q 359 466 343 484 q 395 447 375 447 q 430 467 416 447 q 446 518 444 488 m 639 1082 q 539 1050 590 1067 q 443 1010 488 1034 q 445 1031 444 1021 q 446 1051 446 1041 q 432 1134 446 1093 q 397 1211 418 1175 q 375 1165 384 1191 q 361 1113 366 1140 q 354 1059 356 1086 q 351 1010 351 1033 q 264 1047 309 1029 q 175 1079 220 1065 q 218 1128 197 1100 q 258 1187 239 1156 q 292 1250 277 1218 q 318 1310 307 1281 q 362 1306 340 1308 q 407 1304 384 1304 q 444 1305 425 1304 q 481 1310 463 1306 q 508 1247 491 1279 q 545 1185 524 1215 q 590 1129 566 1156 q 639 1082 614 1103 z "},"":{"ha":699,"x_min":28,"x_max":673,"o":"m 673 -9 q 601 1 638 -3 q 523 7 564 5 q 436 9 482 9 q 335 9 389 9 q 274 9 309 9 q 197 5 238 8 q 113 -2 156 3 q 28 -16 69 -7 q 54 61 43 15 q 72 160 64 108 q 83 267 79 212 q 89 368 87 321 q 91 449 91 414 q 92 496 92 483 q 91 517 92 498 q 90 564 91 535 q 88 631 90 593 q 84 709 87 669 q 78 791 82 750 q 70 870 75 833 q 58 936 64 907 q 43 983 52 966 q 174 969 109 974 q 298 965 238 965 q 437 969 372 965 q 549 979 501 973 q 652 993 606 985 l 652 675 q 576 731 612 711 q 513 760 541 751 q 452 772 480 771 q 396 764 418 772 q 363 742 375 755 q 347 712 351 729 q 343 679 343 696 q 348 644 343 661 q 364 612 353 626 q 392 588 375 597 q 433 579 410 579 q 469 588 453 579 q 497 609 486 597 q 522 639 511 622 l 522 363 q 497 404 511 389 q 468 426 482 418 q 443 434 454 433 q 428 436 432 436 q 362 409 384 436 q 340 339 340 382 q 348 286 340 308 q 367 251 355 264 q 394 231 378 237 q 428 225 410 225 q 486 237 455 225 q 546 270 517 250 q 599 316 575 290 q 637 370 623 342 l 673 -9 m 582 1080 q 482 1048 533 1065 q 386 1007 431 1031 q 388 1028 387 1018 q 389 1048 389 1038 q 375 1131 389 1090 q 340 1208 361 1172 q 318 1163 327 1188 q 304 1110 309 1137 q 297 1057 299 1083 q 294 1007 294 1030 q 207 1045 252 1027 q 118 1076 163 1063 q 161 1125 140 1097 q 201 1184 182 1154 q 235 1247 220 1215 q 261 1307 250 1278 q 305 1303 283 1305 q 350 1301 327 1301 q 387 1302 368 1301 q 424 1307 406 1303 q 451 1244 434 1276 q 488 1183 467 1213 q 533 1126 509 1153 q 582 1080 557 1100 z "},"":{"ha":794,"x_min":-11,"x_max":825,"o":"m 825 -8 q 744 -1 783 -3 q 665 1 705 1 q 444 -20 557 1 q 453 9 448 -3 q 463 37 458 22 q 469 73 467 52 q 472 125 472 93 q 467 187 472 157 q 453 239 463 216 q 430 275 444 262 q 397 289 416 289 q 363 277 377 289 q 341 243 349 264 q 329 195 332 222 q 325 138 325 168 q 329 85 325 107 q 337 47 332 63 q 347 18 342 31 q 354 -7 352 5 q 262 1 307 -1 q 172 4 217 4 q 82 1 127 4 q -11 -7 37 -1 q 63 235 31 115 q 117 477 94 355 q 153 722 139 598 q 174 977 167 846 q 284 967 224 970 q 407 964 344 964 q 511 966 460 964 q 604 978 562 969 q 629 723 609 848 q 678 474 648 597 q 745 231 707 351 q 825 -8 783 111 m 446 518 q 437 556 444 531 q 419 613 431 578 q 383 705 407 649 q 371 643 378 670 q 358 593 364 615 q 348 553 352 571 q 343 518 343 534 q 359 466 343 484 q 395 447 375 447 q 430 467 416 447 q 446 518 444 488 m 453 1008 l 318 1068 q 395 1183 359 1128 q 426 1230 410 1206 q 456 1277 442 1255 q 481 1320 470 1300 q 500 1355 493 1341 q 551 1321 521 1339 q 610 1287 581 1303 q 677 1250 642 1269 l 453 1008 z "},"":{"ha":699,"x_min":28,"x_max":673,"o":"m 673 -9 q 601 1 638 -3 q 523 7 564 5 q 436 9 482 9 q 335 9 389 9 q 274 9 309 9 q 197 5 238 8 q 113 -2 156 3 q 28 -16 69 -7 q 54 61 43 15 q 72 160 64 108 q 83 267 79 212 q 89 368 87 321 q 91 449 91 414 q 92 496 92 483 q 91 517 92 498 q 90 564 91 535 q 88 631 90 593 q 84 709 87 669 q 78 791 82 750 q 70 870 75 833 q 58 936 64 907 q 43 983 52 966 q 174 969 109 974 q 298 965 238 965 q 437 969 372 965 q 549 979 501 973 q 652 993 606 985 l 652 675 q 576 731 612 711 q 513 760 541 751 q 452 772 480 771 q 396 764 418 772 q 363 742 375 755 q 347 712 351 729 q 343 679 343 696 q 348 644 343 661 q 364 612 353 626 q 392 588 375 597 q 433 579 410 579 q 469 588 453 579 q 497 609 486 597 q 522 639 511 622 l 522 363 q 497 404 511 389 q 468 426 482 418 q 443 434 454 433 q 428 436 432 436 q 362 409 384 436 q 340 339 340 382 q 348 286 340 308 q 367 251 355 264 q 394 231 378 237 q 428 225 410 225 q 486 237 455 225 q 546 270 517 250 q 599 316 575 290 q 637 370 623 342 l 673 -9 m 103 1140 q 112 1183 103 1163 q 136 1218 121 1203 q 171 1242 151 1234 q 214 1251 191 1251 q 257 1242 237 1251 q 293 1218 277 1234 q 317 1183 308 1203 q 326 1140 326 1163 q 317 1097 326 1117 q 293 1062 308 1077 q 257 1038 277 1046 q 214 1029 237 1029 q 171 1038 191 1029 q 136 1062 151 1046 q 112 1097 121 1077 q 103 1140 103 1117 m 375 1140 q 384 1183 375 1163 q 408 1218 393 1203 q 443 1242 423 1234 q 486 1251 463 1251 q 529 1242 509 1251 q 565 1218 549 1234 q 589 1183 580 1203 q 597 1140 597 1163 q 589 1097 597 1117 q 565 1062 580 1077 q 529 1038 549 1046 q 486 1029 509 1029 q 443 1038 463 1029 q 408 1062 423 1046 q 384 1097 393 1077 q 375 1140 375 1117 z "},"":{"ha":699,"x_min":28,"x_max":673,"o":"m 673 -9 q 601 1 638 -3 q 523 7 564 5 q 436 9 482 9 q 335 9 389 9 q 274 9 309 9 q 197 5 238 8 q 113 -2 156 3 q 28 -16 69 -7 q 54 61 43 15 q 72 160 64 108 q 83 267 79 212 q 89 368 87 321 q 91 449 91 414 q 92 496 92 483 q 91 517 92 498 q 90 564 91 535 q 88 631 90 593 q 84 709 87 669 q 78 791 82 750 q 70 870 75 833 q 58 936 64 907 q 43 983 52 966 q 174 969 109 974 q 298 965 238 965 q 437 969 372 965 q 549 979 501 973 q 652 993 606 985 l 652 675 q 576 731 612 711 q 513 760 541 751 q 452 772 480 771 q 396 764 418 772 q 363 742 375 755 q 347 712 351 729 q 343 679 343 696 q 348 644 343 661 q 364 612 353 626 q 392 588 375 597 q 433 579 410 579 q 469 588 453 579 q 497 609 486 597 q 522 639 511 622 l 522 363 q 497 404 511 389 q 468 426 482 418 q 443 434 454 433 q 428 436 432 436 q 362 409 384 436 q 340 339 340 382 q 348 286 340 308 q 367 251 355 264 q 394 231 378 237 q 428 225 410 225 q 486 237 455 225 q 546 270 517 250 q 599 316 575 290 q 637 370 623 342 l 673 -9 m 294 1010 l 69 1253 q 137 1290 104 1272 q 196 1324 165 1305 q 248 1358 227 1342 q 266 1323 254 1343 q 291 1280 277 1303 q 320 1233 304 1257 q 351 1185 336 1208 q 429 1071 387 1131 l 294 1010 z "},"":{"ha":456,"x_min":25,"x_max":524,"o":"m 429 4 q 397 7 415 5 q 360 9 382 8 q 310 9 338 9 q 182 5 255 9 q 25 -14 110 0 q 51 64 40 17 q 69 164 62 111 q 80 272 76 217 q 86 374 84 327 q 89 456 88 422 q 89 504 89 491 q 89 525 89 507 q 87 572 88 543 q 85 639 87 602 q 82 718 84 677 q 76 800 79 758 q 67 878 72 841 q 55 944 62 914 q 40 990 49 973 q 166 974 109 978 q 269 970 223 970 q 324 971 300 970 q 366 974 349 972 q 400 978 385 976 q 386 893 392 940 q 375 794 380 847 q 368 684 370 742 q 366 566 366 627 q 369 422 366 495 q 380 277 372 349 q 400 136 388 205 q 429 4 412 67 m 299 1014 l 164 1074 q 241 1189 205 1134 q 272 1236 256 1212 q 302 1283 288 1261 q 328 1326 316 1306 q 346 1361 339 1347 q 397 1327 367 1345 q 456 1293 427 1309 q 524 1256 488 1275 l 299 1014 z "},"":{"ha":456,"x_min":-3,"x_max":460,"o":"m 429 4 q 397 7 415 5 q 360 9 382 8 q 310 9 338 9 q 182 5 255 9 q 25 -14 110 0 q 51 64 40 17 q 69 164 62 111 q 80 272 76 217 q 86 374 84 327 q 89 456 88 422 q 89 504 89 491 q 89 525 89 507 q 87 572 88 543 q 85 639 87 602 q 82 718 84 677 q 76 800 79 758 q 67 878 72 841 q 55 944 62 914 q 40 990 49 973 q 166 974 109 978 q 269 970 223 970 q 324 971 300 970 q 366 974 349 972 q 400 978 385 976 q 386 893 392 940 q 375 794 380 847 q 368 684 370 742 q 366 566 366 627 q 369 422 366 495 q 380 277 372 349 q 400 136 388 205 q 429 4 412 67 m 460 1099 q 360 1067 412 1084 q 264 1026 309 1050 q 267 1047 266 1037 q 267 1067 267 1057 q 254 1150 267 1109 q 219 1227 240 1191 q 197 1182 205 1207 q 183 1129 188 1156 q 175 1076 178 1102 q 173 1026 173 1049 q 86 1064 130 1046 q -3 1095 41 1082 q 40 1144 19 1116 q 80 1203 61 1173 q 114 1266 98 1234 q 140 1326 129 1297 q 183 1322 161 1324 q 229 1320 205 1320 q 266 1321 246 1320 q 302 1326 285 1322 q 329 1263 313 1295 q 367 1202 346 1232 q 412 1145 388 1172 q 460 1099 435 1119 z "},"":{"ha":456,"x_min":-19,"x_max":475,"o":"m 429 4 q 397 7 415 5 q 360 9 382 8 q 310 9 338 9 q 182 5 255 9 q 25 -14 110 0 q 51 64 40 17 q 69 164 62 111 q 80 272 76 217 q 86 374 84 327 q 89 456 88 422 q 89 504 89 491 q 89 525 89 507 q 87 572 88 543 q 85 639 87 602 q 82 718 84 677 q 76 800 79 758 q 67 878 72 841 q 55 944 62 914 q 40 990 49 973 q 166 974 109 978 q 269 970 223 970 q 324 971 300 970 q 366 974 349 972 q 400 978 385 976 q 386 893 392 940 q 375 794 380 847 q 368 684 370 742 q 366 566 366 627 q 369 422 366 495 q 380 277 372 349 q 400 136 388 205 q 429 4 412 67 m -19 1143 q -10 1186 -19 1166 q 14 1222 -1 1206 q 49 1246 29 1237 q 92 1255 69 1255 q 135 1246 115 1255 q 171 1222 155 1237 q 195 1186 186 1206 q 203 1143 203 1166 q 195 1100 203 1120 q 171 1065 186 1080 q 135 1041 155 1050 q 92 1032 115 1032 q 49 1041 69 1032 q 14 1065 29 1050 q -10 1100 -1 1080 q -19 1143 -19 1120 m 253 1143 q 262 1186 253 1166 q 286 1222 271 1206 q 321 1246 301 1237 q 364 1255 341 1255 q 407 1246 387 1255 q 443 1222 427 1237 q 467 1186 458 1206 q 475 1143 475 1166 q 467 1100 475 1120 q 443 1065 458 1080 q 407 1041 427 1050 q 364 1032 387 1032 q 321 1041 341 1032 q 286 1065 301 1050 q 262 1100 271 1080 q 253 1143 253 1120 z "},"":{"ha":456,"x_min":-70,"x_max":429,"o":"m 429 4 q 397 7 415 5 q 360 9 382 8 q 310 9 338 9 q 182 5 255 9 q 25 -14 110 0 q 51 64 40 17 q 69 164 62 111 q 80 272 76 217 q 86 374 84 327 q 89 456 88 422 q 89 504 89 491 q 89 525 89 507 q 87 572 88 543 q 85 639 87 602 q 82 718 84 677 q 76 800 79 758 q 67 878 72 841 q 55 944 62 914 q 40 990 49 973 q 166 974 109 978 q 269 970 223 970 q 324 971 300 970 q 366 974 349 972 q 400 978 385 976 q 386 893 392 940 q 375 794 380 847 q 368 684 370 742 q 366 566 366 627 q 369 422 366 495 q 380 277 372 349 q 400 136 388 205 q 429 4 412 67 m 155 1030 l -70 1272 q -2 1310 -35 1291 q 57 1343 26 1325 q 109 1377 87 1362 q 126 1343 115 1363 q 152 1300 138 1322 q 181 1253 165 1277 q 212 1205 197 1228 q 290 1090 248 1150 l 155 1030 z "},"":{"ha":818,"x_min":28,"x_max":789,"o":"m 789 454 q 766 261 789 351 q 696 103 743 170 q 577 -4 649 35 q 408 -43 506 -43 q 240 -4 311 -43 q 121 103 168 35 q 51 261 74 170 q 28 454 28 351 q 42 601 28 530 q 81 732 56 671 q 142 844 106 793 q 219 929 177 894 q 310 985 262 965 q 408 1004 357 1004 q 564 963 494 1004 q 684 847 634 921 q 761 673 734 773 q 789 454 789 572 m 511 513 q 503 607 511 564 q 481 681 495 650 q 448 731 467 713 q 408 749 429 749 q 370 727 388 749 q 337 672 351 706 q 315 596 323 638 q 307 513 307 554 q 314 438 307 473 q 334 379 321 404 q 366 339 347 354 q 408 325 385 325 q 451 339 431 325 q 483 379 470 354 q 504 438 496 404 q 511 513 511 473 m 528 1040 l 393 1100 q 471 1215 435 1160 q 502 1262 486 1238 q 531 1309 517 1286 q 557 1352 545 1332 q 575 1387 568 1373 q 626 1353 596 1371 q 685 1319 656 1335 q 753 1282 718 1301 l 528 1040 z "},"":{"ha":818,"x_min":28,"x_max":789,"o":"m 789 454 q 766 261 789 351 q 696 103 743 170 q 577 -4 649 35 q 408 -43 506 -43 q 240 -4 311 -43 q 121 103 168 35 q 51 261 74 170 q 28 454 28 351 q 42 601 28 530 q 81 732 56 671 q 142 844 106 793 q 219 929 177 894 q 310 985 262 965 q 408 1004 357 1004 q 564 963 494 1004 q 684 847 634 921 q 761 673 734 773 q 789 454 789 572 m 511 513 q 503 607 511 564 q 481 681 495 650 q 448 731 467 713 q 408 749 429 749 q 370 727 388 749 q 337 672 351 706 q 315 596 323 638 q 307 513 307 554 q 314 438 307 473 q 334 379 321 404 q 366 339 347 354 q 408 325 385 325 q 451 339 431 325 q 483 379 470 354 q 504 438 496 404 q 511 513 511 473 m 640 1126 q 540 1095 591 1112 q 444 1054 489 1078 q 446 1075 446 1065 q 447 1095 447 1085 q 433 1178 447 1137 q 399 1255 420 1219 q 376 1210 385 1235 q 362 1157 368 1184 q 355 1103 357 1130 q 353 1054 353 1077 q 266 1092 310 1074 q 176 1123 221 1109 q 220 1172 199 1144 q 259 1231 241 1200 q 293 1294 278 1262 q 319 1354 309 1325 q 363 1350 341 1352 q 408 1348 385 1348 q 445 1349 426 1348 q 482 1354 465 1350 q 509 1291 492 1323 q 547 1230 526 1259 q 591 1173 568 1200 q 640 1126 615 1147 z "},"":{"ha":818,"x_min":28,"x_max":789,"o":"m 789 454 q 766 261 789 351 q 696 103 743 170 q 577 -4 649 35 q 408 -43 506 -43 q 240 -4 311 -43 q 121 103 168 35 q 51 261 74 170 q 28 454 28 351 q 42 601 28 530 q 81 732 56 671 q 142 844 106 793 q 219 929 177 894 q 310 985 262 965 q 408 1004 357 1004 q 564 963 494 1004 q 684 847 634 921 q 761 673 734 773 q 789 454 789 572 m 511 513 q 503 607 511 564 q 481 681 495 650 q 448 731 467 713 q 408 749 429 749 q 370 727 388 749 q 337 672 351 706 q 315 596 323 638 q 307 513 307 554 q 314 438 307 473 q 334 379 321 404 q 366 339 347 354 q 408 325 385 325 q 451 339 431 325 q 483 379 470 354 q 504 438 496 404 q 511 513 511 473 m 335 1042 l 110 1284 q 178 1321 144 1303 q 237 1355 206 1337 q 289 1389 267 1373 q 306 1354 295 1375 q 331 1311 317 1334 q 361 1264 345 1289 q 392 1217 376 1240 q 469 1102 428 1162 l 335 1042 z "},"":{"ha":814,"x_min":11,"x_max":791,"o":"m 791 978 q 766 791 776 900 q 757 557 757 682 q 757 523 757 539 q 758 488 758 506 q 759 452 759 471 q 760 411 760 433 q 756 314 760 366 q 739 212 752 262 q 703 114 726 161 q 639 31 679 66 q 541 -26 600 -5 q 401 -47 483 -47 q 270 -30 325 -47 q 176 17 214 -13 q 114 88 138 47 q 77 176 90 129 q 60 274 64 223 q 56 375 56 325 q 56 413 56 397 q 57 440 56 428 q 58 466 58 453 q 60 496 59 479 q 61 539 60 514 q 61 602 61 564 q 59 705 61 647 q 52 818 58 762 q 37 921 47 874 q 11 990 27 967 q 139 974 79 978 q 250 970 199 970 q 309 971 283 970 q 355 974 336 972 q 393 978 377 976 q 376 884 385 936 q 360 772 367 831 q 349 646 353 712 q 345 513 345 581 q 348 375 345 428 q 357 293 351 322 q 375 252 364 263 q 401 241 386 241 q 437 255 422 241 q 461 299 452 268 q 476 382 471 331 q 481 511 480 434 q 474 718 479 622 q 468 800 472 758 q 459 878 465 841 q 448 944 454 914 q 432 990 441 973 q 557 974 500 978 q 661 970 615 970 q 716 971 692 970 q 757 974 740 972 q 791 978 777 976 m 490 1030 l 355 1090 q 433 1205 397 1150 q 464 1253 448 1228 q 493 1300 479 1277 q 519 1343 507 1322 q 537 1377 530 1363 q 588 1343 558 1362 q 647 1310 618 1325 q 715 1272 680 1291 l 490 1030 z "},"":{"ha":814,"x_min":11,"x_max":791,"o":"m 791 978 q 766 791 776 900 q 757 557 757 682 q 757 523 757 539 q 758 488 758 506 q 759 452 759 471 q 760 411 760 433 q 756 314 760 366 q 739 212 752 262 q 703 114 726 161 q 639 31 679 66 q 541 -26 600 -5 q 401 -47 483 -47 q 270 -30 325 -47 q 176 17 214 -13 q 114 88 138 47 q 77 176 90 129 q 60 274 64 223 q 56 375 56 325 q 56 413 56 397 q 57 440 56 428 q 58 466 58 453 q 60 496 59 479 q 61 539 60 514 q 61 602 61 564 q 59 705 61 647 q 52 818 58 762 q 37 921 47 874 q 11 990 27 967 q 139 974 79 978 q 250 970 199 970 q 309 971 283 970 q 355 974 336 972 q 393 978 377 976 q 376 884 385 936 q 360 772 367 831 q 349 646 353 712 q 345 513 345 581 q 348 375 345 428 q 357 293 351 322 q 375 252 364 263 q 401 241 386 241 q 437 255 422 241 q 461 299 452 268 q 476 382 471 331 q 481 511 480 434 q 474 718 479 622 q 468 800 472 758 q 459 878 465 841 q 448 944 454 914 q 432 990 441 973 q 557 974 500 978 q 661 970 615 970 q 716 971 692 970 q 757 974 740 972 q 791 978 777 976 m 654 1106 q 554 1074 606 1091 q 458 1034 503 1057 q 460 1055 460 1044 q 461 1075 461 1065 q 448 1158 461 1117 q 413 1235 434 1198 q 391 1189 399 1215 q 377 1137 382 1164 q 369 1083 372 1109 q 367 1034 367 1057 q 280 1071 324 1053 q 191 1103 235 1089 q 234 1152 213 1124 q 274 1211 255 1180 q 308 1273 292 1242 q 334 1333 323 1305 q 377 1330 355 1331 q 422 1328 399 1328 q 459 1329 440 1328 q 496 1333 479 1330 q 523 1271 507 1303 q 561 1209 540 1239 q 606 1153 582 1179 q 654 1106 629 1126 z "},"":{"ha":814,"x_min":11,"x_max":791,"o":"m 791 978 q 766 791 776 900 q 757 557 757 682 q 757 523 757 539 q 758 488 758 506 q 759 452 759 471 q 760 411 760 433 q 756 314 760 366 q 739 212 752 262 q 703 114 726 161 q 639 31 679 66 q 541 -26 600 -5 q 401 -47 483 -47 q 270 -30 325 -47 q 176 17 214 -13 q 114 88 138 47 q 77 176 90 129 q 60 274 64 223 q 56 375 56 325 q 56 413 56 397 q 57 440 56 428 q 58 466 58 453 q 60 496 59 479 q 61 539 60 514 q 61 602 61 564 q 59 705 61 647 q 52 818 58 762 q 37 921 47 874 q 11 990 27 967 q 139 974 79 978 q 250 970 199 970 q 309 971 283 970 q 355 974 336 972 q 393 978 377 976 q 376 884 385 936 q 360 772 367 831 q 349 646 353 712 q 345 513 345 581 q 348 375 345 428 q 357 293 351 322 q 375 252 364 263 q 401 241 386 241 q 437 255 422 241 q 461 299 452 268 q 476 382 471 331 q 481 511 480 434 q 474 718 479 622 q 468 800 472 758 q 459 878 465 841 q 448 944 454 914 q 432 990 441 973 q 557 974 500 978 q 661 970 615 970 q 716 971 692 970 q 757 974 740 972 q 791 978 777 976 m 342 1018 l 117 1260 q 184 1297 151 1279 q 243 1331 213 1313 q 296 1365 274 1350 q 313 1331 302 1351 q 338 1288 324 1310 q 368 1240 352 1265 q 399 1193 383 1216 q 476 1078 435 1138 l 342 1018 z "},"":{"ha":728,"x_min":14,"x_max":703,"o":"m 703 779 q 690 711 695 751 q 681 625 685 671 q 674 528 677 578 q 670 431 672 478 q 665 195 666 319 q 657 58 665 125 q 630 -69 648 -9 q 582 -180 611 -129 q 510 -268 552 -231 q 411 -326 467 -305 q 285 -347 355 -347 q 171 -334 219 -347 q 91 -295 123 -320 q 44 -236 60 -271 q 29 -160 29 -201 q 43 -85 29 -119 q 81 -28 58 -52 q 133 7 104 -5 q 192 20 162 20 q 264 -2 230 20 q 315 -71 298 -24 q 306 -66 311 -67 q 296 -65 301 -65 q 280 -68 288 -65 q 267 -78 273 -72 q 257 -92 260 -84 q 253 -109 253 -100 q 257 -126 253 -119 q 267 -137 261 -133 q 280 -143 273 -141 q 293 -144 287 -144 q 317 -140 302 -144 q 346 -123 331 -136 q 377 -87 361 -111 q 404 -26 392 -64 q 423 67 416 12 q 429 199 430 122 q 392 122 412 151 q 352 76 373 92 q 307 54 330 60 q 257 49 283 49 q 188 61 224 49 q 121 103 151 73 q 71 185 91 133 q 52 318 52 237 q 52 333 52 329 q 52 340 52 338 q 53 346 52 342 q 54 359 54 349 q 54 387 54 369 q 54 439 54 406 q 53 526 54 477 q 47 622 52 575 q 35 707 43 669 q 14 764 26 745 q 117 751 68 754 q 205 747 165 747 q 253 748 232 747 q 290 751 275 749 q 322 754 308 752 q 310 710 317 743 q 298 632 304 677 q 288 533 292 587 q 283 424 283 479 q 290 353 283 382 q 306 306 296 324 q 331 278 317 287 q 361 269 345 269 q 402 290 387 269 q 428 343 417 311 q 423 441 427 385 q 414 559 420 498 q 399 682 408 620 q 376 798 390 744 q 427 784 397 790 q 488 775 452 779 q 572 771 524 771 q 703 779 630 771 m 111 934 q 120 977 111 957 q 144 1012 129 997 q 179 1036 159 1027 q 222 1045 199 1045 q 266 1036 245 1045 q 301 1012 286 1027 q 325 977 316 997 q 334 934 334 957 q 325 891 334 911 q 301 856 316 871 q 266 831 286 840 q 222 823 245 823 q 179 831 199 823 q 144 856 159 840 q 120 891 129 871 q 111 934 111 911 m 383 934 q 392 977 383 957 q 416 1012 401 997 q 451 1036 431 1027 q 494 1045 471 1045 q 537 1036 517 1045 q 573 1012 557 1027 q 597 977 588 997 q 606 934 606 957 q 597 891 606 911 q 573 856 588 871 q 537 831 557 840 q 494 823 517 823 q 451 831 471 823 q 416 856 431 840 q 392 891 401 871 q 383 934 383 911 z "},"":{"ha":774,"x_min":-4,"x_max":758,"o":"m 758 962 q 743 913 749 941 q 731 854 736 885 q 722 792 726 824 q 717 730 719 760 q 710 583 711 659 q 711 515 710 550 q 711 444 711 480 q 707 330 711 387 q 690 219 703 272 q 650 120 676 166 q 578 40 623 74 q 467 -14 533 6 q 307 -33 401 -33 q 184 -16 236 -33 q 99 31 132 1 q 49 99 65 60 q 33 182 33 138 q 47 243 33 214 q 83 292 60 271 q 135 325 106 313 q 196 336 165 336 q 273 315 236 336 q 339 248 311 294 q 325 250 332 249 q 311 250 317 250 q 262 208 262 250 q 280 176 262 189 q 329 164 298 164 q 389 184 366 164 q 424 233 412 203 q 440 299 436 263 q 444 367 444 334 l 444 396 q 414 375 431 382 q 378 362 396 367 q 342 357 359 358 q 314 355 326 355 q 232 366 273 355 q 158 407 191 377 q 102 490 124 437 q 78 628 81 543 q 78 654 78 631 q 75 710 77 677 q 67 784 73 744 q 53 863 62 824 q 30 934 44 901 q -4 986 16 967 q 124 969 68 974 q 224 964 181 964 q 282 965 257 964 q 323 970 307 967 q 355 977 342 972 q 348 918 352 949 q 341 856 345 887 q 337 792 338 824 q 335 730 335 760 q 338 667 335 696 q 347 615 340 637 q 364 581 353 593 q 390 568 374 568 q 422 589 409 568 q 444 643 435 610 q 455 719 452 677 q 458 803 458 761 q 455 896 458 852 q 446 968 451 941 q 477 960 458 963 q 522 955 494 957 q 590 953 549 953 q 664 955 623 953 q 758 962 706 957 m 132 1136 q 141 1179 132 1159 q 165 1214 150 1199 q 200 1238 180 1230 q 243 1247 220 1247 q 287 1238 267 1247 q 322 1214 307 1230 q 346 1179 337 1199 q 355 1136 355 1159 q 346 1093 355 1113 q 322 1058 337 1073 q 287 1034 307 1042 q 243 1025 267 1025 q 200 1034 220 1025 q 165 1058 180 1042 q 141 1093 150 1073 q 132 1136 132 1113 m 404 1136 q 413 1179 404 1159 q 437 1214 422 1199 q 472 1238 452 1230 q 515 1247 492 1247 q 558 1238 538 1247 q 594 1214 578 1230 q 618 1179 609 1199 q 627 1136 627 1159 q 618 1093 627 1113 q 594 1058 609 1073 q 558 1034 578 1042 q 515 1025 538 1025 q 472 1034 492 1025 q 437 1058 452 1042 q 413 1093 422 1073 q 404 1136 404 1113 z "},"":{"ha":526,"x_min":24,"x_max":500,"o":"m 346 1100 q 336 1027 340 1064 q 329 956 332 991 q 324 889 326 921 q 321 829 322 857 q 409 806 374 827 q 464 758 444 786 q 492 698 484 729 q 500 642 500 667 q 493 597 500 620 q 471 556 486 574 q 436 525 457 537 q 386 513 414 513 q 345 521 362 513 q 316 542 328 529 q 300 573 305 555 q 294 608 294 590 q 299 643 294 626 q 314 672 304 660 q 322 659 317 663 q 331 652 326 654 q 342 650 336 650 q 363 657 359 650 q 368 672 367 664 q 360 691 368 682 q 336 700 353 700 q 313 696 330 700 q 280 675 297 692 q 250 625 263 659 q 237 532 237 591 q 249 466 237 491 q 277 427 260 441 q 312 408 294 413 q 343 403 330 403 q 371 407 354 403 q 406 421 389 410 q 438 451 424 432 q 458 501 453 471 q 482 450 474 479 q 490 387 490 420 q 490 372 490 386 q 484 335 489 357 q 469 286 479 313 q 439 235 458 260 q 391 189 420 210 q 319 158 362 168 q 323 97 321 130 q 329 26 326 63 q 337 -49 332 -10 q 349 -125 342 -87 q 317 -122 333 -123 q 283 -122 300 -122 q 239 -123 264 -122 q 192 -125 214 -123 q 201 -48 197 -87 q 208 26 205 -10 q 213 96 211 63 q 216 157 215 129 q 134 196 170 167 q 74 267 98 225 q 37 359 50 309 q 24 461 24 409 q 37 567 24 513 q 74 667 50 620 q 135 752 99 715 q 216 810 170 789 q 213 872 215 838 q 208 944 211 907 q 200 1022 205 982 q 189 1100 195 1061 q 221 1098 205 1098 q 254 1097 237 1097 q 299 1098 274 1097 q 346 1100 324 1099 z "},"":{"ha":673,"x_min":24,"x_max":637,"o":"m 498 551 q 490 511 492 530 q 488 472 488 492 q 490 434 488 452 q 498 396 492 416 q 433 412 469 406 q 359 421 396 418 q 375 367 363 387 q 400 337 386 347 q 431 323 414 326 q 461 319 447 319 q 500 326 480 319 q 539 344 520 332 q 575 373 558 356 q 606 410 592 389 l 637 161 q 589 166 617 164 q 532 170 562 169 q 473 172 503 172 q 419 173 444 173 q 378 174 395 174 q 358 174 362 174 q 279 171 321 174 q 195 164 242 169 q 96 153 147 160 q 127 274 113 205 q 144 418 141 342 q 83 412 113 416 q 24 403 53 408 q 28 415 26 408 q 31 431 30 422 q 32 448 32 439 q 32 463 32 456 q 31 506 32 484 q 24 551 29 528 q 78 539 47 544 q 142 530 109 534 q 161 669 142 612 q 215 759 180 725 q 299 808 250 793 q 408 823 348 823 q 512 808 471 823 q 577 770 553 793 q 610 723 601 748 q 619 677 619 697 q 611 643 619 661 q 587 611 603 625 q 549 587 572 596 q 497 578 526 578 q 454 584 472 578 q 425 599 437 589 q 408 622 414 609 q 403 650 403 635 q 408 679 403 665 q 425 704 414 692 q 431 692 427 696 q 441 687 435 688 q 453 685 446 684 q 473 690 469 685 q 479 704 478 696 q 471 718 479 711 q 446 725 463 725 q 422 721 438 725 q 391 698 407 716 q 364 642 376 680 q 353 538 353 604 l 353 526 q 431 536 393 530 q 498 551 470 542 z "}}}
